<svg xmlns="http://www.w3.org/2000/svg" viewBox="0 0 98.62 268.68"><defs><style>.cls-1{fill:#f9c110;}.cls-2{fill:#fca70c;}</style></defs><title>Ресурс 3</title><g id="Слой_2" data-name="Слой 2"><g id="Background_Complete" data-name="Background Complete"><path class="cls-1" d="M0,268.68l.54-.48,1.6-1.34,2.62-2.17,1.67-1.38c.59-.5,1.19-1.07,1.85-1.64l4.32-3.88c1.56-1.44,3.19-3.08,5-4.79s3.59-3.67,5.54-5.69,3.9-4.27,6-6.61,4.09-4.91,6.25-7.54c1.1-1.3,2.1-2.72,3.17-4.13s2.15-2.85,3.22-4.35,2.1-3,3.17-4.61c.53-.78,1.09-1.56,1.61-2.36l1.55-2.47c1-1.65,2.12-3.31,3.16-5l3-5.29c1.06-1.77,2-3.64,3-5.5s2-3.75,2.91-5.71l2.8-5.91,2.62-6.14a222.67,222.67,0,0,0,8.94-26.28,222.29,222.29,0,0,0,5.32-27.26q.39-3.35.78-6.62t.5-6.53c.21-2.15.24-4.29.33-6.4s.19-4.19.15-6.26,0-4.09,0-6.1-.16-4-.23-6c0-1-.09-1.94-.13-2.9s-.15-1.91-.22-2.86q-.22-2.83-.45-5.58c-.19-1.82-.43-3.61-.64-5.37s-.38-3.48-.69-5.16c-.57-3.36-1-6.6-1.67-9.65s-1.17-6-1.89-8.7-1.24-5.32-2-7.68-1.3-4.61-1.93-6.64L69.91,30.2c-.28-.83-.52-1.62-.78-2.34s-.53-1.41-.77-2c-.47-1.26-.86-2.32-1.19-3.19l-.72-2c-.16-.45-.23-.68-.23-.68s.1.22.28.66l.77,1.94,1.24,3.17c.24.63.5,1.3.79,2s.52,1.52.8,2.34c.57,1.66,1.19,3.5,1.88,5.51s1.26,4.25,2,6.63,1.32,5,2,7.69,1.29,5.64,1.93,8.7S79,65,79.61,68.32c.31,1.68.47,3.41.71,5.17s.46,3.55.65,5.38.31,3.69.47,5.59c.07.94.17,1.9.23,2.86l.12,2.91c.08,2,.2,3.94.24,6s0,4,0,6.12-.08,4.16-.15,6.27-.11,4.26-.31,6.41-.33,4.34-.5,6.54-.51,4.41-.77,6.65A221.38,221.38,0,0,1,75,155.5a221.44,221.44,0,0,1-9,26.35L63.4,188l-2.82,5.92c-.89,2-1.94,3.85-2.91,5.72s-1.93,3.75-3,5.52l-3.07,5.3c-1,1.72-2.13,3.38-3.17,5L46.88,218c-.53.81-1.09,1.59-1.62,2.37l-3.19,4.62c-1.07,1.49-2.18,2.92-3.24,4.34s-2.08,2.83-3.18,4.13c-2.18,2.63-4.17,5.23-6.29,7.53s-4,4.6-6,6.6-3.75,4-5.58,5.66-3.44,3.34-5,4.77l-4.36,3.85c-.66.57-1.27,1.13-1.86,1.62l-1.69,1.37L2.2,266.94.57,268.25C.2,268.54,0,268.68,0,268.68Z"/><path class="cls-2" d="M41.18,229.54c-8.49-6.42-11.57-18.26-9.73-28.74S39.3,181,46.17,172.89c6.28,8,10.12,19.54,8.67,29.59s-7.19,18.38-13.66,27.06"/><path class="cls-1" d="M41.14,229.55c-1.46-10.55,4.73-21.1,13.45-27.21S74.12,193.9,84.73,193c-1.19,10.09-6.66,21-14.8,27.06S51.85,228,41.14,229.55"/><path class="cls-2" d="M69.33,173.94c-7.55-4.17-11.57-13.7-11.55-22.79s3.47-17.81,7.77-25.65c6,5.8,10.6,15,10.83,23.66s-3.15,16.53-7,24.78"/><path class="cls-1" d="M69.3,174c-2.58-8.67.85-18.46,6.86-24.87s14.2-10,22.41-12.25c.43,8.67-2.38,18.64-7.95,24.95S77.49,171.07,69.3,174"/><path class="cls-2" d="M82.5,118.1c-7.32-1-13.21-7.1-15.66-14.07s-2-14.62-.6-21.87C72.76,84.84,79,90.53,81.55,97.1s1.9,13.55,1,21"/><path class="cls-1" d="M82.47,118.11c-4.47-5.87-4.31-14.35-1.12-21s8.94-11.75,15-15.89c2.71,6.5,3.11,14.94.26,21.39s-8.24,10.93-14.18,15.51"/><path class="cls-2" d="M79.72,66.24C73.2,66.75,67,62.55,63.54,57S59.1,44.68,59,38.15C65.09,39.26,71.56,43,75,48.23s4.17,11.39,4.73,18"/><path class="cls-1" d="M79.71,66.26c-5-4.25-6.42-11.63-4.9-18s5.56-11.84,10.08-16.56c3.55,5.12,5.47,12.36,4.2,18.47s-5.09,11-9.38,16.08"/><path class="cls-1" d="M69.69,28S76.9,3.9,52.44,0C52.44,0,46,22.25,69.69,28Z"/></g></g></svg>