<svg xmlns="http://www.w3.org/2000/svg" xmlns:xlink="http://www.w3.org/1999/xlink" id="Слой_1" x="0px" y="0px" viewBox="0 0 52 52" style="enable-background:new 0 0 52 52;" xml:space="preserve"> <style type="text/css"> .st0{fill:#A07DC5;} .st1{fill:#FFFFFF;} </style> <title>CT_sfa_logo</title> <circle class="st0" cx="26" cy="26" r="26"/> <path class="st1" d="M40.2,20.1v16.7h-5.5V20.1h-5.3v-5h16.1v5H40.2z M17.6,20c-3.3,0-5.4,2.5-5.4,6.1c0,3.2,2.1,6,5.4,6 c2.2,0.2,4.3-1.3,4.8-3.5H28c-0.8,6.1-5.7,8.6-10.3,8.6c-5.5,0-11.1-3.7-11.1-11.1s5.6-11.1,11.1-11.1c4.5,0,9.4,2.5,10.2,8.3h-5.5 C21.7,21.1,19.7,19.8,17.6,20"/> </svg>