<svg xmlns="http://www.w3.org/2000/svg" xmlns:xlink="http://www.w3.org/1999/xlink" viewBox="0 0 3222.11 2250"><defs><style>.cls-1{fill:none;}.cls-2{fill:#9de2ff;}.cls-18,.cls-2{opacity:0.5;}.cls-3{fill:#a2dff2;}.cls-4{fill:#96cfe0;}.cls-5{fill:#f37168;}.cls-6{fill:#2e5b9a;}.cls-7{fill:#f09959;}.cls-8{fill:#e38540;}.cls-9{fill:#75a1de;}.cls-10{fill:#a86b48;}.cls-11{fill:#3e6bab;}.cls-12{fill:#f0ceb4;}.cls-13{fill:#f7a96f;}.cls-14{fill:#a8ceff;}.cls-15{fill:#6695d6;}.cls-16{fill:#303c60;}.cls-17{fill:#d54a41;}.cls-18,.cls-20{fill:#d3e3f4;}.cls-19{fill:#fff;}.cls-21{fill:#9cd499;}.cls-22{clip-path:url(#clip-path);}.cls-23{fill:#f39892;}.cls-24{fill:#e7f3fe;}</style><clipPath id="clip-path"><path class="cls-1" d="M264.68,823.12A126.32,126.32,0,1,0,391,949.44,126.32,126.32,0,0,0,264.68,823.12Zm0,193.24a66.92,66.92,0,1,1,66.91-66.92A66.92,66.92,0,0,1,264.68,1016.36Z"/></clipPath></defs><title>image1</title><g id="Слой_2" data-name="Слой 2"><g id="Layer_1" data-name="Layer 1"><path class="cls-2" d="M2802.51,2003.89c281-268.28,348.18-816,87.87-1196.86-217-317.42-616.6-643.93-1120.2-739.11S825.39-27.16,634.59,98.58C478.44,201.48,551,344.8,600,466.58c65.37,162.57,75,291.65-193.91,527.82C99.1,1264,16,1365.2.62,1625.89c-12.51,212,164.5,497.21,396.77,538.08,323.36,56.89,443.39-93.38,759.74-194.69C1410.91,1888,1586.93,1926,1817,2081.77S2390.08,2397.59,2802.51,2003.89Z"/></g><g id="Слой_1-2" data-name="Слой 1"><path class="cls-3" d="M2213.79,1249.11c-44.1,89.51-99.38,334.11-114.46,347.51s-102.2,65.34-117.27,90.47-8.38,16.75-1.68,18.42,385.32,3.35,385.32,3.35-43.56-259.67-48.58-261.34S2213.79,1249.11,2213.79,1249.11Z"/><path class="cls-4" d="M2151.09,1707.65c69.54.49,142.92.87,183.31,1.07L2279.09,1378c-29.49-57.19-65.3-128.86-65.3-128.86-5.56,11.29-11.3,25-17.11,40.48-5.74,248.42,30,318.05,3.17,362.31C2178.88,1686.45,2159.73,1701.9,2151.09,1707.65Z"/><path class="cls-3" d="M2446,1141.08c62.89,58.05,202.86,113.09,202.86,113.09s21.27,196.5,6.76,307.76-6.45,133.83-6.45,133.83l-302.27,2.58s-25.09-56.33-96-223.48c-45.15-106.42-37.08-225.75-37.08-225.75l175.75-79Z"/><path class="cls-4" d="M2360.52,1695.76h288.63s-8.06-22.57,6.45-133.83c12-91.62-.36-241-5.08-290.92l-26.25-11.25c-65.9,19-103.87,117.28-115,213.33-7.48,64.27-113.95,127.54-183.61,162.38C2348.51,1679.08,2360.52,1695.76,2360.52,1695.76Z"/><path class="cls-4" d="M2397.38,1210.9s2.71,83,16.86,82.09,96.42-105.21,96.42-105.21l-14-6.69Z"/><path class="cls-4" d="M2376.1,1206.14s-17.88,76.34-26.75,74.56-20.86-79.38-20.86-79.38Z"/><path class="cls-5" d="M2372.78,1196.63l24.6,2.67,9.47,29.3s-21.63,25.33-22.08,35.54,4.76,48.39,5.05,83-12.44,172.51-6.67,257l5.78,84.46-49.45,1.93s-2.67-92.91,0-192.38,31-234,31-234l-11.17-34.2Z"/><path class="cls-6" d="M2289.76,939.39c-34.79,77.49,7,149.28,5.7,146.25s52.66-130.83,52.66-130.83Z"/><path class="cls-7" d="M2421.6,996.69,2465.73,1158a14.62,14.62,0,0,1-2.79,13.06c-10.35,12.75-25.09,39-54.82,47.39-5.77,1.63-12.9,2.07-18.66,2.09a12.59,12.59,0,0,1-12.43-10.19l-29.57-153Z"/><path class="cls-8" d="M2413.18,1010.17l-16.13,6.61-49.59,40.57,19,97,7.59,38.66C2419.22,1164.83,2435.77,1118.92,2413.18,1010.17Z"/><path class="cls-7" d="M2410.43,1069.84c0,53.94-32.49,96.44-72.64,94.92S2273,1132.87,2265,1064.32c-6.26-53.77,9.27-116.35,49.42-114.82S2410.39,1015.89,2410.43,1069.84Z"/><path class="cls-3" d="M2648.84,1254.17c58.4,13.19,69.25,131.8,88.24,256.9,2.19,14.39,13.4,136.26,13.4,136.26a37.3,37.3,0,0,1-21.22,33.51c-19.08,9.54-26.8,16.75-137.38,17.87-106.2,1.07-243.12-3.35-243.12-3.35s-1.21-39.52,9.68-58.83c16.38-29,184.3-70.73,199.93-73,2.24-31.27-15.42-144.43,8.94-221.15,16.75-52.77,34.76-80.42,57.33-87.64C2632.16,1252.36,2640.19,1252.22,2648.84,1254.17Z"/><path class="cls-4" d="M2408.81,1697.77c52.35.78,124.2,1.53,183.07.94,110.58-1.12,118.3-8.33,137.38-17.87,22.34-11.17,23.46-30.16,23.46-30.16s-11.29-129.67-13.41-144.08c-12.28-83.77-25.56-179.63-56.45-225.9,29,85.13,33.72,157,34.23,187.63.27,15.53-1.16,36.81-5.7,51.67-5,16.48-17.87,26.81-38,21.22-40.21-11.17-90.48,12.29-90.48,12.29s38-13.4,73.72-1.12,109.46,93.82,29,124C2661.09,1685.6,2513.7,1693.13,2408.81,1697.77Z"/><path class="cls-4" d="M2367.38,1640.26s14.89-25.32,45.42-25.32,28.29,49.89,23.83,66.27-22.34,17.13-22.34,17.13l-61.49-1.56Z"/><path class="cls-9" d="M1762.85,1699.1h513a25.71,25.71,0,0,0-25.71-25.71H1762.85Z"/><path class="cls-7" d="M2356.26,1636.23c-61.85-28.44-79.32-21.21-93.39-26.65-34.72-13.43-44.38-5.28-72.77,55.82-5.65,12.17,7.77,14.11,21.12,15.25s31.89-23.43,37.34-26,19.67-2.8,19.67-2.8-4.45-.38-12.27,12.4-16.42,17.28-6,18.17,13.33-16,32.3-10.7,15.08,23.42,63.47,21.86c45.88-1.48,80.17,3.11,81.85-25.89,1.6-27.52,5.81-41-19.81-48C2388,1614.28,2356.26,1636.23,2356.26,1636.23Z"/><path class="cls-10" d="M2357.09,1636.3c43.07-1.18,26,50.89,21.19,55s23.61,3.59,23.61,3.59,15.08-20.19,6-45.62-31.21-28.45-31.21-28.45l-19.8,8.77Z"/><path class="cls-6" d="M2400,1625.81c.35,6.63-10.18,12.56-23.51,13.25s-24.42-4.12-24.76-10.74,10.18-12.56,23.51-13.25S2399.61,1619.19,2400,1625.81Z"/><path class="cls-11" d="M2396.14,1623c.31,5.92-9.1,11.22-21,11.84s-21.82-3.68-22.12-9.6,9.09-11.21,21-11.83S2395.83,1617.1,2396.14,1623Z"/><path class="cls-12" d="M2388.41,1621.3c.22,4.26-6.55,8.08-15.12,8.52s-15.71-2.65-15.93-6.91,6.55-8.07,15.13-8.52S2388.19,1617,2388.41,1621.3Z"/><path class="cls-7" d="M2021.23,1640.21c31.8-17.66,70.66-11.77,84.79,5.89s16.49,29.44-15.31,29.44-95.39,2.36-106,1.18S2021.23,1640.21,2021.23,1640.21Z"/><path class="cls-7" d="M2062.55,1634.07c34.16-8.24,57.49,11.63,86,30.62,24.73,16.49,29.7,32.52,2.36,18.84-40-20-63.6-22.37-63.6-22.37Z"/><path class="cls-7" d="M2024.44,1649.54c-17.25,0-32.3-5.5-44.48-4.49s-50.73,40.59-44.64,43.63a14.43,14.43,0,0,0,1.42.61,20.78,20.78,0,0,0,24.64-8.65c5.46-8.75,14.34-18.94,24.67-15.3,17.25,6.09,35.34,5.51,35.34,5.51Z"/><path class="cls-13" d="M2027.12,1682.61c-17.67-7.07,10.6-65.95,20-65.95s44.75,28.27,44.75,28.27-8.31,4.68-36.51-4.72c-7.07-2.35-13,37.69-21.2,42.4S2027.12,1682.61,2027.12,1682.61Z"/><polygon class="cls-3" points="2367.82 1161.41 2376.1 1205.54 2351.91 1257.91 2325.62 1202.4 2367.82 1161.41"/><path class="cls-6" d="M2270.63,1094.82c10.16,64.06,33.88,70.83,50.67,76.68s79.62-20.55,86.31-38.09c17.13-44.89-10.51-78.68-4.91-79.13s13.54,14.33,31.64,32.06c1.69,1.65,13.33,12.53,13,8.25-3.89-58.32,22.56-81.55,4.82-138-13.09-41.61-39.49-33.24-39.49-33.24s-24-32.4-77.54-18.33c-35.85,9.43-65.65,29.58-101.35,46.15s61.82,86.42,104.7,46.4,31.51,32.78,40.16,36.66,3.82,0,13.8,34.36-30.23,65.39-42.41,70.73c-38.94,17.1-47,11.64-58.74-2C2281.13,1125.41,2270.63,1094.82,2270.63,1094.82Z"/><path class="cls-7" d="M2435.51,1043.94c-1.7,16.93-11.2,29.42-21.21,27.9s-12.71-14.53-15.05-33.42c-2.11-17,11.2-29.42,21.21-27.9S2437.21,1027,2435.51,1043.94Z"/><path class="cls-3" d="M2462.09,1144.66l43.87,40.87s-84.41,79.49-91.72,78.6-19.7-67.5-19.7-67.5Z"/><path class="cls-3" d="M2395.83,1195.64c-8.1,3.8-5.49,15.35-8.93,19.37s-5.48,5.1-8.25-.5-2.31-18.23-4.46-18.87-18.43,50.28-18.43,50.28,12-32.56,14.69-29,.56,6.86,10.47,7.45,22.5-3.58,22.5-3.58Z"/><path class="cls-14" d="M1762.24,1699.1h274l-116.37-256a20.92,20.92,0,0,0-19.05-12.27H1653a8.17,8.17,0,0,0-7.44,11.55Z"/><path class="cls-9" d="M1626.34,1430.83h252.91a20.94,20.94,0,0,1,19,12.27l116.36,256H1735.6l-116.69-256.72A8.17,8.17,0,0,1,1626.34,1430.83Z"/><path class="cls-15" d="M1758.18,1579.88c9.59,19.87,25.16,32.23,34.76,27.59s9.62-24.51,0-44.38-25.16-32.24-34.76-27.6S1748.59,1560,1758.18,1579.88Z"/><path class="cls-16" d="M779.14,1241.8c-4.26,0-8.46-.21-12.56-.42-3.41-.17-6.92-.35-10.32-.4a2.17,2.17,0,0,1,0-4.33c3.51,0,7.06.23,10.5.41,25.73,1.3,52.34,2.65,78.27-47.2,11.25-21.64,23.5-63.71,21-111.07-2.06-38.78-15.2-94-66.13-136.54a2.16,2.16,0,0,1,2.77-3.32c52.13,43.58,65.58,100,67.69,139.63,2.56,48.23-10,91.17-21.47,113.3C826,1235.85,801.67,1241.8,779.14,1241.8Z"/><path class="cls-16" d="M771.06,1231.58c-1,0-2,0-3-.07a2.17,2.17,0,0,1,.22-4.33c.93,0,1.86.07,2.79.07,26.85,0,51.65-19,68.4-52.61,27.54-55.24,30.21-145.86-19.08-205a2.16,2.16,0,1,1,3.32-2.77c50.47,60.56,47.78,153.25,19.63,209.71C825.8,1211.7,799.6,1231.58,771.06,1231.58Z"/><path class="cls-16" d="M674.76,955.6c77.69-60.31,150.66-28.34,176.8,53.28,24.41,76.24-6.88,240.06-122.78,211.51-119.91-29.53-129.9-66.24-129-119.59C600.52,1058.18,618.7,999.1,674.76,955.6Z"/><path class="cls-3" d="M634.38,1197.38l-111.06,41.44s31.08,225.57,33.75,311.72-40.85,160.88-40.85,160.88h290.4s40-234.59,32-317.19S775.54,1226.07,772.88,1224s-69.28-17.16-69.28-17.16Z"/><path class="cls-17" d="M829.71,1475.05s11.19,104.8,15.81,110.12,175.14,88.8,175.14,88.8l-247.78,16.89Z"/><path class="cls-17" d="M772.88,1224c27.53.6,35,45.61,41.48,79S772.88,1224,772.88,1224Z"/><path class="cls-5" d="M725.81,1402.23c-15.1-54.18-96.22-205-96.22-205l-106.27,41.63s24.36,176.79,31.8,277.12l40.37,195.48H725.81S740.9,1456.4,725.81,1402.23Z"/><polygon class="cls-17" points="575.83 1616.22 695.61 1588.73 685.84 1690.86 575.83 1616.22"/><path class="cls-17" d="M635.72,1644.68c-19.54-26.46-38.65-55.56-20-116.34s20.43-82.6,13.91-137.66-36.11-143-93.84-145.65c0,0-1.9,19.26-5,50,9.38,72.6,24.48,196.62,26.3,255.51,2.66,86.14-40.85,160.88-40.85,160.88l236.23,5.19S655.26,1671.13,635.72,1644.68Z"/><path class="cls-5" d="M838.59,1394.23c-8-82.59-63.05-168.16-65.71-170.22-1.65-1.28-27.71-7.53-47.39-12.12,5.79,13.64,66.8,159,64.26,218.94-2.66,62.87.08,280.59.08,280.59h16.79S846.59,1476.83,838.59,1394.23Z"/><path class="cls-18" d="M1426.4,1898.05c-3-1.45-5.57-2.57-8-4a18.85,18.85,0,0,1-6-5.33c-1.62-2.24-3.06-4.6-4.8-7.25-3.74,8.6-10,13.93-19.44,16.22,1.92.79,3.14,1.27,4.35,1.79a22,22,0,0,1,12.6,26.94,21.78,21.78,0,0,1-24.42,15.29c-11.33-1.54-18.37-11.43-18.76-20.62a22.13,22.13,0,0,1,13.73-21.69c1.11-.45,2.22-.86,3.7-1.43-2.87-1.27-5.43-2.25-7.85-3.5a18.75,18.75,0,0,1-6.2-5.09c-1.72-2.19-3.19-4.59-4.87-7-1.19.54-1.33,1.84-2,2.75-.77,1.1-1.47,2.26-2.31,3.3a22.92,22.92,0,0,1-2.49,2.63,24.53,24.53,0,0,1-2.84,2.24,22.15,22.15,0,0,1-3.12,1.83c-1.22.57-2.49,1-3.76,1.45s-2.28.75-3.88,1.27c1.55.49,2.69.83,3.81,1.22a21.94,21.94,0,1,1-13.5-.08c1-.33,2-.6,3.7-1.07-5-1.6-9.51-3-13.13-6.23a26.48,26.48,0,0,1-7.61-11.49c-1.59.26-1.49,1.42-1.86,2.19-3.47,7.37-9,12.19-17,14.19-7.65,1.91-14.35-.13-20.45-4.69a23.73,23.73,0,0,1-7.34-9.46c-.35-.8-.29-1.93-1.63-2.25-4.86,11.45-13.26,17.62-26,16.35-10.33-1-17.53-8.12-20.76-19.89-1.16.55-1.12,1.67-1.4,2.6a23.54,23.54,0,0,1-44,3.59c-.83-1.83-1.45-3.74-2.17-5.65-1.34.4-1.22,1.67-1.53,2.59a22.62,22.62,0,0,1-5.28,8.94c-6.76,6.9-15,9.08-24,6.06-9.36-3.13-14.89-10-15.74-20-.82-9.59,3.29-16.9,11.43-22,.91-.56,1.85-1.07,2.76-1.62.1-.06.13-.22.32-.57-.89-1.15-2.47-1.3-3.63-2.08s-2.57-1.47-3.77-2.33a23,23,0,0,1-3-2.63,34,34,0,0,1-2.84-3.39c-.87-1.18-1.62-2.45-2.58-3.94-.47.41-.94.64-1.16,1a26.39,26.39,0,0,1-15.79,12.35,5.37,5.37,0,0,0-.91.55c.8,1.19,2.17,1.35,3.28,1.83a22.51,22.51,0,0,1,10.87,9.81,22.85,22.85,0,0,1-2.48,25.67c-6.05,7.09-16.05,9.93-24.48,7a22.59,22.59,0,0,1-15.51-21,22.34,22.34,0,0,1,13.64-21.42c1.08-.48,2.16-1,3.7-1.71-4.3-1.86-8.31-3.27-11.54-6.16s-5.26-6.37-7.16-10c-1.13-.18-1.17.7-1.52,1.17a11.24,11.24,0,0,0-.77,1.41,23.86,23.86,0,0,1-17.06,12.33c-9.54,1.76-17.47-1.43-23.71-8.76a36.42,36.42,0,0,1-3.19-5.1c-.47-.79-.86-1.62-1.24-2.35-1.18,0-1.07.86-1.39,1.36s-.47,1-.71,1.44a23.29,23.29,0,0,1-9.59,10.06c-13.57,7.52-30.84.57-34.84-14.56-.31-1.16-.56-2.33-.85-3.53-1.32.32-1,1.43-1.24,2.26-1.76,7.39-6,12.89-12.91,16-8.44,3.8-16.62,3-24-2.64s-10.11-13.1-8.71-22.08a22.29,22.29,0,0,1,12.27-17l2.47-1.33c.11-.06.18-.2.27-.31-13-7.11-11.4-8-16.32-14.54-1.34,1-1.78,2.63-2.83,3.76s-2.08,2.48-3.26,3.56a25.36,25.36,0,0,1-3.85,2.9,29.87,29.87,0,0,1-4.32,2.13c-1.43.58-2.93,1-5.15,1.71,1.93.74,3.12,1.21,4.33,1.65a22,22,0,0,1,12.32,11,22.28,22.28,0,0,1-3.26,25.17,22.66,22.66,0,0,1-24.28,6.3,22.51,22.51,0,0,1-2-41.78c1.68-.75,3.44-1.34,5.4-2.09-.71-1.11-1.77-.92-2.54-1.24s-1.78-.6-2.66-1a24.57,24.57,0,0,1-2.56-1.17,21.71,21.71,0,0,1-2.39-1.49,30.37,30.37,0,0,1-2.51-2,25.46,25.46,0,0,1-3.75-4.19,26.69,26.69,0,0,1-1.45-2.42c-.45-.82-.84-1.68-1.25-2.53s-.75-1.58-1.32-2.8c-1.38,1.9-1.67,3.83-2.72,5.32a41.65,41.65,0,0,1-3.37,4.51,24,24,0,0,1-4.29,3.63,22.92,22.92,0,0,1-5,2.5,24,24,0,0,1-5.49,1.16,27.88,27.88,0,0,1-5.63,0,22.72,22.72,0,0,1-13.56-6.48c-3.73-3.54-5.69-8.06-7.2-13.37-.58,1.58-1,2.68-1.37,3.79a23,23,0,1,1-32.14-28.11c1-.48,1.9-1,2.84-1.49.09,0,.09-.23.24-.64-1.31-1-3-1.37-4.43-2.24a32.89,32.89,0,0,1-4-2.69,27.45,27.45,0,0,1-3.7-3.69,25.16,25.16,0,0,1-2.65-4c-.84-1.52-1.48-3.13-2.29-4.89-1.2,1-1.49,2.37-2,3.52a24.53,24.53,0,0,1-13.78,12.28c-10.24,3.95-21.41-1-26.66-8.12-5.76-7.83-6.56-16.25-2.45-25.09a11.39,11.39,0,0,1,.79-1.4c.22-.33.51-.62.92-1.11,4.25-.54,8.67-.17,13.07-.23s8.61,0,12.91,0h13.43c1.23,2.2,2.38,4.28,3.69,6.65l3.16-6.4c.95-.09,1.74-.23,2.53-.24h37.1c2.19,0,2.19,0,4.28,1.53,2.07-1.49,2.07-1.5,4.28-1.53,1.08,0,2.16,0,3.23,0H2212.67c2.22,0,2.22,0,4.28,1.52,2.19-1.45,2.19-1.51,3.93-1.51q19.56,0,39.11,0a11.84,11.84,0,0,1,1.42.2l2.76,4.44c1.08-1.65,2-3.09,2.95-4.55h39.7c2.69,2.85,3.24,6.63,4.19,10.1,1.06.24,1-.49,1.07-.92a23,23,0,0,1,3.76-9c3.13-.68,6.36-.25,9.56-.32s6.18,0,9.27,0h18.7c5.19,5.73,6.3,16.73,1.61,24.87a23.32,23.32,0,0,1-22.38,11.51c-10.52-1.15-17.32-7.62-20.94-19.92-1.1.18-1,1.13-1.11,1.85a23.25,23.25,0,0,1-7.83,13.29,22.4,22.4,0,0,1-7.24,4.29c-1.61.56-3.24,1.1-5.44,1.85,1.87.67,3.22,1.17,4.58,1.64a20.66,20.66,0,0,1,10.73,8.13c5.2,7.73,5.73,15.87,1.15,24-4.5,7.94-11.69,11.88-20.76,11.34-9.25-.56-15.89-5.42-19.49-14a22.25,22.25,0,0,1,13-29.35c1.36-.46,2.7-1,4.29-1.59-7.63-3.47-10-1.53-19.44-15.42-5.18,7.7-3.58,8.3-16.34,15.72.9.53,1.64,1,2.43,1.42a22.82,22.82,0,0,1,13,18.69c1.31,11.23-6.87,22.53-17.94,24.84a23.15,23.15,0,0,1-27.1-14.91c-.51-1.38-.94-2.78-1.58-4.67a23.64,23.64,0,0,0-1,2.47,25,25,0,0,1-5.86,10.89,24.06,24.06,0,0,1-38.71-5c-.67-1.25-1.31-2.52-2.21-4.24-2.13,4.4-4.15,8.3-7.47,11.34a29.76,29.76,0,0,1-11.48,6.13c-.13,1,.41,1.1.91,1.28a26.81,26.81,0,0,1,7.15,3.64,22.72,22.72,0,0,1-13.17,41,22.73,22.73,0,0,1-9.28-43.68c1.11-.46,2.22-.89,3.27-1.31.2-.81-.26-1-.79-1.18a27.4,27.4,0,0,1-8-3.7,25.07,25.07,0,0,1-6.69-6.89c-.5-.75-1.1-1.44-1.79-2.34-2.28,3.13-4.06,6.39-7,8.53-2.8,2-5.8,3.74-8.7,5.59,13.15,6.37,16.68,19.18,14.44,27.61-2.5,9.41-10.4,16.77-20.12,17.89a23.42,23.42,0,0,1-21.11-8.57,24,24,0,0,1-4.8-10.38c-1.67.49-1.38,1.64-1.65,2.45a24.12,24.12,0,0,1-44.5,4.37c-.54-1-1-2.11-1.56-3.14-1.81,2.81-3.42,5.59-5.31,8.16a18,18,0,0,1-7.19,5.73c-2.92,1.3-6,2.22-9.21,3.36.4.71,1.24.57,1.88.73a23.24,23.24,0,0,1,14.32,9.72,22.25,22.25,0,1,1-38.49,22.19,22.09,22.09,0,0,1,8.62-29.11c2.63-1.52,5.67-2.35,8.73-3.58a7.22,7.22,0,0,0-1.52-.66,25,25,0,0,1-18.33-13.74,10.58,10.58,0,0,0-1.16-1.41c-2.21,3.64-4.13,7.16-7.19,9.85a33.18,33.18,0,0,1-10.63,5.84c.44,1.31,1.56,1.49,2.45,1.87a21,21,0,0,1,7.82,5.57c6.14,7.14,7.87,15.22,4.24,24s-10.64,13.77-20.24,14.16-16.8-4.19-21.22-12.68c-6.43-12.34.24-25.86,10.68-30.69,1.08-.5,2.14-1,3.56-1.73-1.31-1.22-2.82-1.32-4-2s-2.44-1.15-3.56-1.86a29.83,29.83,0,0,1-3.54-2.67,27.23,27.23,0,0,1-2.76-2.92c-.93-1.12-1.76-2.33-2.81-3.73-1.58,1.16-2.08,2.93-3.22,4.15a51.55,51.55,0,0,1-3.66,3.73,29.39,29.39,0,0,1-3.93,2.79c-1.46.89-3,1.62-4.39,2.36,0,1.14.7,1.35,1.26,1.63,7.85,4,12.11,10.54,13,19.14a21.64,21.64,0,0,1-5.26,16.46c-6.34,7.46-14.53,10.18-23.92,7.67-9.21-2.46-14.93-8.74-16.83-18.18a23.06,23.06,0,0,1,11.17-24.36c1-.58,2.33-.72,3-2.22-1.85-1-3.78-1.89-5.53-3a31.5,31.5,0,0,1-4.7-3.76c-1.52-1.49-2.79-3.22-4.28-5a86.48,86.48,0,0,1-6.52,7,79.23,79.23,0,0,1-7.82,5.38c.73.57,1.38,1.16,2.11,1.63a23.25,23.25,0,0,1,10.23,13.51c2.68,9.49.13,17.64-7,24.13a23.4,23.4,0,0,1-37.47-8.7c-.58-1.45-1.11-2.93-1.75-4.62-1.22,1.19-1.29,2.6-1.77,3.8-3.6,9.22-10.28,14.58-20.11,15.79a23.83,23.83,0,0,1-23.53-12.4c-.69-1.29-1.31-2.63-2.13-4.29-.53.91-1,1.52-1.27,2.19-3.75,8.4-10.25,13.35-19.21,14.9-6.88,1.18-13-1-18.48-5.16a23,23,0,0,1-7.1-9.14c-.37-.84-.77-1.67-1.34-2.9a13.14,13.14,0,0,0-1.16,1.8,25.12,25.12,0,0,1-17.15,15.2c-.76.21-1.5.51-2.68.92,1.46.48,2.55.82,3.63,1.19a22,22,0,1,1-13.47-.1c1-.33,2-.61,3.29-1-3-1.13-5.72-2-8.33-3.24a18.72,18.72,0,0,1-6.62-5.19c-1.83-2.26-3.43-4.72-5.15-7.12-7.33,11.41-9,11.35-18.54,15.58,1.51.66,2.85,1.22,4.17,1.83a22.18,22.18,0,1,1-18.71,0c1.3-.61,2.63-1.19,4.15-1.87-8.92-4.09-11-3.69-18.67-15.93-5.48,9-5.87,10.27-18,16,1.24.6,2.28,1.13,3.34,1.63a21.81,21.81,0,0,1,12.09,13.81,22.32,22.32,0,1,1-32.25-13c1.52-.82,3.11-1.5,5.07-2.44-1.85-1.16-3.67-1.51-5.2-2.4a39.45,39.45,0,0,1-5.06-3.28,27.69,27.69,0,0,1-3.9-4c-1.16-1.44-2.11-3.06-3.06-4.46-.92-.28-1.17.3-1.41.73a26.59,26.59,0,0,1-14.68,12.54c-.48.18-.94.43-1.81.84,1.36.69,2.38,1.25,3.43,1.75a21.79,21.79,0,0,1,10.65,10.58,22.38,22.38,0,1,1-30.46-10.26c1.27-.66,2.81-.88,4-2.22-3.87-1.63-7.53-3.23-10.59-6s-4.81-6-7.13-9.48c-2.14,3.68-4.12,7-7.07,9.61a33.31,33.31,0,0,1-10.19,5.67c.42,1.61,1.91,1.51,2.87,2a21.84,21.84,0,0,1,11.17,11.66,22.46,22.46,0,0,1-16.11,30.59c-11.76,2.45-26.3-5.39-26.85-21.33-.32-9.06,3.92-16,12-20.42,1.27-.7,2.62-1.25,4.29-2a68.6,68.6,0,0,1-7.34-3.71,28.8,28.8,0,0,1-5.75-5,68.94,68.94,0,0,1-4.73-6.78c-1.32.94-1.55,2.63-2.47,3.82s-1.89,2.63-3,3.79a25.46,25.46,0,0,1-3.63,3.17,32.61,32.61,0,0,1-4.14,2.48c-1.39.72-2.86,1.28-4.73,2.11l3.56,1.76c7.44,3.69,11.7,9.65,12.67,17.9a22.41,22.41,0,0,1-17.06,24.08c-12.67,3-26.52-5.37-27.45-20.51-.56-9,3.4-16.12,11.33-20.77,1.37-.8,2.85-1.43,4.3-2.15-.14-1.15-1.15-1-1.74-1.35-.81-.47-1.72-.75-2.57-1.15a19.74,19.74,0,0,1-4.14-2.49c-.74-.58-1.45-1.19-2.15-1.82s-1.16-1.12-1.7-1.72a21.13,21.13,0,0,1-1.53-1.87c-.54-.77-1-1.59-1.51-2.38s-.88-1.32-1.46-2.19c-1.43,1-1.91,2.61-2.84,3.82a31.86,31.86,0,0,1-2.84,3.39,28.74,28.74,0,0,1-3.71,3.08,25.5,25.5,0,0,1-3.83,2.2c-1.44.7-3,1.24-4.46,1.85.25,1.28,1.36,1.16,2.14,1.49a21.79,21.79,0,0,1,11.3,9.88c4.06,7.61,4,15.25-.53,22.61s-11.42,10.88-20,10.43a22,22,0,0,1-20.59-26.64A21.48,21.48,0,0,1,1422,1900C1423.29,1899.37,1424.65,1898.83,1426.4,1898.05ZM2203,1755.11c5.34,5,7.8,3.39,13.56,18.49.64-1.79,1.14-3.43,1.81-5a27,27,0,0,1,2.25-4.25,26.16,26.16,0,0,1,3.32-4,35.54,35.54,0,0,1,3.8-3c1.33-1,3.19-1.22,4.31-2.59-3-1.94-6-3.46-8.52-5.61s-4.43-4.89-6.78-7.56c-1.23,1.81-2.29,3.65-3.63,5.25a34.24,34.24,0,0,1-4.56,4.53C2206.94,1752.71,2205.05,1753.76,2203,1755.11Zm-1382.16-.32c4.55,1.81,8.06,3.89,10.9,7s4.36,7.22,5.75,11.34c.22-.27.34-.36.38-.48.19-.5.37-1,.52-1.52a23.51,23.51,0,0,1,11.84-15,4.89,4.89,0,0,0,1-1c-2.76-2-5.56-3.64-7.86-5.82s-4.22-5-6.32-7.55C830.19,1750.21,830.19,1750.21,820.87,1754.79ZM980,1822.6c3.48-10.09,2.59-10.71,13.41-19.52a78.11,78.11,0,0,1-7.71-5.59,76.93,76.93,0,0,1-6.13-7c-2.32,2.43-4.32,5-6.81,7s-5.6,3.48-8.53,5.24a56.18,56.18,0,0,1,5.6,3.31,24.27,24.27,0,0,1,4.67,4.38,28.07,28.07,0,0,1,3.48,5.85A55.75,55.75,0,0,1,980,1822.6Zm190,16.34c-1.2,1.45-2.17,2.73-3.26,3.89a26.22,26.22,0,0,1-3.24,3c-1.27,1-2.7,1.72-4,2.63s-3,1-4.24,2.47c1.06.6,1.89,1,2.64,1.51a55.75,55.75,0,0,1,5.45,4,21.23,21.23,0,0,1,5.72,9.08c.36,1,.25,2.45,1.66,3a7.64,7.64,0,0,0,.5-1.11,24.15,24.15,0,0,1,12-15.44c.38-.21.61-.7.93-1.09a79,79,0,0,1-7.47-5.06A89.71,89.71,0,0,1,1170,1838.94Zm903.5-18.23c5.81-14.19,8.45-13.3,15.25-18a69.84,69.84,0,0,1-7.82-4.83A81.65,81.65,0,0,1,2074,1791c-1.26,1.61-2.36,3.27-3.71,4.7a42.29,42.29,0,0,1-4.77,4.3c-1.55,1.2-3.28,2.16-5,3.27C2066.35,1808.1,2068.85,1808.2,2073.5,1820.71Zm-842.65,30.66a84.09,84.09,0,0,1-7.28-5.14,83.06,83.06,0,0,1-5.94-6.23,83.2,83.2,0,0,1-6.11,6.08c-2.26,1.83-4.83,3.25-7.43,5a9.37,9.37,0,0,0,1.22,1.08,23.51,23.51,0,0,1,11.83,15.48,7.59,7.59,0,0,0,1,1.66c.69-2.06,1.18-3.88,1.92-5.59a23.71,23.71,0,0,1,2.51-4.55,28.37,28.37,0,0,1,3.73-4.17C1227.63,1853.7,1229.18,1852.66,1230.85,1851.37Zm605.1-10.94a7.13,7.13,0,0,0-1.16,1,30.89,30.89,0,0,1-10.62,9.08c-.38.2-.59.72-.87,1.09,7.53,5.87,8.39,7,11.79,16a16.63,16.63,0,0,0,.81,1.56,31.28,31.28,0,0,1,4.74-10.57c2.26-3.06,5.41-5.1,8.58-7.41a85.19,85.19,0,0,1-7.18-4.77A84,84,0,0,1,1836,1840.43Zm-951-70c3.24-6.36,2.34-7,11-14.79-1.51-1.13-3.06-2.16-4.48-3.35s-2.5-2.42-3.77-3.62-2-3.11-3.57-4.26c-.54.6-.91,1-1.23,1.39a28.73,28.73,0,0,1-9.8,8.19c-.53.27-1.31.44-1.18,1.33C878.2,1759.88,879.36,1759.55,885,1770.47Zm380,95.47c.61-.65,1-.88,1.11-1.21a25.53,25.53,0,0,1,9.5-12.12,4.61,4.61,0,0,0,.84-1.16c-2.17-1.53-4.23-2.77-6.06-4.31s-3.58-3.47-5.13-5c-1.38,1.21-2.56,2.3-3.79,3.31s-2.71,2.18-4.12,3.19c-1.26.9-2.6,1.68-4,2.55,2.45,2.22,4.81,4.16,6.93,6.33S1263.76,1862.58,1265,1865.94Zm-238-72.35c-1.33,1.33-2.49,2.6-3.77,3.74s-2.49,2-3.76,3-3.05,1.5-4.47,2.91c1.52,1.1,2.85,2,4.06,3a24.54,24.54,0,0,1,3.17,3,31.82,31.82,0,0,1,2.8,3.9c.81,1.3,1.46,2.7,2.32,4.33a76.2,76.2,0,0,1,4.81-7.71,74.44,74.44,0,0,1,6.3-6.25c-2-1.43-4.12-2.77-6-4.39S1028.91,1795.53,1027,1793.59ZM2181.46,1755a31.39,31.39,0,0,1-11.78-9.84c-1.31,1.59-2.35,3-3.51,4.21a40.63,40.63,0,0,1-3.48,3.34c-1.3,1.11-2.71,2.1-4.08,3.15a75,75,0,0,1,5.83,6.33,72.36,72.36,0,0,1,4.25,7.24C2175.26,1757.94,2176.11,1759.5,2181.46,1755Zm-392.83,87.28c-1.9,1.82-3.54,3.59-5.39,5.12s-3.82,2.79-5.77,4.19a77.81,77.81,0,0,1,6.32,6.46,67.7,67.7,0,0,1,4.43,7.26c1.72-2.72,3.12-5.51,5.07-7.84s4.39-4.14,6.67-6.23c-2.17-1.45-4.27-2.65-6.15-4.13S1790.31,1843.89,1788.63,1842.3Zm227-38.65c1.57,1.42,3.05,2.57,4.29,3.92a37.4,37.4,0,0,1,3.66,4.74c1,1.49,1.72,3.15,2.71,5,.84-1.67,1.41-3,2.17-4.27a29.82,29.82,0,0,1,2.8-3.9c1-1.11,2.14-2,3.16-3.06s2.83-1.38,3.5-2.86c-.37-.4-.51-.66-.72-.77a30.81,30.81,0,0,1-9.44-7.33,5.56,5.56,0,0,0-1.37-.81A37,37,0,0,1,2015.59,1803.65ZM1312.92,1866c1-2.14,1.72-3.87,2.69-5.43a35.85,35.85,0,0,1,3.61-4.8c1.21-1.38,2.66-2.55,4.15-4-2-1.5-3.93-2.74-5.64-4.2s-3.4-3.28-5.15-5c-1.82,1.71-3.38,3.37-5.13,4.79s-3.83,2.77-5.79,4.17C1310.26,1859.23,1308.6,1858.31,1312.92,1866Zm438.84-14.31c-2-1.45-4-2.65-5.69-4.07s-3.46-3.19-5.27-4.89c-1.8,1.8-3.32,3.5-5,5s-3.54,2.69-5.37,4.06a73,73,0,0,1,5.95,6.28,80.12,80.12,0,0,1,4.58,7.67c1-2,1.76-3.82,2.8-5.5a28.84,28.84,0,0,1,3.46-4.41C1748.55,1854.38,1750.11,1853.16,1751.76,1851.68Zm-687.56-48.23a71.88,71.88,0,0,1,5.87,5.63,81.28,81.28,0,0,1,4.86,7.07c1.36-2.23,2.44-4.37,3.85-6.25s3.34-3.78,5.18-5.83c-1.71-1.35-3.42-2.6-5-4s-3-3-4.67-4.59c-1.71,1.54-3.22,3-4.87,4.33S1066,1802.23,1064.2,1803.45Zm914.86-7.41-9.18,8.1c1.25,1.26,2.44,2.33,3.48,3.53s1.94,2.57,2.93,3.85,1.11,3,2.9,4.23c2.06-5,5.55-8.64,9.55-11.87ZM1398,1852a29,29,0,0,1,9.73,12.29c1.48-2.39,2.6-4.53,4-6.42s3.34-3.75,5.19-5.79c-1.68-1.31-3.19-2.59-4.8-3.72s-2.77-3.21-4.75-4.15c-1.56,1.42-2.89,2.73-4.33,3.92S1399.91,1850.56,1398,1852Zm-37.61-8.11c-1.83,1.62-3.28,3-4.84,4.27s-3.14,2.36-4.58,3.42c1.81,2,3.56,3.62,5,5.5s2.85,4.15,4.41,6.47c1.39-2.13,2.54-4.23,4-6.08s3.46-3.69,5.39-5.72c-1.68-1.26-3.31-2.39-4.83-3.65S1362,1845.45,1360.34,1843.93Zm333.15.42-9.2,7.69c1.66,1.75,3.43,3.38,4.9,5.24s2.66,4,4.16,6.27c1.29-1.39,1.73-3.16,2.82-4.46s2.06-2.47,3.07-3.71,2.83-2,3.57-3.59C1699.66,1849.27,1696.66,1846.87,1693.49,1844.35Zm-47.9,19.8c1.56-2.46,2.9-4.6,4.26-6.72s3.73-3.34,5.07-5.63c-1.65-1.24-3.19-2.31-4.62-3.49s-3-2.61-4.49-4c-1.54,1.46-2.94,2.7-4.26,4s-3.39,2.07-4.7,3.93A31.45,31.45,0,0,1,1645.59,1864.15Zm-142.69-.83c1.3-2,2.38-4,3.75-5.81s3.2-3.54,5-5.5c-1.62-1.27-3.11-2.36-4.51-3.55s-2.77-2.51-4.25-3.86c-1.47,1.34-2.82,2.63-4.24,3.83s-2.9,2.29-4.54,3.57c1.68,1.84,3.33,3.4,4.7,5.17S1501.47,1861.15,1502.9,1863.32Zm56.63-11.27-8.94-7.33c-1.56,1.42-3,2.62-4.3,4s-3.25,1.78-4.19,3.49c1.7,1.86,3.34,3.43,4.72,5.21s2.48,3.75,3.89,5.93c1.34-2,2.43-4,3.8-5.76S1557.72,1854,1559.53,1852.05Zm-95.66.08-8.43-6.91-8.59,7c1.19,1.19,2.26,2.17,3.22,3.25s1.88,2.26,2.78,3.43,1.27,2.59,2.72,3.59A38.1,38.1,0,0,1,1463.87,1852.13Zm-541-96.26c1.27,1.1,2.51,2.08,3.63,3.18s1.94,2.2,3,3.26,1.46,2.79,2.78,3.68l7.62-9.76c-1.28-1.11-2.59-2.41-4.06-3.5s-2.33-3.27-4.29-3.87Zm675.28,106.89,4-5.76c1.27-1.82,3.34-3,4.52-5.08-1.54-1.16-2.88-2.24-4.3-3.22s-2.4-2.84-4.18-3.42l-8.28,6.83C1593,1855.21,1596,1858.22,1598.12,1862.76Zm523.61-97c2-4.06,5-6.88,8.28-9.78-1.55-1.19-2.88-2.28-4.28-3.27s-2.28-2.6-4.07-3.32c-2.26,2.77-5.19,4.66-7.34,7.08C2116.75,1759.56,2119,1762.37,2121.73,1765.79Zm-999.09,47.79,7-9.19-7.47-6.49-7.49,6.1Zm809.19-15.26-6.94,6,6.55,8.34c1.23-1.61,2.32-3.08,3.46-4.52s3-2.51,3.93-4.31ZM979.59,1764c1.62-2.19,3.17-4.31,4.83-6.55-2.16-1.87-3.79-4.13-6.36-5.52-1.63,1.74-3.86,2.58-5,4.54Zm910.18,40.46a23.17,23.17,0,0,0-5.5-4.46c-1.06.93-2,1.67-2.84,2.52s-2.15,1.18-2.25,2.66c1.19,1.57,2.37,3.17,3.61,4.72a11.06,11.06,0,0,0,1.41,1.27ZM2075,1752.13c-2,1.82-4,3.26-5.42,5.41.84,1.09,1.59,2,2.31,3s1.37,1.87,2.22,3c1.13-1.36,2.09-2.45,3-3.6s2.38-2.06,3.18-3.67Zm-910.55,52.35,5.7,6.64a55.36,55.36,0,0,0,4.85-6.18c-2-1.59-3.44-3.5-5.77-4.41Zm53.76-3.52c-1.88,1.47-3.56,2.49-4.8,4.41,1.54,1.47,2.51,3.34,4.32,4.85,1.5-2,3.28-3.58,4.34-5.94Zm617.55,8.74a17.47,17.47,0,0,0,4.2-4.87,16.15,16.15,0,0,0-4.45-3.62,9.92,9.92,0,0,0-3.92,3.42Zm-570.82-1.39a16.24,16.24,0,0,0,3.81-4.76l-1.7-1-1.75-1-3.45,3.08Zm44.75-4.18a7.15,7.15,0,0,0,3.1,3.15,13.66,13.66,0,0,0,3.17-3.88l-2.87-2.31A10,10,0,0,0,1309.69,1804.13Zm-282-49.76-3.64,3.15,2.76,3.11a8.87,8.87,0,0,0,3.49-4.21Zm760.39,47c-1,.85-1.71,1.42-2.37,2-.16.16-.15.49-.29,1,1,.92,1.64,2.41,3.11,3.25a6.27,6.27,0,0,0,2.84-3.51Zm-44.4,2.79a5.86,5.86,0,0,0-3-2.91,4.43,4.43,0,0,0-2.86,2.71c.94,1.08,1.88,2.15,2.78,3.16C1742.26,1806.61,1742.79,1805.33,1743.71,1804.13Zm285.62-46.78-3.13-2.7a2.45,2.45,0,0,0-2.4,2.14c.92,1,1.48,2.38,3,3.1Zm-956.84-.43,1.89,2,3-3.57-1.58-1.37C1074.22,1754.71,1073.13,1755.39,1072.49,1756.92Zm336,43.92c-1.67,1.09-2.89,1.48-3,3.12l1.94,1.71a4,4,0,0,0,2.53-3.28Zm-48.4,5.2c1.39-.75,2.28-1.45,2.52-2.91l-2.17-1.71-2.42,2.24Zm288.12-2.83-2.38-2.12c-1,.56-2,1-2,2.57l2.19,2Zm47.27.59c-2.17-2.7-2.34-2.71-4.16-.27l2.22,2.36Zm283.63-45.25c1.88-2.11,1.89-2.55.38-3.77-1-.84-1.36-.72-2.79,1.11Zm-476,42.61c-1.21.47-2.11,1-2.09,2.48l2,1.76,2.11-2.3Zm45.45,2,2,2.06c2.22-1.57,2.49-2,1.75-2.94C1551.23,1801,1550.57,1801.11,1548.53,1803.15Zm-93-1.88c-.65.85-1.31,1.36-1.39,2-.06.4.65,1,1.15,1.32s1.76-.62,1.62-1.25S1456.11,1802.15,1455.48,1801.27Zm143.17,3.29a5.32,5.32,0,0,0,1-1.59c.15-.63-1.07-1.52-1.64-1.21a2.42,2.42,0,0,0-1.13,1.37C1596.67,1803.85,1597.58,1804.65,1598.65,1804.56Zm-475.4-50.24a2.14,2.14,0,0,0-.55.1c-.58.33-1.08.72-.83,1.5a.38.38,0,0,0,.28.21c.79,0,1.13-.47,1.26-1.17C1123.43,1754.85,1123.35,1754.72,1123.25,1754.32Zm-334.4,22.89c0-10.94-7.5-21.73-22.15-22.52-11.9-.64-22.27,10.18-22.32,22.33a22.24,22.24,0,1,0,44.47.19Zm284.64,96a22.12,22.12,0,1,0-22.26,21.8A22.11,22.11,0,0,0,1073.49,1873.23ZM2192,1803a22,22,0,0,0-.08,44,22,22,0,1,0,.08-44Zm-1330.44.2A21.8,21.8,0,1,0,883.3,1825,21.73,21.73,0,0,0,861.59,1803.19Zm903,95a21.76,21.76,0,1,0,21.66,21.84A21.75,21.75,0,0,0,1764.63,1898.18Zm284.9-47a21.75,21.75,0,1,0,21.48,22A21.55,21.55,0,0,0,2049.53,1851.14Zm-782.13,69a21.67,21.67,0,1,0,21.6-21.87C1278.13,1898.32,1267.33,1906.65,1267.4,1920.11Zm-262.83-68.83a21.61,21.61,0,1,0-.3,43.22c12,0,21.34-9.2,21.69-21.46C1025.8,1861,1016.79,1851.46,1004.57,1851.28Zm1308.78-74.15a21.53,21.53,0,1,0,43.06,0c0-11.8-8.83-21.22-21.51-21.57C2322.8,1755.88,2313.37,1764.81,2313.35,1777.13Zm-480.37,143a21.39,21.39,0,1,0-21.4,21.19A21.24,21.24,0,0,0,1833,1920.12Zm-569.59.1a21.32,21.32,0,1,0-21.52,21A21.31,21.31,0,0,0,1263.39,1920.22ZM718.59,1756a21.21,21.21,0,1,0,21.35,21A21,21,0,0,0,718.59,1756Zm1521.49,47.89a21.15,21.15,0,1,0,21.15,21.34A21.07,21.07,0,0,0,2240.08,1803.84ZM703.53,1747.23a23,23,0,0,0,30.79-.31c8.63-7.91,9.67-21.67,3-29.87-3.05-.43-31.6-.55-37.13-.15A22.64,22.64,0,0,0,703.53,1747.23Zm1177.06,173a21.05,21.05,0,0,0-21.16-21.29,21.06,21.06,0,0,0-.09,42.11A21.13,21.13,0,0,0,1880.59,1920.18Zm216.86-68.33a21,21,0,1,0,20.81,21.21A21.11,21.11,0,0,0,2097.45,1851.85ZM1194.27,1941a21,21,0,1,0-.15-42,21,21,0,0,0,.15,42ZM835.54,1825a21,21,0,0,0-42,0,21,21,0,0,0,42,0Zm120.86,68.84a20.92,20.92,0,1,0-20.85-21.1A20.93,20.93,0,0,0,956.4,1893.82Zm950.72,5.46c-12.22.17-20.35,9.65-20.49,20.57a20.71,20.71,0,0,0,20.72,20.79c11.25-.1,20.46-8.72,20.72-20.82C1927.66,1907.74,1918.6,1899.13,1907.12,1899.28Zm-759.76.08a20.37,20.37,0,0,0-20.84,20.55,20.62,20.62,0,0,0,41.24,0C1167.72,1910.25,1160.67,1899.58,1147.36,1899.36Zm1255.21-121.42a20.59,20.59,0,0,0-20-21.38,20.58,20.58,0,0,0-1.21,41.15C2393.9,1798.14,2402.29,1787.64,2402.57,1777.94Zm-35.82-31.71a22.14,22.14,0,0,0,30.08.32,21.87,21.87,0,0,0,2.84-29.52c-3.33-.45-32-.45-35.38,0C2358.44,1723.4,2357.14,1737.2,2366.75,1746.23ZM2144.28,1852.5a20.39,20.39,0,1,0,20.31,20.53A20.28,20.28,0,0,0,2144.28,1852.5ZM656.59,1746.08a22,22,0,0,0,30.59-.36c8.46-8.2,8.34-22.06,1.66-28.9H654.49C647.4,1725.3,648.39,1738.38,656.59,1746.08Zm1650.86,78.69a20.4,20.4,0,0,0-40.79.24,20.26,20.26,0,0,0,20.49,20.31C2298.39,1845.47,2307.54,1835.88,2307.45,1824.77ZM671.76,1756.83a20.38,20.38,0,0,0-20.36,20.46,20.61,20.61,0,0,0,20.26,20.22c10.85,0,20.67-9.31,20.36-20.52C692.19,1766.32,683.05,1756.87,671.76,1756.83Zm237.64,95.8a20.27,20.27,0,1,0,20.24,20.25A20.17,20.17,0,0,0,909.4,1852.63Zm1045,47.17a20.14,20.14,0,0,0-20.28,19.79,20.38,20.38,0,0,0,20,20.57,20.16,20.16,0,0,0,20.39-20.07A19.93,19.93,0,0,0,1954.42,1899.8Zm-855.21,40.28a20.12,20.12,0,1,0-20.06-20.4A20,20,0,0,0,1099.21,1940.08Zm-312.42-115a20.17,20.17,0,1,0-20.36,20.07A20.13,20.13,0,0,0,786.79,1825.08Zm1624.12-85.42c4.07,7.65,10.62,11.77,19.24,11.59,16.64-.35,25.91-17.79,18-31.87a4.81,4.81,0,0,0-4.82-2.73c-9.25.12-18.5,0-27.74.06-.67,0-1.33.06-2.17.1C2408.28,1722.45,2407,1732.28,2410.91,1739.66Zm-408.79,160.6a19.67,19.67,0,1,0,19.85,19.52A19.48,19.48,0,0,0,2002.12,1900.26Zm190.08-47a19.65,19.65,0,1,0,19.46,19.54A19.66,19.66,0,0,0,2192.2,1853.24ZM2410.28,1777a19.9,19.9,0,0,0,19.33,19.73c9.83.12,19.88-8.12,19.73-19.7a19.53,19.53,0,0,0-39.06,0ZM609.09,1744.94a20.82,20.82,0,0,0,30.68-28.09H607.89A20.33,20.33,0,0,0,609.09,1744.94Zm422.77,174.74a19.53,19.53,0,1,0,19.67-19.23A19.54,19.54,0,0,0,1031.86,1919.68ZM861.65,1853.4a19.49,19.49,0,0,0-.25,39c11,0,19.75-9,19.54-19.37A19.31,19.31,0,0,0,861.65,1853.4Zm1492.69-28.34a19.48,19.48,0,1,0-19.52,19.38A19.39,19.39,0,0,0,2354.34,1825.06Zm-760.16,142.82a19.43,19.43,0,1,0-38.86-.19,19.43,19.43,0,0,0,38.86.19Zm-47.92.08a19.45,19.45,0,1,0-38.9-.35,19.45,19.45,0,0,0,38.9.35Zm94.92-.4a19.42,19.42,0,0,0-38.83.25,19.42,19.42,0,1,0,38.83-.25Zm-142.81.19a19.48,19.48,0,0,0-19.54-19.39,19.28,19.28,0,0,0-19.21,19.25,19,19,0,0,0,19.26,19.51A19.24,19.24,0,0,0,1498.37,1967.75Zm-874.2-209.94a19.36,19.36,0,1,0,19,19.49A19.3,19.3,0,0,0,624.17,1757.81ZM1432,1948.41a19.47,19.47,0,0,0-19.46,19.45,19.19,19.19,0,0,0,19.6,19.2,19,19,0,0,0,19-19.35A19.27,19.27,0,0,0,1432,1948.41Zm-713-142.7a19.29,19.29,0,1,0,19,19.45A19.26,19.26,0,0,0,719,1805.71Zm950.64,142.75a19.29,19.29,0,1,0,19.25,19.25A19.33,19.33,0,0,0,1669.63,1948.46Zm-266.41,19.48a19.24,19.24,0,1,0-19.36,19A19.13,19.13,0,0,0,1403.22,1967.94Zm645.89-67.18a19.18,19.18,0,1,0,19.34,19.09A19.35,19.35,0,0,0,2049.11,1900.76Zm-332.22,47.94a19.08,19.08,0,1,0,18.79,19.22A19.19,19.19,0,0,0,1716.89,1948.7Zm-693.63-28.61c.07-11.5-8.78-19-18.76-19.16a19,19,0,1,0-.33,38A18.7,18.7,0,0,0,1023.26,1920.09Zm313.77,28.7a18.83,18.83,0,0,0-19,19c0,11.35,8.77,18.92,18.89,19a19,19,0,1,0,.09-38ZM2457.61,1735.9c2.54,7.83,8,12.7,16.09,13.95,8.45,1.31,15.43-1.7,20.05-9,4.51-7.08,4.28-14.42.06-21.68a4.64,4.64,0,0,0-4.56-2.55c-8.44.11-16.88,0-25.33,0-.66,0-1.32.08-2.27.14C2457.08,1722.71,2455.35,1728.94,2457.61,1735.9Zm-692.71,213a19,19,0,0,0-19.17,18.72,18.8,18.8,0,1,0,37.59.3C1783.59,1957,1774.11,1949.07,1764.9,1948.92Zm-1207.63-215a19.91,19.91,0,0,0,35.91,7.43c4.68-7.2,4.68-14.59.4-22a5,5,0,0,0-4.91-2.68c-8,.13-16.1,0-24.15.06-.8,0-1.6.08-2.68.13C557.69,1722,556,1727.56,557.27,1733.93ZM2240,1854.09a18.8,18.8,0,1,0,18.79,18.64A18.76,18.76,0,0,0,2240,1854.09Zm-969.65,113.52a18.7,18.7,0,1,0,18.79-18.57A18.64,18.64,0,0,0,1270.38,1967.61ZM814.53,1854.29A18.6,18.6,0,1,0,833.15,1873C833.5,1863.52,825.48,1854.26,814.53,1854.29ZM1793,1967.56a18.52,18.52,0,1,0,18.68-18.36A18.62,18.62,0,0,0,1793,1967.56Zm-532.49.07a18.49,18.49,0,1,0-18.31,18.6A18.45,18.45,0,0,0,1260.53,1967.63ZM2476.7,1758.71a18.45,18.45,0,1,0,18.6,18.27A18.54,18.54,0,0,0,2476.7,1758.71Zm-94.89,47.8a18.46,18.46,0,1,0,18.58,18.35A18.51,18.51,0,0,0,2381.81,1806.51Zm-284.68,95a18.49,18.49,0,0,0,.1,37,18.49,18.49,0,0,0-.1-37Zm-1140.52.17A18.09,18.09,0,0,0,938.16,1920a18.32,18.32,0,1,0,36.63-.09A18.18,18.18,0,0,0,956.61,1901.64ZM595,1777.36a18.23,18.23,0,0,0-36.46-.68,18.23,18.23,0,1,0,36.46.68Zm76.93,29.39a18.25,18.25,0,1,0,18,18.37A18.3,18.3,0,0,0,671.92,1806.75Zm1169.38,161a18.16,18.16,0,1,0,18.35-18.09A18.26,18.26,0,0,0,1841.3,1967.72Zm-629.06.39a18.06,18.06,0,1,0-18.17,17.78A18.13,18.13,0,0,0,1212.24,1968.11Zm1325.59-251.26c-8.31,0-16.63-.08-24.94-.16a3.54,3.54,0,0,0-3,1.65c-4.26,5.71-5.28,12-2.75,18.62a18.41,18.41,0,0,0,17.44,12.06c8.08-.17,14-3.93,17.56-11.3,2.9-6,2-15.51-3.9-20.74A1.07,1.07,0,0,0,2537.83,1716.85Zm-250.66,138.09a18,18,0,1,0-.08,35.9c10.18,0,18.11-8.46,17.88-17.92A17.81,17.81,0,0,0,2287.17,1854.94ZM523.52,1748a18.73,18.73,0,0,0,20.56-28.92,5.12,5.12,0,0,0-4.67-2.43c-7.11.12-14.22,0-21.33,0-.79,0-1.59.11-2.35.17C506.43,1725.86,509,1743.51,523.52,1748ZM2162,1920a17.72,17.72,0,1,0-17.71,17.7A17.83,17.83,0,0,0,2162,1920Zm-254.47,30.11a17.66,17.66,0,1,0-.3,35.32,17.66,17.66,0,1,0,.3-35.32ZM784.31,1873.07a17.67,17.67,0,1,0-17.77,17.49A17.55,17.55,0,0,0,784.31,1873.07Zm124.91,29.28a17.61,17.61,0,1,0,17.7,17.49A17.51,17.51,0,0,0,909.22,1902.35Zm255.5,65.42a17.57,17.57,0,1,0-17.65,17.63A17.65,17.65,0,0,0,1164.72,1967.77ZM2412.4,1824.54a17.43,17.43,0,1,0,34.86.71c.24-10.27-7.88-17.38-17.08-17.76A17.46,17.46,0,0,0,2412.4,1824.54ZM2542,1777.28a17.23,17.23,0,0,0-17.28-17.44c-8.71.11-17,6.4-17.15,17.13a17,17,0,0,0,17.24,17.43A17.27,17.27,0,0,0,2542,1777.28Zm-604.8,190.48a17.19,17.19,0,1,0,17.24-17.12A17.24,17.24,0,0,0,1937.18,1967.76Zm-820.86,0a17.08,17.08,0,0,0-16.79-17.08,17.33,17.33,0,0,0-17.38,16.93,17.08,17.08,0,0,0,17,17.21A16.87,16.87,0,0,0,1116.32,1967.77Zm-475.43-143a17.09,17.09,0,0,0-34.18.2,17.09,17.09,0,1,0,34.18-.2Zm1931.92-108.09c-3.36,0-6.72,0-10.08,0a3.83,3.83,0,0,0-3.18,1.38c-4.19,4.79-5.77,10.28-4.08,16.45,2.36,8.7,9.72,13.82,18.78,13.09A16.49,16.49,0,0,0,2589,1736.8c2.68-6.62,1.59-12.89-3.06-18.46a4.51,4.51,0,0,0-3.88-1.66c-3.09.08-6.18,0-9.26,0Zm-238,139.19a17,17,0,1,0,.14,34,17,17,0,0,0-.14-34Zm-159.65,63.74a16.92,16.92,0,1,0,17.11-16.61A16.9,16.9,0,0,0,2175.18,1919.64ZM529,1794.11A17.05,17.05,0,0,0,545.82,1777a16.86,16.86,0,0,0-17.05-16.78,16.67,16.67,0,0,0-16.71,17A16.85,16.85,0,0,0,529,1794.11Zm-31.36-56.67c3.09-6.71,2-13-2.58-18.81a4.76,4.76,0,0,0-4.14-2c-5.9.09-11.8.15-17.69,0a5.63,5.63,0,0,0-5.1,2.54c-4.22,5.64-5.08,11.82-2.17,18.19,3,6.56,8.44,9.81,15.61,10.22C488.94,1747.32,494.56,1744.19,497.67,1737.44Zm347.07,182.35a16.79,16.79,0,1,0,16.73-16.65A16.88,16.88,0,0,0,844.74,1919.79Zm-125.67-63.63a16.72,16.72,0,1,0,16.44,17.26A16.77,16.77,0,0,0,719.07,1856.16Zm1299.83,111.6c.13-8.9-7.44-16.41-16.38-16.59a16.52,16.52,0,0,0-16.84,16.47c-.11,9.58,7.29,16.59,16.52,16.78A16.63,16.63,0,0,0,2018.9,1967.76Zm-967.69,16.58a16.53,16.53,0,1,0-16.37-16.49A16.54,16.54,0,0,0,1051.21,1984.34ZM2493.08,1824.9a16.23,16.23,0,1,0-16.31,16.29A16.14,16.14,0,0,0,2493.08,1824.9ZM1510.7,2014.78a16.1,16.1,0,0,0,32.2.33,16,16,0,0,0-15.92-16.26C1517.86,1998.55,1510.66,2006.39,1510.7,2014.78Zm-31.65,16.1a16,16,0,1,0,0-32,16,16,0,1,0,0,32ZM2224,1920.05a16,16,0,1,0,16-16.2A16,16,0,0,0,2224,1920.05Zm-158.66,48a16,16,0,1,0-16.08,15.71A16.16,16.16,0,0,0,2065.33,1968.06Zm569.52-231.77a16.5,16.5,0,0,0-3.88-18.12,4.89,4.89,0,0,0-3.58-1.48c-5.09,0-10.18.06-15.27,0a5.17,5.17,0,0,0-3.91,1.66,16.41,16.41,0,1,0,26.64,18ZM1605.76,2014.56a16,16,0,1,0,16.06-15.64A15.93,15.93,0,0,0,1605.76,2014.56Zm-47,.51a16,16,0,1,0,15.87-16.21A15.88,15.88,0,0,0,1558.71,2015.07Zm-966-190a16,16,0,1,0-16,15.81A16,16,0,0,0,592.74,1825.11Zm1995.83-47.76a16,16,0,1,0-16.08,15.65A15.84,15.84,0,0,0,2588.57,1777.35ZM1415.94,2014.77a15.94,15.94,0,1,0,31.88.15,15.94,15.94,0,0,0-31.88-.15ZM1669.77,1999a15.86,15.86,0,1,0,15.74,16A15.79,15.79,0,0,0,1669.77,1999ZM815,1904.09a15.52,15.52,0,0,0-16.27,15.06,15.78,15.78,0,0,0,15.13,16.64c8.56.47,16.16-6.59,16.55-15.3A15.84,15.84,0,0,0,815,1904.09ZM1383.75,1999a15.65,15.65,0,0,0-15.57,15.78,15.47,15.47,0,0,0,15.91,15.79,15.7,15.7,0,0,0,15.81-15.94A16,16,0,0,0,1383.75,1999ZM2397.8,1873.18a15.88,15.88,0,1,0-16.16,15.52A15.71,15.71,0,0,0,2397.8,1873.18Zm-1377.65,94.66a15.8,15.8,0,0,0-31.6-.25,15.8,15.8,0,1,0,31.6.25Zm-575.31-249.6a4.92,4.92,0,0,0-3.58-1.55q-7.25.06-14.49,0a5.06,5.06,0,0,0-3.61,1.47,15.94,15.94,0,0,0-5.12,9.37,16.14,16.14,0,0,0,14.27,18.52c10.38.94,18-7.43,17.78-14.9C450,1725.34,448.23,1721.44,444.84,1718.24Zm1272,281c-7.44,0-15.57,5.15-15.78,15.43-.17,8.59,6,15.48,15.38,15.81a15.62,15.62,0,1,0,.4-31.24ZM671.5,1857.26a15.62,15.62,0,1,0,15.8,15.44A15.64,15.64,0,0,0,671.5,1857.26Zm-174-80.07a15.65,15.65,0,0,0-15.59-15.7,15.62,15.62,0,0,0-.15,31.24A15.68,15.68,0,0,0,497.53,1777.19Zm839.53,253.12a15.26,15.26,0,0,0,15.45-15.26,15.53,15.53,0,1,0-31.06-.23A15.22,15.22,0,0,0,1337.06,2030.31Zm427.47-30.77a15.28,15.28,0,1,0,15.39,15.28A15.17,15.17,0,0,0,1764.53,1999.54Zm347.87-31.91a15.19,15.19,0,1,0-15.22,15.42A15.1,15.1,0,0,0,2112.4,1967.63Zm-838.49,47.09a15.21,15.21,0,0,0,30.41.22,15.21,15.21,0,0,0-30.41-.22Zm1013.22-79.67a15.12,15.12,0,1,0-15.24-15A15.14,15.14,0,0,0,2287.13,1935.05Zm-1345.8,32.84a15.14,15.14,0,1,0,15-15.12A15.18,15.18,0,0,0,941.33,1967.89Zm885.24,47.26a15,15,0,1,0-15.09,14.63A14.83,14.83,0,0,0,1826.57,2015.15Zm-569.59-.36a14.94,14.94,0,1,0-29.87.29,14.94,14.94,0,0,0,29.87-.29Zm1267.83-204.72A14.94,14.94,0,1,0,2539.6,1825,14.94,14.94,0,0,0,2524.81,1810.07Zm-1758.41,95a14.81,14.81,0,0,0,.23,29.61c8-.09,14.59-6.08,14.81-14.93C781,1911,774.49,1905.05,766.4,1905.12Zm1663.46-46.94a14.71,14.71,0,1,0,14.66,14.54A14.72,14.72,0,0,0,2429.86,1858.18Zm233.49-141.5a6.78,6.78,0,0,0-5.16,1.82c-4.8,4.18-6.61,9.35-5,15.55a14.82,14.82,0,0,0,13.49,10.91,14.89,14.89,0,0,0,10.26-26.42,7,7,0,0,0-5.14-1.86c-1.47.11-3,0-4.43,0S2664.68,1716.79,2663.35,1716.68ZM543.48,1825.16a14.57,14.57,0,1,0-29.14-.31,14.57,14.57,0,1,0,29.14.31Zm1301.43,189.66a14.57,14.57,0,1,0,14.58-14.53A14.42,14.42,0,0,0,1844.91,2014.82Zm774.73-252.18a14.42,14.42,0,0,0-14.47,14.61,14.48,14.48,0,0,0,29-.07A14.32,14.32,0,0,0,2619.64,1762.64ZM1179.75,2015a14.45,14.45,0,1,0,14.43-14.61A14.18,14.18,0,0,0,1179.75,2015Zm978.88-47.1a14.39,14.39,0,1,0-28.78,0,14.39,14.39,0,0,0,28.78,0ZM624,1858.53a14.35,14.35,0,1,0,14.23,14.38A14.23,14.23,0,0,0,624,1858.53ZM383.41,1716.68c-3.11-.4-5.44,1-7.52,3.07a14.6,14.6,0,0,0-3,16.33c2.7,5.56,7.21,8.52,13.47,8.41,6.08-.1,10.58-3,12.94-8.54a14.08,14.08,0,0,0-2.56-15.72c-2.12-2.4-4.69-4-8.11-3.54a21.34,21.34,0,0,1-2.4,0A21.93,21.93,0,0,1,383.41,1716.68ZM909.78,1953.6A14.22,14.22,0,1,0,923.6,1968,14.15,14.15,0,0,0,909.78,1953.6ZM1921.54,2015a14.18,14.18,0,1,0-14.2,14A14.25,14.25,0,0,0,1921.54,2015ZM419.81,1777a14.15,14.15,0,1,0,28.3,0A14.25,14.25,0,0,0,434,1762.92C425.63,1763.24,419.86,1769.52,419.81,1777Zm727.13,251.85a14,14,0,1,0-13.82-14.33A14.08,14.08,0,0,0,1146.94,2028.87Zm1202-109.18a14,14,0,1,0-13.88,14.23A13.75,13.75,0,0,0,2348.92,1919.69ZM705,1920a13.71,13.71,0,0,0,27.42,0,13.71,13.71,0,1,0-27.42,0Zm1487.43,34.3a13.51,13.51,0,1,0,13.21,13.93A13.53,13.53,0,0,0,2192.43,1954.3Zm-224.6,60.51a13.43,13.43,0,1,0-13.5,13.49A13.28,13.28,0,0,0,1967.83,2014.81Zm591.33-190a13.47,13.47,0,1,0,26.93,0,13.47,13.47,0,0,0-26.93,0ZM1112.72,2014.89a13.56,13.56,0,0,0-13.62-13.46,13.4,13.4,0,1,0,.31,26.8A13.53,13.53,0,0,0,1112.72,2014.89Zm1377.59-141.73a13.36,13.36,0,0,0-13.45-13.63,13.35,13.35,0,0,0-.16,26.7A13.37,13.37,0,0,0,2490.31,1873.16Zm224.39-156.38a13.31,13.31,0,1,0-.21,26.61,13.31,13.31,0,1,0,.21-26.61Zm-1853,237.76a13.2,13.2,0,0,0-13.48,13.13,13.41,13.41,0,0,0,13.17,13.49c6.41,0,13-4.59,13.53-13.18C874.74,1960.35,869.17,1954.63,861.71,1954.54ZM576.82,1886a13.08,13.08,0,1,0-13.14-13A13.05,13.05,0,0,0,576.82,1886Zm-95-74a13.07,13.07,0,0,0,.07,26.14,13.07,13.07,0,1,0-.07-26.14Zm2172.9-34.89a12.83,12.83,0,1,0,12.76-12.75A12.71,12.71,0,0,0,2654.73,1777.05Zm-639.64,237.86a12.84,12.84,0,1,0-12.82,12.71A12.77,12.77,0,0,0,2015.09,2014.91ZM339,1717.26a12.81,12.81,0,1,0,12.88,12.64A12.77,12.77,0,0,0,339,1717.26Zm2043,189.92a12.57,12.57,0,0,0-12.77,12.76,12.7,12.7,0,1,0,12.77-12.76ZM1038.78,2014.8a12.6,12.6,0,0,0,25.2.46,12.6,12.6,0,1,0-25.2-.46ZM659.19,1920a12.59,12.59,0,0,0,12.4,12.33,12.41,12.41,0,0,0,12.52-12.16,12.46,12.46,0,1,0-24.92-.17Zm1568.37,47.53a12.13,12.13,0,0,0,12.34,12.69c7.7.1,12.5-6,12.49-12.54a12.42,12.42,0,0,0-24.83-.15Zm-1829-190.16A12.43,12.43,0,1,0,386,1789.53,12.42,12.42,0,0,0,398.51,1777.39Zm416.34,178.25A12.17,12.17,0,1,0,826.68,1968,12.11,12.11,0,0,0,814.85,1955.64Zm1222.4,58.94a12.06,12.06,0,1,0,12.21-11.75A11.93,11.93,0,0,0,2037.25,2014.58ZM2631.51,1825a11.82,11.82,0,1,0-11.67,11.94A11.89,11.89,0,0,0,2631.51,1825Zm-1615.3,190a11.84,11.84,0,1,0-11.91,11.62A11.76,11.76,0,0,0,1016.21,2015Zm1508.67-153.94a11.82,11.82,0,1,0,11.63,11.87A11.71,11.71,0,0,0,2524.88,1861.06ZM1479,2051a11.74,11.74,0,1,0,11.62,11.91A11.82,11.82,0,0,0,1479,2051Zm107.41,11.54a11.7,11.7,0,1,0-11.6,11.94A11.74,11.74,0,0,0,1586.4,2062.52ZM1526.81,2051a11.74,11.74,0,0,0-.13,23.48,11.74,11.74,0,1,0,.13-23.48Zm95.13.16a11.6,11.6,0,1,0-.24,23.2,11.75,11.75,0,0,0,11.66-11.5A11.6,11.6,0,0,0,1621.94,2051.14Zm-201.66,11.16a11.62,11.62,0,1,0,11.94-11.17A11.7,11.7,0,0,0,1420.28,2062.3ZM529.06,1884.38a11.54,11.54,0,0,0,11.33-11.67c-.11-6.29-5.47-11.6-11.68-11.33a11.5,11.5,0,1,0,.35,23Zm1129.12,178a11.34,11.34,0,0,0,10.83,11.8,11.48,11.48,0,1,0,1-22.93A11.27,11.27,0,0,0,1658.18,2062.4ZM2751.09,1730a11.36,11.36,0,1,0,22.71-.2,11.36,11.36,0,0,0-22.71.2Zm-1367.15,321.4a11.35,11.35,0,1,0,11.41,11.45A11.37,11.37,0,0,0,1383.94,2051.39Zm-949.4-237.71a11.36,11.36,0,1,0,10.75,11.81A11.31,11.31,0,0,0,434.54,1813.68ZM2418.46,1920a11.35,11.35,0,1,0,11.44-11.46A11.38,11.38,0,0,0,2418.46,1920Zm-120.27,47.74A11.19,11.19,0,1,0,2287,1979,11,11,0,0,0,2298.19,1967.76Zm-201.09,35.92a11.18,11.18,0,1,0,11.24,11.17A11,11,0,0,0,2097.1,2003.68Zm-771.2,58.78a11,11,0,1,0,22.07.32,10.93,10.93,0,0,0-10.85-11.16A11.05,11.05,0,0,0,1325.9,2062.46Zm390.84-10.84a11,11,0,0,0-11.15,11.21,11.17,11.17,0,0,0,11,11c5.18.08,11.35-4.3,11.11-11.27A10.94,10.94,0,0,0,1716.74,2051.62ZM2725.6,1777.51a11,11,0,0,0-22-.83,11,11,0,0,0,22,.83ZM766.7,1956.87a11,11,0,1,0,10.87,11.05A10.88,10.88,0,0,0,766.7,1956.87Zm-153.78-37a10.72,10.72,0,0,0,10.91,10.94,10.83,10.83,0,0,0,10.94-10.95,10.93,10.93,0,1,0-21.85,0Zm343.63,84a11,11,0,1,0-.22,21.91,11,11,0,0,0,.22-21.91ZM291.67,1719.24a10.88,10.88,0,1,0,10.27,11.16A10.74,10.74,0,0,0,291.67,1719.24Zm1461.94,343.83a11,11,0,0,0,11.08,10.52,10.88,10.88,0,0,0,10.69-11.24,10.89,10.89,0,0,0-21.77.72Zm-464.67,10.39a10.74,10.74,0,1,0-10.56-10.92A10.88,10.88,0,0,0,1288.94,2073.46Zm-939.32-296.3a10.57,10.57,0,1,0-10.51,10.53A10.52,10.52,0,0,0,349.62,1777.16Zm1461.82,275.1a10.45,10.45,0,0,0,.09,20.89,10.45,10.45,0,1,0-.09-20.89Zm343-37.43a10.06,10.06,0,0,0-10.14-10.27A10.25,10.25,0,0,0,2133.9,2015a10.14,10.14,0,0,0,10.4,10A10,10,0,0,0,2154.43,2014.83Zm-902.23,47.66a10.25,10.25,0,0,0-10.06-10,10.38,10.38,0,0,0-10.29,10.22,10.11,10.11,0,0,0,10.31,10.09A10,10,0,0,0,1252.2,2062.49Zm617.25.41a10.07,10.07,0,0,0-9.71-10.28c-5.46-.28-10.38,4.59-10.39,10.09a10.06,10.06,0,0,0,10,10A9.85,9.85,0,0,0,1869.45,2062.9Zm703.37-200.08a10.06,10.06,0,1,0-.19,20.11,10.06,10.06,0,0,0,.19-20.11ZM899.48,2015a9.92,9.92,0,0,0,19.83-.14c-.08-6-4.62-9.8-10-10C904,2004.91,899.23,2009.65,899.48,2015Zm1435.59-37.26a9.91,9.91,0,1,0-10.06-9.88A9.87,9.87,0,0,0,2335.07,1977.75Zm-1853-114.67a9.81,9.81,0,1,0-.2,19.61,9.81,9.81,0,0,0,.2-19.61Zm1985.07,57a9.66,9.66,0,0,0,9.86,9.62c5.69-.26,9.65-4.32,9.61-9.86a9.74,9.74,0,0,0-19.47.24Zm210.19-95a9.78,9.78,0,1,0-9.66,9.78A9.91,9.91,0,0,0,2677.32,1825Zm-2291.25-9.6a9.62,9.62,0,1,0,9.58,9.41A9.53,9.53,0,0,0,386.07,1815.39Zm808.22,237.75a9.58,9.58,0,1,0,9.45,9.5A9.55,9.55,0,0,0,1194.29,2053.14Zm713.09,0a9.59,9.59,0,1,0,9.55,9.41A9.58,9.58,0,0,0,1907.38,2053.14ZM728.16,1967.82a9.42,9.42,0,1,0-9.42,9.43A9.36,9.36,0,0,0,728.16,1967.82ZM2201.44,2015a9.27,9.27,0,0,0-9.4-9.39,9.28,9.28,0,0,0,.17,18.56A9.29,9.29,0,0,0,2201.44,2015Zm-1633.87-95a8.91,8.91,0,0,0,9.15,9.17,9.11,9.11,0,0,0,9.35-9.45,9.38,9.38,0,0,0-9.42-9.08A9.2,9.2,0,0,0,567.57,1919.94Zm2242.2-198.89a9.06,9.06,0,1,0-.32,18.11,9.06,9.06,0,0,0,.32-18.11ZM1146.82,2053.91a8.88,8.88,0,0,0-8.55,8.94,9,9,0,0,0,8.79,8.73,8.85,8.85,0,0,0,8.89-9A8.74,8.74,0,0,0,1146.82,2053.91Zm1235.11-94.75a8.67,8.67,0,0,0-8.68,8.66,8.8,8.8,0,0,0,8.69,8.67,8.67,8.67,0,0,0,0-17.33Zm380.55-190.71a8.59,8.59,0,0,0-8.66,8.65,8.64,8.64,0,1,0,8.66-8.65ZM870.11,2014.94a8.57,8.57,0,0,0-8.75-8.6,8.51,8.51,0,0,0,.19,17A8.59,8.59,0,0,0,870.11,2014.94Zm1092.71,44.23a8.92,8.92,0,0,0-4.3-4.61,9.26,9.26,0,0,0-11.29,2.45c-2.8,3.5-2.68,7.68.3,11.29,5-1.13,10.29-.92,15.39-2.6C1963.82,2062.35,1963.77,2061.4,1962.82,2059.17Zm561.92-147.25a8,8,0,1,0,8,7.91A8.05,8.05,0,0,0,2524.74,1911.92ZM1099.4,2054.71a8,8,0,1,0,7.87,8A8.08,8.08,0,0,0,1099.4,2054.71Zm1528.25-181.8a8,8,0,1,0-7.91,8A7.84,7.84,0,0,0,2627.65,1872.91ZM672,1960.06a7.66,7.66,0,0,0-8.14,7.64,7.86,7.86,0,0,0,7.49,8,7.73,7.73,0,0,0,8.09-7.7A7.56,7.56,0,0,0,672,1960.06Zm-135.66-40.17a7.39,7.39,0,0,0-7.41-7.38,7.59,7.59,0,0,0-7.61,7.66,7.71,7.71,0,0,0,7.69,7.21A7.47,7.47,0,0,0,536.35,1919.89Zm2178.47-102.33a7.46,7.46,0,1,0-.26,14.91,7.46,7.46,0,0,0,.26-14.91Zm-2278.5,62a2.27,2.27,0,0,0,2.94-.4,7.9,7.9,0,0,0,2.59-8.33,7.77,7.77,0,0,0-6.38-5.94,7.54,7.54,0,0,0-7.81,2.92,23.59,23.59,0,0,0-2.06,4.12C429.09,1875.13,432.88,1877.08,436.32,1879.52Zm385.2,135.32a7,7,0,1,0-7.13,7A6.94,6.94,0,0,0,821.52,2014.84Zm230,40.85a7,7,0,1,0,6.84,7A7,7,0,0,0,1051.56,2055.69Zm1184.21-39.5c3.36-.73,6.56-2.11,10.05-2.33.81,0,1.56-.85,2.32-1.3-2.22-5.09-6.07-7.23-10.5-6a8.34,8.34,0,0,0-5,3.83,6.43,6.43,0,0,0-.86,5.65C2234.22,2016.62,2234.2,2016.53,2235.77,2016.19Zm-1606-48.65a5.92,5.92,0,0,0-6-5.7,5.86,5.86,0,0,0-5.89,6.23,6,6,0,0,0,6,5.74A6,6,0,0,0,629.8,1967.54Zm2228-243.44a5.85,5.85,0,0,0-6.31,5.81,5.93,5.93,0,0,0,5.55,6.21,6.17,6.17,0,0,0,6.4-5.85A6.07,6.07,0,0,0,2857.77,1724.1Zm-48,47.08a5.94,5.94,0,1,0-.06,11.86,5.8,5.8,0,0,0,5.79-5.88A5.88,5.88,0,0,0,2809.74,1771.18Zm-1805,285.64a5.93,5.93,0,1,0-.79,11.83,5.93,5.93,0,1,0,.79-11.83Zm-238-47.51a5.53,5.53,0,0,0-.41,11,5.53,5.53,0,1,0,.41-11Zm670.78,101.84a3.91,3.91,0,0,0,.22-1.18,5.89,5.89,0,0,0-6.17-6,6,6,0,0,0-5.47,6.26c.15,1.79,1,2.69,2.76,2.74,2.53.06,5.06,0,7.81,0C1437.07,2112.11,1437.33,2111.65,1437.5,2111.15Zm-53.28,2.86c.4,0,.8,0,1.2,0a3.45,3.45,0,0,0,3.66-3,5.13,5.13,0,0,0-1.86-5.38,5.4,5.4,0,0,0-5.69-.47,4.91,4.91,0,0,0-2.64,4.64c0,2.63,1.39,4.57,4.12,4.23a9.75,9.75,0,0,1,1.21,0Zm98-9.28a5.91,5.91,0,0,0-7.07.49,8.2,8.2,0,0,0-1.91,3,3.51,3.51,0,0,0,.75,4c3.37,0,6.93.42,10.41-.28C1485.13,2108.23,1484.47,2106.18,1482.18,2104.73Zm-525.52-46.95a4.93,4.93,0,0,0-5.13,4.95,4.94,4.94,0,0,0,9.88,0A5,5,0,0,0,956.66,2057.78Zm1039.34,3.3a18,18,0,0,0,1.94-.38c.78-.16,1.55-.36,2.33-.46,2.64-.32,5.28-.59,7.91-.92a1.28,1.28,0,0,0,.7-2.16c-4.55-5.44-12.94-3.19-14.68,2.59-.1.31.09.72.16,1.19A9.82,9.82,0,0,0,1996,2061.08Zm-463.15,48.81c.42-1.92-.55-3.34-1.77-4.63a5.7,5.7,0,0,0-4.38-1.66,5.85,5.85,0,0,0-4.33,1.81,4.88,4.88,0,0,0-1.48,4.66C1524.92,2110.75,1530.1,2110.67,1532.85,2109.89Zm-196,3.12c.79,0,1.59,0,2.38,0a2.49,2.49,0,0,0,2.64-2.39,4.84,4.84,0,0,0-2.35-5.09,4.47,4.47,0,0,0-4.9-.13,4.79,4.79,0,0,0-2.58,5c.17,1.78,1,2.53,2.82,2.65.66,0,1.32,0,2,0Zm-45.51-7a4.22,4.22,0,0,0-5.17.54,5.65,5.65,0,0,0-1.35,2.36,2.65,2.65,0,0,0,.83,3,20,20,0,0,0,7.19-.07C1293.67,2108.66,1293.28,2107.27,1291.37,2106Zm1143-142.79c.15,0,.18-.44.37-.94a7.29,7.29,0,0,0-12.12,4.19C2427.08,1966.19,2430.68,1964.52,2434.38,1963.24Zm-854.05,144.18c-1.2-2.89-3.22-4.34-5.91-4.14a6.49,6.49,0,0,0-4,1.65c-.76.7-1.65,1.39-1.33,2.64A29,29,0,0,0,1580.33,2107.42Zm-670.7-48.29a3.62,3.62,0,1,0-.42,7.22,3.61,3.61,0,0,0,3.87-3.61A3.54,3.54,0,0,0,909.63,2059.13ZM2668.9,1866.84a6.12,6.12,0,0,0-4.61.74c-2.34,1.43-3.19,3.66-2.12,6.08a67.61,67.61,0,0,0,9.51-4.68C2671.22,1867.39,2670.06,1867.08,2668.9,1866.84Zm-1946.75,147c-.91-2.82-3.83-3.51-6.06-1.5a1.15,1.15,0,0,0,.22,2c1.85.55,3.49,2,5.86,1.34A6.23,6.23,0,0,0,722.15,2013.83Zm523.56,95.58a2.54,2.54,0,0,0-1.38-2.88,4.72,4.72,0,0,0-2.57-.79,5,5,0,0,0-2.45,1.15,2.07,2.07,0,0,0-.81,2.56A21.29,21.29,0,0,0,1245.71,2109.41Zm371.67-3.95a29.94,29.94,0,0,1,3.3-.71c1.17-.11,2.37,0,4.5,0C1621.69,2102.41,1619.85,2102.68,1617.38,2105.46Zm951.81-190c1-.16,1.91-.27,2.41-1.41C2569.59,1914.17,2569.59,1914.17,2569.19,1915.42ZM1194.54,2106.7c-.1-.06-.23-.18-.31-.16a2.53,2.53,0,0,0-.56.25l.32.18Z"/><path class="cls-6" d="M2955.63,1725.44H158.5a14,14,0,0,1-14-14h0a14,14,0,0,1,14-14H2955.63a14,14,0,0,1,14,14h0A14,14,0,0,1,2955.63,1725.44Z"/><path class="cls-14" d="M1226.77,1699.1h-513a32.92,32.92,0,0,1,32.93-32.92h480.11Z"/><path class="cls-14" d="M1227.38,1699.1h-274l116.37-256a20.92,20.92,0,0,1,19-12.27h247.86a8.17,8.17,0,0,1,7.44,11.55Z"/><path class="cls-9" d="M1336.63,1430.83H1110.37a20.94,20.94,0,0,0-19,12.27L975,1699.1h252.42l116.69-256.72A8.17,8.17,0,0,0,1336.63,1430.83Z"/><path class="cls-15" d="M1206.86,1573.36c-9.6,19.88-25.16,32.24-34.77,27.6s-9.62-24.51,0-44.39,25.15-32.23,34.76-27.59S1216.45,1553.49,1206.86,1573.36Z"/><path class="cls-7" d="M683.39,1057.69s-23.28,118.86-49,139.69,59.22,121.26,88.62,95.53,2-82.06,2-82.06-15.93-9.8,11-72.29-45.61-109-45.61-109Z"/><path class="cls-8" d="M690.47,1029.51l-7.08,28.18s-3.24,16.54-8.63,38.35c10,46.94,28.85,77.46,45.68,96.86.49-10.82,4.21-27.84,15.64-54.34C763,1076.07,690.47,1029.51,690.47,1029.51Z"/><path class="cls-7" d="M830.6,1102.94c-15.64,43.14-53.88,77.78-78.15,69.79-39.66-13.06-68.53-44.06-61.71-112.59,8-80.7,70.13-90,106.6-79.64S847.91,1055.19,830.6,1102.94Z"/><path class="cls-17" d="M629.59,1197.19l-37.51,14.7,59.13,75.77-16.88,30.2s60.9,45.71,79.4,134.3,16.5,164.07,16.5,164.07,4.54-179.67-4.42-214C708.42,1335.62,629.59,1197.19,629.59,1197.19Z"/><path class="cls-17" d="M725.49,1211.89s46.81,120.17,54.23,154S788.65,1565,788.65,1565s21.53-144.09,15.31-186.72-15.1-81.15-15.1-81.15l-28.42-21s-5.37-57.16-8.39-57.89S725.49,1211.89,725.49,1211.89Z"/><path class="cls-7" d="M698.17,1652.51c91.05-27.59,80-41.39,113.12-25.75s74.6,26.24,55.18,31.26-48.74-11-48.74-11,4.6,24.83-12,32.19-90,10-131-1.42S698.17,1652.51,698.17,1652.51Z"/><path class="cls-3" d="M695.61,1648.23h18.12l-9.06,51.48s-35.7-5.3-33-8.85S695.61,1648.23,695.61,1648.23Z"/><path class="cls-5" d="M523.32,1238.82c-35.52,62.16-46.79,96.07-75.75,212.41S407,1620.51,439,1635.8c26.46,12.65,219.09,70.42,242.45,63.3,10.66.61,27-54.42,27-54.42l-175.33-78.16s50.74-121.13,59.5-200.71-30.19-127-49.73-127Z"/><path class="cls-7" d="M707.4,1065.52c-8.58,26.93-4.89,32.42-16.77,34.94s-22.72-9.27-26.23-25.82,3.27-32,15.15-34.53S712.54,1049.4,707.4,1065.52Z"/><path class="cls-16" d="M847,1016.49c-46.47,82.59-138.79,70.46-194.89,42C606.36,1035.37,782.57,947.6,782.57,947.6Z"/><path class="cls-16" d="M695.61,947.6c-17.22-52-87.8-39.66-119.78,29.46s16.95,115.34,46.61,98.41S695.61,947.6,695.61,947.6Z"/><path class="cls-19" d="M1051,931.15a4.41,4.41,0,0,1-3.56-1.8,308.91,308.91,0,0,1-25.88-41.24,4.44,4.44,0,0,1,7.88-4.11,299.79,299.79,0,0,0,25.12,40.06,4.44,4.44,0,0,1-3.56,7.09Z"/><path class="cls-19" d="M1255,1051.19a3.9,3.9,0,0,1-.59,0,307.25,307.25,0,0,1-146.79-60.78,4.44,4.44,0,0,1,5.4-7,298.34,298.34,0,0,0,142.55,59,4.44,4.44,0,0,1-.57,8.85Z"/><path class="cls-19" d="M3105.74,564.73h99.68c0,54.68-45,99.67-99.68,99.67s-99.67-45-99.67-99.67,45-99.68,99.67-99.68Z"/><path class="cls-19" d="M3222.11,550.77a99.67,99.67,0,0,0-99.67-99.68v99.68Z"/><circle class="cls-20" cx="1498.94" cy="740.18" r="8.84"/><circle class="cls-21" cx="1039.77" cy="766.95" r="47.69" transform="translate(124.74 1679.11) rotate(-81.32)"/><path class="cls-19" d="M1035,783.6h-.1a2.66,2.66,0,0,1-1.9-.9l-13-14.72a2.66,2.66,0,0,1,4-3.52l11.1,12.61L1060.85,752a2.67,2.67,0,0,1,3.73,3.81l-27.68,27.08A2.66,2.66,0,0,1,1035,783.6Z"/><rect class="cls-20" x="365.91" y="479.77" width="31.75" height="173.19"/><rect class="cls-20" x="500.45" y="530.16" width="31.75" height="122.8"/><rect class="cls-20" x="567.72" y="479.77" width="31.75" height="173.19"/><rect class="cls-20" x="634.99" y="591.56" width="31.75" height="61.4"/><rect class="cls-20" x="433.18" y="427.04" width="31.75" height="225.91"/><rect class="cls-20" x="702.49" y="530.16" width="31.75" height="122.8"/><rect class="cls-20" x="2319.26" y="495.45" width="31.75" height="91.86"/><rect class="cls-20" x="2726.16" y="525.33" width="31.75" height="61.97"/><rect class="cls-20" x="2453.8" y="372.38" width="31.75" height="214.92"/><rect class="cls-20" x="2521.07" y="490.7" width="31.75" height="96.6"/><rect class="cls-20" x="2588.34" y="463.36" width="31.75" height="123.95"/><rect class="cls-20" x="2386.53" y="434.8" width="31.75" height="152.51"/><rect class="cls-20" x="2655.83" y="399.47" width="31.75" height="187.84"/><g class="cls-22"><path class="cls-3" d="M378.84,1019.26,264.68,949.44,244,1081.66A134,134,0,0,0,378.84,1019.26Z"/><path class="cls-21" d="M379,1019.1c.31-.5.71-1.2.7-1.17a133.85,133.85,0,0,0,3-131.74c-40.4,21.17-16.34,8.31-117.94,63.25C379,1019.37,361.27,1008.59,379,1019.1Z"/><path class="cls-20" d="M139.17,903.2l125.51,46.24,117.73-63.66C327.34,783.94,179.1,796.15,139.17,903.2Z"/><path class="cls-23" d="M244,1081.66l20.66-132.22L139.17,903.2C109.33,983.21,162.3,1068.78,244,1081.66Z"/><path class="cls-24" d="M384.89,1017.75a138.83,138.83,0,0,0,3.46-130.14l.07,0-2.11-3.9-.13-.24-1.73-3.21-.06,0a136.64,136.64,0,0,0-55.17-53.5,138.24,138.24,0,0,0-73.56-15.09c-53.66,3.73-98.88,36.49-119,85.87l-.07,0L135,901.64l-1.55,4.18.07,0a136.53,136.53,0,0,0,11.7,112.82A138.41,138.41,0,0,0,239,1085.28v.08l4.38.69,4.39.69,0-.07a138.37,138.37,0,0,0,132.64-61.57l.09.06.87-1.43s1.41-2.32,1.41-2.32c.22-.35.48-.8.63-1l.09-.15s0-.09.07-.12l1.41-2.3ZM371.5,897l9.22-4.82a129.9,129.9,0,0,1-3.33,120.8l-.85-.5c-4.66-2.76-6.69-4-16-9.63l-87-53.19,72.21-39C356.38,904.93,360.73,902.66,371.5,897ZM145,900.6c18.92-46.06,61.18-76.6,111.31-80.08,49.54-3.44,95.13,20.81,120.05,63.5l-34.77,18.8c-7.18,3.87-17.21,9.3-34,18.39l-41.66,22.53-1.07.58-3.5-2.14-.19,1.22-55-20.26Zm7.94,113.59a127.72,127.72,0,0,1-11-105.27l82.67,30.46,35.2,13-19.4,124.16A129.56,129.56,0,0,1,152.9,1014.19Zm96.21,63.7L268,956.7l49.26,30.13c19.86,12.15,31.22,19.1,38.38,23.46l17,10.4A128.85,128.85,0,0,1,249.11,1077.89Z"/></g><circle class="cls-20" cx="144.47" cy="1237.04" r="39.85" transform="translate(-1096.28 1345.2) rotate(-88.32)"/><path class="cls-19" d="M173.8,1238.82a20,20,0,1,1-20-20A20,20,0,0,1,173.8,1238.82Z"/><rect class="cls-20" x="2749.21" y="1084.95" width="151.56" height="151.55" rx="29.63"/><path class="cls-19" d="M2920.54,1264.15h-98.93a30.79,30.79,0,0,1-30.75-30.75v-98.94a30.79,30.79,0,0,1,30.75-30.75h98.93a30.79,30.79,0,0,1,30.75,30.75v98.94A30.79,30.79,0,0,1,2920.54,1264.15Zm-98.93-151.56a21.89,21.89,0,0,0-21.87,21.87v98.94a21.89,21.89,0,0,0,21.87,21.87h98.93a21.89,21.89,0,0,0,21.87-21.87v-98.94a21.89,21.89,0,0,0-21.87-21.87Z"/><path class="cls-20" d="M1131.34,1241.07,1107.86,1214a12,12,0,0,1,1.2-16.93l27.09-23.49a12,12,0,0,1,16.93,1.21l23.49,27.09a12,12,0,0,1-1.21,16.93l-27.09,23.48A12,12,0,0,1,1131.34,1241.07Z"/><circle class="cls-20" cx="1261.56" cy="1266.44" r="22.3" transform="translate(-388.62 579.18) rotate(-22.5)"/><path class="cls-20" d="M3191.87,1197.38a22.23,22.23,0,1,1-22.23-22.23A22.22,22.22,0,0,1,3191.87,1197.38Z"/><path class="cls-20" d="M2617.23,744.39A22.23,22.23,0,1,1,2595,722.16,22.23,22.23,0,0,1,2617.23,744.39Z"/><path class="cls-20" d="M3040.71,1019.59a17.32,17.32,0,1,1-17.32-17.32A17.32,17.32,0,0,1,3040.71,1019.59Z"/><circle class="cls-20" cx="153.81" cy="628.39" r="43.95" transform="translate(-486.76 718.98) rotate(-84.3)"/><path class="cls-20" d="M767,757.82H451.17a5.87,5.87,0,1,1,0-11.73H767a5.87,5.87,0,1,1,0,11.73Z"/><path class="cls-20" d="M767,787.12H451.17a5.87,5.87,0,1,1,0-11.73H767a5.87,5.87,0,1,1,0,11.73Z"/><path class="cls-18" d="M1953.1,1205.76a223.3,223.3,0,0,0,1.38-24.67q0-6.6-.4-13.11l-40.76-13.19a179,179,0,0,0-14.44-48.84l27-33.27a220.79,220.79,0,0,0-21.41-31.13l-40.77,13.31a181.55,181.55,0,0,0-40.37-31l2.32-42.84a217.43,217.43,0,0,0-35.59-12.61l-25.18,34.74a181.57,181.57,0,0,0-50.9-1.33l-23.31-36a218,218,0,0,0-36.21,10.7l0,42.9a180.91,180.91,0,0,0-42,28.86l-40-15.44a220.76,220.76,0,0,0-23,30l25.25,34.65a179,179,0,0,0-17,48l-41.41,11a223.3,223.3,0,0,0-1.38,24.67q0,6.6.4,13.11l40.77,13.19a179.11,179.11,0,0,0,14.43,48.85l-27,33.26a220.22,220.22,0,0,0,21.41,31.13l40.78-13.31a180.67,180.67,0,0,0,40.36,31l-2.32,42.84a217.77,217.77,0,0,0,35.59,12.61l25.18-34.74a181.57,181.57,0,0,0,50.9,1.33l23.31,36a218,218,0,0,0,36.21-10.7l0-42.9a180.91,180.91,0,0,0,42-28.86l40,15.44a221.29,221.29,0,0,0,23-30l-25.24-34.66a179,179,0,0,0,17-48Zm-218.36,61.52a86.19,86.19,0,1,1,86.19-86.19A86.19,86.19,0,0,1,1734.74,1267.28Z"/><path class="cls-19" d="M1852.29,1280.61a4.44,4.44,0,0,1-3.41-7.28,144.56,144.56,0,0,0,25.47-139.27,4.44,4.44,0,0,1,8.4-2.89,153.47,153.47,0,0,1-27,147.84A4.46,4.46,0,0,1,1852.29,1280.61Z"/><path class="cls-19" d="M1839.81,1077.18a4.42,4.42,0,0,1-3-1.21,143.64,143.64,0,0,0-49.7-30.62,4.44,4.44,0,0,1,3-8.34,152.2,152.2,0,0,1,52.76,32.5,4.44,4.44,0,0,1-3,7.67Z"/><path class="cls-19" d="M1701.3,1041.26a4.44,4.44,0,0,1-1.08-8.75,153.71,153.71,0,0,1,37.62-4.65,4.44,4.44,0,0,1,0,8.88,144.87,144.87,0,0,0-35.45,4.38A4.53,4.53,0,0,1,1701.3,1041.26Z"/></g></g></svg>