<svg xmlns="http://www.w3.org/2000/svg" xmlns:xlink="http://www.w3.org/1999/xlink" viewBox="0 0 2485 1392.33"><defs><style>.cls-1{mask:url(#mask);filter:url(#luminosity-noclip-14);}.cls-10,.cls-12,.cls-14,.cls-16,.cls-18,.cls-2,.cls-20,.cls-22,.cls-24,.cls-26,.cls-4,.cls-6,.cls-8{mix-blend-mode:multiply;}.cls-2{fill:url(#linear-gradient);}.cls-3{mask:url(#mask-2);filter:url(#luminosity-noclip-19);}.cls-4{fill:url(#linear-gradient-2);}.cls-5{mask:url(#mask-3);filter:url(#luminosity-noclip-20);}.cls-6{fill:url(#linear-gradient-3);}.cls-7{mask:url(#mask-4);filter:url(#luminosity-noclip-21);}.cls-8{fill:url(#linear-gradient-4);}.cls-9{mask:url(#mask-5);filter:url(#luminosity-noclip-22);}.cls-10{fill:url(#linear-gradient-5);}.cls-11{mask:url(#mask-6);filter:url(#luminosity-noclip-23);}.cls-12{fill:url(#linear-gradient-6);}.cls-13{mask:url(#mask-7);filter:url(#luminosity-noclip-15);}.cls-14{fill:url(#linear-gradient-7);}.cls-15{mask:url(#mask-8);filter:url(#luminosity-noclip-24);}.cls-16{fill:url(#linear-gradient-8);}.cls-17{mask:url(#mask-9);filter:url(#luminosity-noclip-25);}.cls-18{fill:url(#linear-gradient-9);}.cls-19{mask:url(#mask-10);filter:url(#luminosity-noclip-26);}.cls-20{fill:url(#linear-gradient-10);}.cls-21{mask:url(#mask-11);filter:url(#luminosity-noclip-16);}.cls-22{fill:url(#linear-gradient-11);}.cls-23{mask:url(#mask-12);filter:url(#luminosity-noclip-17);}.cls-24{fill:url(#linear-gradient-12);}.cls-25{mask:url(#mask-13);filter:url(#luminosity-noclip-18);}.cls-26{fill:url(#linear-gradient-13);}.cls-27{mask:url(#mask-14);}.cls-28,.cls-30{opacity:0.34;}.cls-28{fill:url(#linear-gradient-14);}.cls-29{mask:url(#mask-15);}.cls-30{fill:url(#linear-gradient-15);}.cls-31{mask:url(#mask-16);}.cls-32{fill:url(#linear-gradient-16);}.cls-33{mask:url(#mask-17);}.cls-34{fill:url(#linear-gradient-17);}.cls-35{mask:url(#mask-18);}.cls-36{fill:url(#linear-gradient-18);}.cls-37{mask:url(#mask-19);}.cls-38{fill:url(#linear-gradient-19);}.cls-39{mask:url(#mask-20);}.cls-40{fill:url(#linear-gradient-20);}.cls-41{mask:url(#mask-21);}.cls-42{fill:url(#linear-gradient-21);}.cls-43{mask:url(#mask-22);}.cls-44{fill:url(#linear-gradient-22);}.cls-45{mask:url(#mask-23);}.cls-46{fill:url(#linear-gradient-23);}.cls-47{mask:url(#mask-24);}.cls-48{fill:url(#linear-gradient-24);}.cls-49{mask:url(#mask-25);}.cls-50{fill:url(#linear-gradient-25);}.cls-51{mask:url(#mask-26);}.cls-52{fill:url(#linear-gradient-26);}.cls-53{fill:url(#linear-gradient-27);}.cls-54{fill:url(#linear-gradient-28);}.cls-55{fill:url(#linear-gradient-29);}.cls-56{fill:url(#linear-gradient-30);}.cls-57{fill:url(#linear-gradient-31);}.cls-58{opacity:0.17;}.cls-59{fill:url(#linear-gradient-32);}.cls-60{opacity:0.26;}.cls-61{fill:url(#linear-gradient-33);}.cls-62{fill:url(#linear-gradient-34);}.cls-63{fill:url(#linear-gradient-35);}.cls-64{fill:url(#linear-gradient-36);}.cls-65{fill:url(#linear-gradient-37);}.cls-66{fill:url(#linear-gradient-38);}.cls-67{fill:url(#linear-gradient-39);}.cls-68{fill:url(#linear-gradient-40);}.cls-69{fill:url(#linear-gradient-41);}.cls-70{fill:url(#linear-gradient-42);}.cls-71{fill:url(#linear-gradient-43);}.cls-72{fill:#8f8f8f;}.cls-73{fill:#f0f0f0;}.cls-74{fill:#ccc;}.cls-75{fill:url(#linear-gradient-44);}.cls-76{fill:#fff;}.cls-77{fill:url(#linear-gradient-45);}.cls-78{fill:url(#linear-gradient-46);}.cls-79{fill:url(#linear-gradient-47);}.cls-80{fill:url(#linear-gradient-48);}.cls-81{fill:url(#linear-gradient-49);}.cls-82{opacity:0.45;}.cls-83{fill:url(#linear-gradient-50);}.cls-84{fill:url(#linear-gradient-51);}.cls-85{fill:#e6e6e6;}.cls-86{fill:#78c2ff;}.cls-87{fill:#d6d6d6;}.cls-88{fill:url(#linear-gradient-52);}.cls-89{fill:url(#linear-gradient-53);}.cls-90{fill:url(#linear-gradient-54);}.cls-91{fill:url(#linear-gradient-55);}.cls-92{fill:url(#linear-gradient-56);}.cls-93{fill:url(#linear-gradient-57);}.cls-94{fill:url(#linear-gradient-58);}.cls-95{fill:url(#linear-gradient-59);}.cls-96{fill:url(#linear-gradient-60);}.cls-97{fill:url(#linear-gradient-61);}.cls-98{fill:url(#linear-gradient-62);}.cls-99{fill:url(#linear-gradient-63);}.cls-100{fill:#c5ccd1;}.cls-101{fill:url(#linear-gradient-64);}.cls-102{fill:url(#linear-gradient-65);}.cls-103{fill:url(#linear-gradient-66);}.cls-104{fill:url(#linear-gradient-67);}.cls-105{fill:url(#linear-gradient-68);}.cls-106{fill:url(#linear-gradient-69);}.cls-107{fill:#2f5ebd;}.cls-108{fill:#34a5d1;}.cls-109{fill:#38e3e2;}.cls-110{fill:url(#linear-gradient-70);}.cls-111{fill:#2f95bd;}.cls-112{fill:url(#linear-gradient-71);}.cls-113{fill:#e2f3fe;}.cls-114{fill:url(#linear-gradient-72);}.cls-115{fill:url(#linear-gradient-73);}.cls-116{fill:#eea886;}.cls-117{fill:#ffc055;}.cls-118{fill:#323657;}.cls-119{fill:#33373b;}.cls-120{fill:#23263d;}.cls-121{fill:#c49441;}.cls-122{fill:#5080e8;}.cls-123{fill:#292c47;}.cls-124{fill:#3d416b;}.cls-125{fill:#cfbeb6;}.cls-126{fill:#588dff;}.cls-127{fill:#807066;}.cls-128{fill:#191b2b;}.cls-129{fill:#a77860;}.cls-130{fill:#304e8c;}.cls-131{fill:#282b45;}.cls-132{fill:#eddad3;}.cls-133{filter:url(#luminosity-noclip-13);}.cls-134{filter:url(#luminosity-noclip-12);}.cls-135{filter:url(#luminosity-noclip-11);}.cls-136{filter:url(#luminosity-noclip-10);}.cls-137{filter:url(#luminosity-noclip-9);}.cls-138{filter:url(#luminosity-noclip-8);}.cls-139{filter:url(#luminosity-noclip-7);}.cls-140{filter:url(#luminosity-noclip-6);}.cls-141{filter:url(#luminosity-noclip-5);}.cls-142{filter:url(#luminosity-noclip-4);}.cls-143{filter:url(#luminosity-noclip-3);}.cls-144{filter:url(#luminosity-noclip-2);}.cls-145{filter:url(#luminosity-noclip);}</style><filter id="luminosity-noclip" x="165.42" y="-8791.36" width="128.47" height="32766" filterUnits="userSpaceOnUse" color-interpolation-filters="sRGB"><feFlood flood-color="#fff" result="bg"/><feBlend in="SourceGraphic" in2="bg"/></filter><mask id="mask" x="165.42" y="-8791.36" width="128.47" height="32766" maskUnits="userSpaceOnUse"><g class="cls-145"/></mask><linearGradient id="linear-gradient" x1="229.65" y1="-189.25" x2="229.65" y2="223.68" gradientUnits="userSpaceOnUse"><stop offset="0" stop-color="#fff"/><stop offset="1"/></linearGradient><filter id="luminosity-noclip-2" x="1770.75" y="-8791.36" width="7.54" height="32766" filterUnits="userSpaceOnUse" color-interpolation-filters="sRGB"><feFlood flood-color="#fff" result="bg"/><feBlend in="SourceGraphic" in2="bg"/></filter><mask id="mask-2" x="1770.75" y="-8791.36" width="7.54" height="32766" maskUnits="userSpaceOnUse"><g class="cls-144"/></mask><linearGradient id="linear-gradient-2" x1="1774.52" y1="1010.86" x2="1774.52" y2="-46.25" xlink:href="#linear-gradient"/><filter id="luminosity-noclip-3" x="696.01" y="-8791.36" width="150.83" height="32766" filterUnits="userSpaceOnUse" color-interpolation-filters="sRGB"><feFlood flood-color="#fff" result="bg"/><feBlend in="SourceGraphic" in2="bg"/></filter><mask id="mask-3" x="696.01" y="-8791.36" width="150.83" height="32766" maskUnits="userSpaceOnUse"><g class="cls-143"/></mask><linearGradient id="linear-gradient-3" x1="771.42" y1="-189.25" x2="771.42" y2="223.68" xlink:href="#linear-gradient"/><filter id="luminosity-noclip-4" x="696.01" y="-8791.36" width="96.44" height="32766" filterUnits="userSpaceOnUse" color-interpolation-filters="sRGB"><feFlood flood-color="#fff" result="bg"/><feBlend in="SourceGraphic" in2="bg"/></filter><mask id="mask-4" x="696.01" y="-8791.36" width="96.44" height="32766" maskUnits="userSpaceOnUse"><g class="cls-142"/></mask><linearGradient id="linear-gradient-4" x1="744.23" y1="-189.24" x2="744.23" y2="223.67" xlink:href="#linear-gradient"/><filter id="luminosity-noclip-5" x="1241.93" y="-8791.36" width="93.47" height="32766" filterUnits="userSpaceOnUse" color-interpolation-filters="sRGB"><feFlood flood-color="#fff" result="bg"/><feBlend in="SourceGraphic" in2="bg"/></filter><mask id="mask-5" x="1241.93" y="-8791.36" width="93.47" height="32766" maskUnits="userSpaceOnUse"><g class="cls-141"/></mask><linearGradient id="linear-gradient-5" x1="1288.66" y1="-189.25" x2="1288.66" y2="223.68" xlink:href="#linear-gradient"/><filter id="luminosity-noclip-6" x="1241.93" y="-8791.36" width="108.94" height="32766" filterUnits="userSpaceOnUse" color-interpolation-filters="sRGB"><feFlood flood-color="#fff" result="bg"/><feBlend in="SourceGraphic" in2="bg"/></filter><mask id="mask-6" x="1241.93" y="-8791.36" width="108.94" height="32766" maskUnits="userSpaceOnUse"><g class="cls-140"/></mask><linearGradient id="linear-gradient-6" x1="1296.39" y1="-189.24" x2="1296.39" y2="223.67" xlink:href="#linear-gradient"/><filter id="luminosity-noclip-7" x="165.42" y="-8791.36" width="182.23" height="32766" filterUnits="userSpaceOnUse" color-interpolation-filters="sRGB"><feFlood flood-color="#fff" result="bg"/><feBlend in="SourceGraphic" in2="bg"/></filter><mask id="mask-7" x="165.42" y="-8791.36" width="182.23" height="32766" maskUnits="userSpaceOnUse"><g class="cls-139"/></mask><linearGradient id="linear-gradient-7" x1="256.54" y1="-189.24" x2="256.54" y2="223.67" xlink:href="#linear-gradient"/><filter id="luminosity-noclip-8" x="1778.29" y="-8791.36" width="136.14" height="32766" filterUnits="userSpaceOnUse" color-interpolation-filters="sRGB"><feFlood flood-color="#fff" result="bg"/><feBlend in="SourceGraphic" in2="bg"/></filter><mask id="mask-8" x="1778.29" y="-8791.36" width="136.14" height="32766" maskUnits="userSpaceOnUse"><g class="cls-138"/></mask><linearGradient id="linear-gradient-8" x1="1846.37" y1="-189.25" x2="1846.37" y2="223.68" xlink:href="#linear-gradient"/><filter id="luminosity-noclip-9" x="1778.29" y="-8791.36" width="108.94" height="32766" filterUnits="userSpaceOnUse" color-interpolation-filters="sRGB"><feFlood flood-color="#fff" result="bg"/><feBlend in="SourceGraphic" in2="bg"/></filter><mask id="mask-9" x="1778.29" y="-8791.36" width="108.94" height="32766" maskUnits="userSpaceOnUse"><g class="cls-137"/></mask><linearGradient id="linear-gradient-9" x1="1832.76" y1="-189.24" x2="1832.76" y2="223.67" xlink:href="#linear-gradient"/><filter id="luminosity-noclip-10" x="2307.12" y="-8791.36" width="7.54" height="32766" filterUnits="userSpaceOnUse" color-interpolation-filters="sRGB"><feFlood flood-color="#fff" result="bg"/><feBlend in="SourceGraphic" in2="bg"/></filter><mask id="mask-10" x="2307.12" y="-8791.36" width="7.54" height="32766" maskUnits="userSpaceOnUse"><g class="cls-136"/></mask><linearGradient id="linear-gradient-10" x1="2310.89" y1="1412.98" x2="2310.89" y2="406.37" xlink:href="#linear-gradient"/><filter id="luminosity-noclip-11" x="161.65" y="-8791.36" width="7.54" height="32766" filterUnits="userSpaceOnUse" color-interpolation-filters="sRGB"><feFlood flood-color="#fff" result="bg"/><feBlend in="SourceGraphic" in2="bg"/></filter><mask id="mask-11" x="161.65" y="-8791.36" width="7.54" height="32766" maskUnits="userSpaceOnUse"><g class="cls-135"/></mask><linearGradient id="linear-gradient-11" x1="165.42" y1="1486.02" x2="165.42" y2="123.66" xlink:href="#linear-gradient"/><filter id="luminosity-noclip-12" x="698.02" y="-8791.36" width="7.54" height="32766" filterUnits="userSpaceOnUse" color-interpolation-filters="sRGB"><feFlood flood-color="#fff" result="bg"/><feBlend in="SourceGraphic" in2="bg"/></filter><mask id="mask-12" x="698.02" y="-8791.36" width="7.54" height="32766" maskUnits="userSpaceOnUse"><g class="cls-134"/></mask><linearGradient id="linear-gradient-12" x1="701.79" y1="1010.86" x2="701.79" y2="-46.25" xlink:href="#linear-gradient"/><filter id="luminosity-noclip-13" x="1234.38" y="-8791.36" width="7.54" height="32766" filterUnits="userSpaceOnUse" color-interpolation-filters="sRGB"><feFlood flood-color="#fff" result="bg"/><feBlend in="SourceGraphic" in2="bg"/></filter><mask id="mask-13" x="1234.38" y="-8791.36" width="7.54" height="32766" maskUnits="userSpaceOnUse"><g class="cls-133"/></mask><linearGradient id="linear-gradient-13" x1="1238.15" y1="1010.86" x2="1238.15" y2="-46.25" xlink:href="#linear-gradient"/><filter id="luminosity-noclip-14" x="165.42" y="0" width="128.47" height="20.63" filterUnits="userSpaceOnUse" color-interpolation-filters="sRGB"><feFlood flood-color="#fff" result="bg"/><feBlend in="SourceGraphic" in2="bg"/></filter><mask id="mask-14" x="165.42" y="0" width="128.47" height="20.63" maskUnits="userSpaceOnUse"><g class="cls-1"><rect class="cls-2" x="165.42" width="128.47" height="20.63"/></g></mask><linearGradient id="linear-gradient-14" x1="229.65" y1="-189.25" x2="229.65" y2="223.68" gradientUnits="userSpaceOnUse"><stop offset="0" stop-color="#d5e4ff"/><stop offset="1" stop-color="#edfffe"/></linearGradient><filter id="luminosity-noclip-15" x="165.42" y="38.13" width="182.23" height="20.63" filterUnits="userSpaceOnUse" color-interpolation-filters="sRGB"><feFlood flood-color="#fff" result="bg"/><feBlend in="SourceGraphic" in2="bg"/></filter><mask id="mask-15" x="165.42" y="38.13" width="182.23" height="20.63" maskUnits="userSpaceOnUse"><g class="cls-13"><rect class="cls-14" x="165.42" y="38.13" width="182.23" height="20.63"/></g></mask><linearGradient id="linear-gradient-15" x1="256.54" y1="-189.24" x2="256.54" y2="223.67" xlink:href="#linear-gradient-14"/><filter id="luminosity-noclip-16" x="161.65" y="81.46" width="7.54" height="988.35" filterUnits="userSpaceOnUse" color-interpolation-filters="sRGB"><feFlood flood-color="#fff" result="bg"/><feBlend in="SourceGraphic" in2="bg"/></filter><mask id="mask-16" x="161.65" y="81.46" width="7.54" height="988.35" maskUnits="userSpaceOnUse"><g class="cls-21"><rect class="cls-22" x="161.65" y="81.46" width="7.54" height="988.35"/></g></mask><linearGradient id="linear-gradient-16" x1="165.42" y1="1486.02" x2="165.42" y2="123.66" gradientUnits="userSpaceOnUse"><stop offset="0" stop-color="#78c5f1"/><stop offset="1" stop-color="#edfffe"/></linearGradient><filter id="luminosity-noclip-17" x="698.02" y="81.46" width="7.54" height="988.35" filterUnits="userSpaceOnUse" color-interpolation-filters="sRGB"><feFlood flood-color="#fff" result="bg"/><feBlend in="SourceGraphic" in2="bg"/></filter><mask id="mask-17" x="698.02" y="81.46" width="7.54" height="988.35" maskUnits="userSpaceOnUse"><g class="cls-23"><rect class="cls-24" x="698.02" y="81.46" width="7.54" height="988.35"/></g></mask><linearGradient id="linear-gradient-17" x1="701.79" y1="1010.86" x2="701.79" y2="-46.25" xlink:href="#linear-gradient-16"/><filter id="luminosity-noclip-18" x="1234.38" y="81.46" width="7.54" height="988.35" filterUnits="userSpaceOnUse" color-interpolation-filters="sRGB"><feFlood flood-color="#fff" result="bg"/><feBlend in="SourceGraphic" in2="bg"/></filter><mask id="mask-18" x="1234.38" y="81.46" width="7.54" height="988.35" maskUnits="userSpaceOnUse"><g class="cls-25"><rect class="cls-26" x="1234.38" y="81.46" width="7.54" height="988.35"/></g></mask><linearGradient id="linear-gradient-18" x1="1238.15" y1="1010.86" x2="1238.15" y2="-46.25" xlink:href="#linear-gradient-16"/><filter id="luminosity-noclip-19" x="1770.75" y="81.46" width="7.54" height="988.35" filterUnits="userSpaceOnUse" color-interpolation-filters="sRGB"><feFlood flood-color="#fff" result="bg"/><feBlend in="SourceGraphic" in2="bg"/></filter><mask id="mask-19" x="1770.75" y="81.46" width="7.54" height="988.35" maskUnits="userSpaceOnUse"><g class="cls-3"><rect class="cls-4" x="1770.75" y="81.46" width="7.54" height="988.35"/></g></mask><linearGradient id="linear-gradient-19" x1="1774.52" y1="1010.86" x2="1774.52" y2="-46.25" xlink:href="#linear-gradient-16"/><filter id="luminosity-noclip-20" x="696.01" y="0" width="150.83" height="20.63" filterUnits="userSpaceOnUse" color-interpolation-filters="sRGB"><feFlood flood-color="#fff" result="bg"/><feBlend in="SourceGraphic" in2="bg"/></filter><mask id="mask-20" x="696.01" y="0" width="150.83" height="20.63" maskUnits="userSpaceOnUse"><g class="cls-5"><rect class="cls-6" x="696.01" width="150.83" height="20.63"/></g></mask><linearGradient id="linear-gradient-20" x1="771.42" y1="-189.25" x2="771.42" y2="223.68" xlink:href="#linear-gradient-14"/><filter id="luminosity-noclip-21" x="696.01" y="38.13" width="96.44" height="20.63" filterUnits="userSpaceOnUse" color-interpolation-filters="sRGB"><feFlood flood-color="#fff" result="bg"/><feBlend in="SourceGraphic" in2="bg"/></filter><mask id="mask-21" x="696.01" y="38.13" width="96.44" height="20.63" maskUnits="userSpaceOnUse"><g class="cls-7"><rect class="cls-8" x="696.01" y="38.13" width="96.44" height="20.63"/></g></mask><linearGradient id="linear-gradient-21" x1="744.23" y1="-189.24" x2="744.23" y2="223.67" xlink:href="#linear-gradient-14"/><filter id="luminosity-noclip-22" x="1241.93" y="0" width="93.47" height="20.63" filterUnits="userSpaceOnUse" color-interpolation-filters="sRGB"><feFlood flood-color="#fff" result="bg"/><feBlend in="SourceGraphic" in2="bg"/></filter><mask id="mask-22" x="1241.93" y="0" width="93.47" height="20.63" maskUnits="userSpaceOnUse"><g class="cls-9"><rect class="cls-10" x="1241.93" width="93.47" height="20.63"/></g></mask><linearGradient id="linear-gradient-22" x1="1288.66" y1="-189.25" x2="1288.66" y2="223.68" xlink:href="#linear-gradient-14"/><filter id="luminosity-noclip-23" x="1241.93" y="38.13" width="108.94" height="20.63" filterUnits="userSpaceOnUse" color-interpolation-filters="sRGB"><feFlood flood-color="#fff" result="bg"/><feBlend in="SourceGraphic" in2="bg"/></filter><mask id="mask-23" x="1241.93" y="38.13" width="108.94" height="20.63" maskUnits="userSpaceOnUse"><g class="cls-11"><rect class="cls-12" x="1241.93" y="38.13" width="108.94" height="20.63"/></g></mask><linearGradient id="linear-gradient-23" x1="1296.39" y1="-189.24" x2="1296.39" y2="223.67" xlink:href="#linear-gradient-14"/><filter id="luminosity-noclip-24" x="1778.29" y="0" width="136.14" height="20.63" filterUnits="userSpaceOnUse" color-interpolation-filters="sRGB"><feFlood flood-color="#fff" result="bg"/><feBlend in="SourceGraphic" in2="bg"/></filter><mask id="mask-24" x="1778.29" y="0" width="136.14" height="20.63" maskUnits="userSpaceOnUse"><g class="cls-15"><rect class="cls-16" x="1778.29" width="136.14" height="20.63"/></g></mask><linearGradient id="linear-gradient-24" x1="1846.37" y1="-189.25" x2="1846.37" y2="223.68" xlink:href="#linear-gradient-14"/><filter id="luminosity-noclip-25" x="1778.29" y="38.13" width="108.94" height="20.63" filterUnits="userSpaceOnUse" color-interpolation-filters="sRGB"><feFlood flood-color="#fff" result="bg"/><feBlend in="SourceGraphic" in2="bg"/></filter><mask id="mask-25" x="1778.29" y="38.13" width="108.94" height="20.63" maskUnits="userSpaceOnUse"><g class="cls-17"><rect class="cls-18" x="1778.29" y="38.13" width="108.94" height="20.63"/></g></mask><linearGradient id="linear-gradient-25" x1="1832.76" y1="-189.24" x2="1832.76" y2="223.67" xlink:href="#linear-gradient-14"/><filter id="luminosity-noclip-26" x="2307.12" y="81.46" width="7.54" height="988.35" filterUnits="userSpaceOnUse" color-interpolation-filters="sRGB"><feFlood flood-color="#fff" result="bg"/><feBlend in="SourceGraphic" in2="bg"/></filter><mask id="mask-26" x="2307.12" y="81.46" width="7.54" height="988.35" maskUnits="userSpaceOnUse"><g class="cls-19"><rect class="cls-20" x="2307.12" y="81.46" width="7.54" height="988.35"/></g></mask><linearGradient id="linear-gradient-26" x1="2310.89" y1="1412.98" x2="2310.89" y2="406.37" xlink:href="#linear-gradient-16"/><linearGradient id="linear-gradient-27" x1="165.42" y1="1115.77" x2="250.75" y2="1115.77" xlink:href="#linear-gradient-14"/><linearGradient id="linear-gradient-28" x1="701.79" y1="1107.03" x2="787.12" y2="1107.03" xlink:href="#linear-gradient-14"/><linearGradient id="linear-gradient-29" x1="1241.93" y1="1107.03" x2="1327.26" y2="1107.03" xlink:href="#linear-gradient-14"/><linearGradient id="linear-gradient-30" x1="1778.29" y1="1107.03" x2="1863.63" y2="1107.03" xlink:href="#linear-gradient-14"/><linearGradient id="linear-gradient-31" x1="2314.66" y1="1115.77" x2="2400" y2="1115.77" xlink:href="#linear-gradient-14"/><linearGradient id="linear-gradient-32" x1="2165.16" y1="577.64" x2="163.53" y2="577.64" xlink:href="#linear-gradient-14"/><linearGradient id="linear-gradient-33" x1="2866.68" y1="598.16" x2="-689.04" y2="636.04" xlink:href="#linear-gradient-14"/><linearGradient id="linear-gradient-34" x1="490.25" y1="634.42" x2="751.89" y2="634.42" gradientUnits="userSpaceOnUse"><stop offset="0" stop-color="#40d5e6"/><stop offset="1" stop-color="#57f"/></linearGradient><linearGradient id="linear-gradient-35" x1="487.91" y1="638.97" x2="776.54" y2="638.97" xlink:href="#linear-gradient-34"/><linearGradient id="linear-gradient-36" x1="555.28" y1="594.6" x2="575.34" y2="594.6" gradientTransform="translate(432.13 -214.96) rotate(34.21)" xlink:href="#linear-gradient-34"/><linearGradient id="linear-gradient-37" x1="562.93" y1="629.88" x2="597.63" y2="629.88" gradientTransform="translate(581.12 -226.55) rotate(42.71)" xlink:href="#linear-gradient-34"/><linearGradient id="linear-gradient-38" x1="626.82" y1="605.36" x2="632.43" y2="605.36" gradientTransform="translate(46.67 -45.06) rotate(4.26)" xlink:href="#linear-gradient-34"/><linearGradient id="linear-gradient-39" x1="479.77" y1="462.9" x2="743.75" y2="462.9" xlink:href="#linear-gradient-34"/><linearGradient id="linear-gradient-40" x1="479.11" y1="460.5" x2="808.79" y2="460.5" xlink:href="#linear-gradient-34"/><linearGradient id="linear-gradient-41" x1="550.33" y1="488.77" x2="619.14" y2="488.77" gradientTransform="translate(1047.56 -116.71) rotate(87.5)" xlink:href="#linear-gradient-34"/><linearGradient id="linear-gradient-42" x1="596.33" y1="405.12" x2="598.15" y2="405.12" gradientTransform="translate(0.45 -0.66) rotate(0.06)" xlink:href="#linear-gradient-34"/><linearGradient id="linear-gradient-43" x1="497.49" y1="391.68" x2="553.24" y2="391.68" gradientTransform="translate(889.08 -153.41) rotate(87.01)" xlink:href="#linear-gradient-34"/><linearGradient id="linear-gradient-44" x1="1863.18" y1="986.68" x2="2063.76" y2="986.68" xlink:href="#linear-gradient-34"/><linearGradient id="linear-gradient-45" x1="2010.32" y1="1098.61" x2="2191.7" y2="1098.61" xlink:href="#linear-gradient-34"/><linearGradient id="linear-gradient-46" x1="2025.82" y1="1124.98" x2="2161.97" y2="1124.98" xlink:href="#linear-gradient-34"/><linearGradient id="linear-gradient-47" x1="1976.66" y1="1015.43" x2="2135.21" y2="1015.43" xlink:href="#linear-gradient-34"/><linearGradient id="linear-gradient-48" x1="1940.28" y1="1242.85" x2="2086.58" y2="1242.85" gradientUnits="userSpaceOnUse"><stop offset="0" stop-color="#ff9340"/><stop offset="1" stop-color="#ffce45"/></linearGradient><linearGradient id="linear-gradient-49" x1="1940.28" y1="1242.85" x2="2086.58" y2="1242.85" gradientUnits="userSpaceOnUse"><stop offset="0" stop-color="#c97332"/><stop offset="1" stop-color="#ffce45"/></linearGradient><linearGradient id="linear-gradient-50" x1="877.97" y1="543.28" x2="1005.62" y2="543.28" xlink:href="#linear-gradient-34"/><linearGradient id="linear-gradient-51" x1="810.16" y1="541.94" x2="1069.15" y2="541.94" xlink:href="#linear-gradient-34"/><linearGradient id="linear-gradient-52" x1="820.98" y1="772.62" x2="820.98" y2="887.82" xlink:href="#linear-gradient-34"/><linearGradient id="linear-gradient-53" x1="820.89" y1="772.62" x2="820.89" y2="887.82" xlink:href="#linear-gradient-34"/><linearGradient id="linear-gradient-54" x1="820.89" y1="780.08" x2="820.89" y2="880.95" gradientUnits="userSpaceOnUse"><stop offset="0" stop-color="#d3dae0"/><stop offset="1" stop-color="#fff"/></linearGradient><linearGradient id="linear-gradient-55" x1="960.59" y1="772.62" x2="960.59" y2="887.82" xlink:href="#linear-gradient-34"/><linearGradient id="linear-gradient-56" x1="960.5" y1="772.62" x2="960.5" y2="887.82" xlink:href="#linear-gradient-34"/><linearGradient id="linear-gradient-57" x1="960.5" y1="780.08" x2="960.5" y2="880.95" xlink:href="#linear-gradient-54"/><linearGradient id="linear-gradient-58" x1="1100.2" y1="772.62" x2="1100.2" y2="887.82" xlink:href="#linear-gradient-34"/><linearGradient id="linear-gradient-59" x1="1100.1" y1="772.62" x2="1100.1" y2="887.82" xlink:href="#linear-gradient-34"/><linearGradient id="linear-gradient-60" x1="1100.1" y1="780.08" x2="1100.1" y2="880.95" xlink:href="#linear-gradient-54"/><linearGradient id="linear-gradient-61" x1="1239.81" y1="772.62" x2="1239.81" y2="887.82" xlink:href="#linear-gradient-34"/><linearGradient id="linear-gradient-62" x1="1239.71" y1="772.62" x2="1239.71" y2="887.82" xlink:href="#linear-gradient-34"/><linearGradient id="linear-gradient-63" x1="1239.71" y1="780.08" x2="1239.71" y2="880.95" xlink:href="#linear-gradient-54"/><linearGradient id="linear-gradient-64" x1="2296.51" y1="785.99" x2="2422.36" y2="785.99" xlink:href="#linear-gradient-34"/><linearGradient id="linear-gradient-65" x1="2229.66" y1="784.68" x2="2485" y2="784.68" xlink:href="#linear-gradient-34"/><linearGradient id="linear-gradient-66" x1="91.4" y1="1050.97" x2="263.45" y2="1050.97" xlink:href="#linear-gradient-34"/><linearGradient id="linear-gradient-67" x1="0" y1="1049.17" x2="349.09" y2="1049.17" xlink:href="#linear-gradient-34"/><linearGradient id="linear-gradient-68" x1="6.76" y1="458.21" x2="111.77" y2="458.21" xlink:href="#linear-gradient-34"/><linearGradient id="linear-gradient-69" x1="1826.25" y1="449.52" x2="2097.29" y2="449.52" xlink:href="#linear-gradient-14"/><linearGradient id="linear-gradient-70" x1="2126.78" y1="537.32" x2="2238.9" y2="537.32" xlink:href="#linear-gradient-14"/><linearGradient id="linear-gradient-71" x1="2126.79" y1="366.65" x2="2238.9" y2="366.65" xlink:href="#linear-gradient-14"/><linearGradient id="linear-gradient-72" x1="1832.43" y1="612.64" x2="1926.09" y2="612.64" xlink:href="#linear-gradient-14"/><linearGradient id="linear-gradient-73" x1="2060.97" y1="612.64" x2="2116.06" y2="612.64" xlink:href="#linear-gradient-14"/></defs><title>image2</title><g id="Слой_2" data-name="Слой 2"><g id="_Layer_" data-name="&lt;Layer&gt;"><g class="cls-27"><rect class="cls-28" x="165.42" width="128.47" height="20.63"/></g><g class="cls-29"><rect class="cls-30" x="165.42" y="38.13" width="182.23" height="20.63"/></g><g class="cls-31"><rect class="cls-32" x="161.65" y="81.46" width="7.54" height="988.35"/></g><g class="cls-33"><rect class="cls-34" x="698.02" y="81.46" width="7.54" height="988.35"/></g><g class="cls-35"><rect class="cls-36" x="1234.38" y="81.46" width="7.54" height="988.35"/></g><g class="cls-37"><rect class="cls-38" x="1770.75" y="81.46" width="7.54" height="988.35"/></g><g class="cls-39"><rect class="cls-40" x="696.01" width="150.83" height="20.63"/></g><g class="cls-41"><rect class="cls-42" x="696.01" y="38.13" width="96.44" height="20.63"/></g><g class="cls-43"><rect class="cls-44" x="1241.93" width="93.47" height="20.63"/></g><g class="cls-45"><rect class="cls-46" x="1241.93" y="38.13" width="108.94" height="20.63"/></g><g class="cls-47"><rect class="cls-48" x="1778.29" width="136.14" height="20.63"/></g><g class="cls-49"><rect class="cls-50" x="1778.29" y="38.13" width="108.94" height="20.63"/></g><g class="cls-51"><rect class="cls-52" x="2307.12" y="81.46" width="7.54" height="988.35"/></g><rect class="cls-53" x="165.42" y="1102.01" width="85.33" height="27.51"/><rect class="cls-54" x="701.79" y="1093.28" width="85.34" height="27.51"/><rect class="cls-55" x="1241.93" y="1093.28" width="85.34" height="27.51"/><rect class="cls-56" x="1778.29" y="1093.28" width="85.34" height="27.51"/><rect class="cls-57" x="2314.66" y="1102.01" width="85.34" height="27.51"/><g class="cls-58"><path class="cls-59" d="M1120.82,802.28c-123.49,0-221.43-83-317.31-164.34-72.7-61.64-148.14-124.66-235.2-155.75-265.73-94.87-401.68,78.37-402.89,79.89v-52.7c1.43-1.8,25.69-33.29,95.84-63.35,63.87-27.38,171-49.21,318.86,2.2,93.64,32.58,171.42,98.52,246.64,162.29,152.57,129.36,284.34,241.07,513.18,66.08,173.33-132.53,336.72-258.84,497.48-305C1994.65,326.49,2158.58,359.53,2312,513l-1.13,47.86c-325.95-327.38-603.48-120-949.11,144.33C1270.23,775.17,1191.35,802.27,1120.82,802.28Z"/></g><g class="cls-60"><path class="cls-61" d="M2125,787c-167.29,0-312.72-72.32-464.33-147.71C1473.51,546.24,1280,450,1022.1,476.34c-164.66,16.83-268,83.89-359.21,143.06C580.33,673,502.27,720.08,396.54,724.1c-170.86,6.5-230.13-66.37-231.12-70.82V606.52h0c.21.81,37.52,82.6,230.94,81.63,95.26-.48,165.56-46.1,247-98.91,94.61-61.38,201.83-130.95,375.12-148.66,268.21-27.41,466.5,71.19,658.25,166.54,200.64,99.77,392.1,193.34,634.2,112.16v38.45C2241.88,780.87,2186.69,787,2125,787Z"/></g><path class="cls-62" d="M751.89,667.71c-.16,0-16.66.15-39.68-4.2-21.24-4-52.57-12.79-81.17-31.8-28.31-18.83-65-25.41-90.85-27.63a302.13,302.13,0,0,0-49.77-.29l-.17-1.78a303.37,303.37,0,0,1,50.09.29c26,2.23,63.06,8.88,91.69,27.92,28.33,18.84,59.4,27.54,80.47,31.52,22.85,4.32,39.21,4.18,39.37,4.18Z"/><path class="cls-63" d="M772.41,678.28c-18.87,21.31-99,34.48-146.62,9.62-26.29-13.74-47.15-29.8-65.55-44-24-18.47-44.69-34.43-70.1-40.16l-2.23-.5,2-1.14c.37-.22,37.6-21.52,90.73-25.08A218.9,218.9,0,0,1,671.36,590c36.22,13.32,70.12,36.58,100.76,69.15l-.65.61.65-.61c5.39,5.74,5.86,11.92,1.34,17.87C773.14,677.42,772.78,677.85,772.41,678.28ZM492.82,602.57c24.74,6.23,45.08,21.89,68.51,39.94,18.34,14.12,39.13,30.14,65.29,43.8C648.11,697.54,679,702,711.33,698.43c27.39-3,51-11.48,59.75-21.35q.51-.58,1-1.17c4-5.24,3.56-10.48-1.23-15.56-68.9-73.24-141.35-84.76-190-81.52C535.09,581.88,501.24,598.16,492.82,602.57Z"/><rect class="cls-64" x="564.41" y="578.07" width="1.79" height="33.06" transform="translate(-236.5 420.73) rotate(-34.21)"/><rect class="cls-65" x="557.49" y="628.99" width="45.57" height="1.79" transform="translate(-273.35 560.63) rotate(-42.71)"/><rect class="cls-66" x="628.73" y="579.69" width="1.79" height="51.34" transform="translate(-43.2 48.4) rotate(-4.26)"/><path class="cls-67" d="M743.18,594c-.21-.07-21.72-7.74-49.11-26.54-25.26-17.35-60.88-48-87-95.54-30.33-55.11-63.31-89.86-85.64-109.3-24.2-21.07-41.45-29.22-41.62-29.3l.73-1.56c.17.08,17.58,8.3,42,29.5,22.45,19.55,55.61,54.46,86.09,109.83,26,47.24,61.39,77.71,86.51,94.95,27.2,18.68,48.49,26.27,48.7,26.34Z"/><path class="cls-68" d="M808.79,589.7l-4.85.89c-.16,0-16.05,2.87-40.5,2.44A292.67,292.67,0,0,1,669,575.6a264.64,264.64,0,0,1-108.19-74.44c-37.42-42.48-64.83-99.14-81.47-168.4l-.19-.78.77-.24c.28-.09,28.37-8.66,65.08.16,21.55,5.18,41.83,15.25,60.27,29.92,23,18.33,43.23,43.93,60.06,76.08,37.91,72.46,73.66,109.68,97,128.15,25.16,19.92,41.5,22.82,41.67,22.84ZM481.16,333.16C518.77,488.7,604.29,550,669.48,574a290.76,290.76,0,0,0,93.91,17.35,250,250,0,0,0,36.11-1.8c-6.43-2-20-7.61-38.3-22.12-23.45-18.57-59.38-56-97.43-128.69-37.83-72.3-85.71-97.08-119.21-105.13C511.67,325.67,485.88,331.88,481.16,333.16Z"/><rect class="cls-69" x="583.88" y="454.37" width="1.72" height="68.8" transform="translate(70.94 1051.65) rotate(-87.5)"/><rect class="cls-70" x="596.38" y="356.85" width="1.72" height="96.54" transform="translate(-0.45 0.66) rotate(-0.06)"/><rect class="cls-71" x="524.5" y="363.81" width="1.72" height="55.74" transform="translate(106.78 895.88) rotate(-87.01)"/><rect class="cls-72" x="1141.4" y="894.9" width="127.65" height="387.72" transform="translate(2410.46 2177.52) rotate(180)"/><rect class="cls-73" x="654.09" y="304.07" width="1102.28" height="777.6" rx="58.83" transform="translate(2410.46 1385.74) rotate(180)"/><rect class="cls-74" x="918.09" y="1267.99" width="574.29" height="29.27"/><path class="cls-75" d="M1880.71,721.64c17.29-8.27,34.51,46.79,34.51,46.79,29.39,38.84,70.47-12.83,66.46,45.24-7,101.6,117,32,59.75,138s50.51,60,15,145.52,10.53,187.55-43,145.63c0,0-47.09-103.27-95.66-135.23s29.1-69.86,13.9-113.26c-22.07-63-75.25-60.56-36.9-128.29S1821.91,749.76,1880.71,721.64Z"/><path class="cls-76" d="M2030.37,1204c-23.19-16.3-50.32-129.92-51.94-197.6-.83-34.66-11.07-49.11-20.11-61.85-8.65-12.18-16.11-22.7-11.76-46.85,8.31-46.16-13.54-66.08-13.76-66.28l2.53-2.88c1,.85,23.72,21.4,15,69.84-4.06,22.57,2.64,32,11.11,43.95,8.9,12.54,20,28.14,20.83,64,1.73,72.63,29.47,179.91,50.3,194.56Z"/><path class="cls-77" d="M2039,1212.4a49.49,49.49,0,0,1-9.8-1.06c-8.93-1.8-14.79-6.52-17.41-14-6.25-17.87,8.23-46.91,20-60.9.19-.24,19.87-24.28,17.77-57.6-.35-5.59-.93-10.76-1.44-15.32-1.48-13.19-2.55-22.71,3.11-29.08,5-5.61,14.63-8,32.22-8.12,30.86-.14,43.06-12.92,52.86-23.18,4.16-4.36,8.09-8.48,12.87-11.09h0c15.38-8.39,31.66-9.62,38.73-2.93,3.35,3.18,6.18,9.41.63,21-5.08,10.61-11.67,17.33-17,22.73-7.12,7.27-11.83,12.07-9.38,21.64.58,2.24,1.24,4.51,1.91,6.79,4.75,16.27,10.14,34.71-17.7,47.22-5.91,2.65-11.29,4.77-16,6.63-19.44,7.63-31.17,12.23-44.41,40.19-2.57,5.41-4.83,10.54-7,15.5C2068.52,1194.5,2060.62,1212.4,2039,1212.4Zm112-217c-4.25,2.32-7.82,6.05-11.94,10.37-10.3,10.79-23.12,24.21-55.61,24.37-16.17.07-25.23,2.18-29.37,6.83-4.53,5.09-3.54,13.9-2.17,26.1.51,4.61,1.1,9.83,1.45,15.51,2.2,34.89-17.8,59.28-18.65,60.3-11.63,13.85-24.81,41.42-19.3,57.17,2.14,6.13,7,10,14.55,11.52,26.22,5.3,33.46-11.11,45.45-38.29,2.2-5,4.48-10.13,7.06-15.59,13.9-29.33,26.86-34.42,46.48-42.12,4.71-1.85,10.05-3.94,15.87-6.56,24.8-11.14,20.32-26.44,15.59-42.64-.68-2.32-1.36-4.63-1.94-6.92-3-11.66,2.9-17.67,10.35-25.27,5.36-5.47,11.44-11.67,16.24-21.71,2.52-5.26,4.59-12.41.19-16.59-5.79-5.49-20.52-4-34.25,3.52Z"/><path class="cls-78" d="M2029.65,1234.54l-3.83-.2c.19-3.6,5-88.39,39.07-113.21,37.35-27.22,49.13-56.48,54.73-76.12,6.61-23.14,40.25-29.33,41.68-29.58l.67,3.78c-.33,0-32.71,6-38.66,26.85-5.76,20.19-17.86,50.25-56.16,78.17C2034.56,1148,2029.7,1233.68,2029.65,1234.54Z"/><path class="cls-79" d="M2107.5,807.21c-24.2-8.29-19.18,38.35-29.4,72.85s-113.75,15.06-70.29,101.47-55,28.9-25.57,104.3,2.56,156.06,34.51,135.55,18-115.47,51.18-126.76,38.65-24.44,5.75-55.12,86.22-61.12,56.82-123.06S2135.45,816.8,2107.5,807.21Z"/><path class="cls-76" d="M2031.58,1217.76c-3-12.91-29-126.51-4.78-140.24,21.37-12.1,20.84-59.18,17.51-103.63-3-39.35,47.58-57.74,49.74-58.51l1.28,3.62c-.5.17-49.93,18.18-47.2,54.6,3.42,45.65,3.79,94.1-19.45,107.25-18.41,10.43-1.46,101.73,6.63,136Z"/><polygon class="cls-80" points="2086.59 1177.31 2052.04 1308.38 1974.83 1308.38 1940.28 1177.31 2086.59 1177.31"/><path class="cls-81" d="M2086.58,1177.31s-76,14.28-76,131.07h-35.7l-34.55-131.07Z"/><rect class="cls-76" x="697.26" y="383.81" width="1015.94" height="576" transform="translate(2410.46 1343.62) rotate(180)"/><rect class="cls-76" x="697.26" y="363.27" width="1015.94" height="596.55"/><g class="cls-82"><path class="cls-83" d="M915.48,580.56l-36-59A10.26,10.26,0,0,1,897,510.91l25.46,41.69,67.7-40.06a10.25,10.25,0,1,1,10.44,17.65Z"/><path class="cls-84" d="M939.66,671.44a129.64,129.64,0,0,1-129.5-129.5c0-71.4,58.09-129.49,129.5-129.49a129.64,129.64,0,0,1,129.49,129.49C1069.15,613.35,1011.06,671.44,939.66,671.44Zm0-240.49a111,111,0,1,0,111,111A111.12,111.12,0,0,0,939.66,431Z"/></g><rect class="cls-85" x="1234.98" y="383.81" width="213.18" height="21.07"/><rect class="cls-85" x="1234.98" y="421.76" width="382.99" height="21.07"/><rect class="cls-86" x="1205.07" y="383.81" width="15.4" height="59.02"/><rect class="cls-85" x="1234.98" y="512.43" width="272.52" height="21.07"/><rect class="cls-85" x="1234.98" y="550.38" width="332.78" height="21.07"/><rect class="cls-86" x="1205.07" y="512.43" width="15.4" height="59.02"/><rect class="cls-85" x="1234.98" y="632.71" width="159.24" height="21.07"/><rect class="cls-85" x="1234.98" y="670.66" width="370.89" height="21.07"/><rect class="cls-86" x="1205.07" y="632.71" width="15.4" height="59.02"/><rect class="cls-87" x="800.05" y="880.59" width="41.68" height="5.13"/><rect class="cls-87" x="789.94" y="871.45" width="61.91" height="5.13"/><path class="cls-88" d="M831.75,801A10.77,10.77,0,1,1,821,790.2,10.77,10.77,0,0,1,831.75,801Z"/><path class="cls-89" d="M840.4,836v20.47a47.31,47.31,0,0,1-39,0V836a19.51,19.51,0,0,1,39,0Z"/><path class="cls-90" d="M820.89,862a48.44,48.44,0,1,1,20-4.32A48.18,48.18,0,0,1,820.89,862Zm0-94.41a45.94,45.94,0,1,0,45.92,45.92A46,46,0,0,0,820.89,767.59Z"/><rect class="cls-87" x="939.66" y="880.59" width="41.68" height="5.13"/><rect class="cls-87" x="929.54" y="871.45" width="61.91" height="5.13"/><path class="cls-91" d="M971.35,801a10.76,10.76,0,1,1-10.76-10.76A10.76,10.76,0,0,1,971.35,801Z"/><path class="cls-92" d="M980,836v20.47a47.29,47.29,0,0,1-39,0V836a19.51,19.51,0,0,1,39,0Z"/><path class="cls-93" d="M960.5,862a48.45,48.45,0,1,1,20-4.32A48.15,48.15,0,0,1,960.5,862Zm0-94.41a45.93,45.93,0,1,0,45.92,45.92A46,46,0,0,0,960.5,767.59Z"/><rect class="cls-87" x="1079.26" y="880.59" width="41.68" height="5.13"/><rect class="cls-87" x="1069.15" y="871.45" width="61.91" height="5.13"/><path class="cls-94" d="M1111,801a10.76,10.76,0,1,1-10.76-10.76A10.76,10.76,0,0,1,1111,801Z"/><path class="cls-95" d="M1119.61,836v20.47a47.29,47.29,0,0,1-39,0V836a19.51,19.51,0,0,1,39,0Z"/><path class="cls-96" d="M1100.1,862a48.14,48.14,0,0,1-20-4.32,48.62,48.62,0,1,1,20,4.32Zm0-94.41A45.93,45.93,0,1,0,1146,813.51,46,46,0,0,0,1100.1,767.59Z"/><rect class="cls-87" x="1218.87" y="880.59" width="41.68" height="5.13"/><rect class="cls-87" x="1208.76" y="871.45" width="61.91" height="5.13"/><path class="cls-97" d="M1250.57,801a10.77,10.77,0,1,1-10.76-10.76A10.76,10.76,0,0,1,1250.57,801Z"/><path class="cls-98" d="M1259.22,836v20.47a47.31,47.31,0,0,1-39,0V836a19.51,19.51,0,0,1,39,0Z"/><path class="cls-99" d="M1239.71,862a48.44,48.44,0,1,1,20-4.32A48.21,48.21,0,0,1,1239.71,862Zm0-94.41a45.94,45.94,0,1,0,45.92,45.92A46,46,0,0,0,1239.71,767.59Z"/><rect class="cls-100" x="818.97" y="902.34" width="3.84" height="16.13"/><rect class="cls-100" x="818.97" y="902.34" width="3.83" height="16.13" transform="translate(1731.29 89.51) rotate(90)"/><rect class="cls-100" x="958.67" y="902.34" width="3.83" height="16.13"/><rect class="cls-100" x="958.67" y="902.34" width="3.83" height="16.12" transform="translate(1870.99 -50.19) rotate(90)"/><rect class="cls-100" x="1098.37" y="902.34" width="3.84" height="16.13"/><rect class="cls-100" x="1098.38" y="902.34" width="3.83" height="16.12" transform="translate(2010.7 -189.89) rotate(90)"/><rect class="cls-100" x="1238.08" y="902.34" width="3.83" height="16.13"/><rect class="cls-100" x="1238.08" y="902.34" width="3.83" height="16.12" transform="translate(2150.4 -329.59) rotate(90)"/><g class="cls-82"><path class="cls-101" d="M2333.49,822.75,2298,764.62a10.11,10.11,0,0,1,17.26-10.54l25.11,41.1,66.74-39.5a10.11,10.11,0,0,1,10.3,17.41Z"/><path class="cls-102" d="M2357.33,912.35A127.67,127.67,0,1,1,2485,784.68,127.81,127.81,0,0,1,2357.33,912.35Zm0-237.1a109.43,109.43,0,1,0,109.43,109.43A109.55,109.55,0,0,0,2357.33,675.25Z"/></g><g class="cls-82"><path class="cls-103" d="M142,1101.22l-48.54-79.47a13.83,13.83,0,0,1,23.6-14.41l34.32,56.2,91.24-54a13.83,13.83,0,0,1,14.09,23.8Z"/><path class="cls-104" d="M174.54,1223.71C78.3,1223.71,0,1145.42,0,1049.17S78.3,874.63,174.54,874.63s174.55,78.3,174.55,174.54S270.79,1223.71,174.54,1223.71Zm0-324.15c-82.49,0-149.61,67.12-149.61,149.61s67.12,149.61,149.61,149.61,149.61-67.11,149.61-149.61S257,899.56,174.54,899.56Z"/></g><g class="cls-82"><path class="cls-105" d="M25.42,486.71a77,77,0,0,1,.75-10.95A39,39,0,0,1,29,465.68a31.72,31.72,0,0,1,6.1-9.08,40.7,40.7,0,0,1,10.45-7.72l8.58-4.6a87.72,87.72,0,0,0,10.45-6.6,43.38,43.38,0,0,0,8.84-8.58,17.32,17.32,0,0,0,3.73-10.83q0-8.2-6-12.81a21.81,21.81,0,0,0-13.69-4.6,20.07,20.07,0,0,0-8.83,1.86,33.39,33.39,0,0,0-7,4.48,29.28,29.28,0,0,0-5.35,5.85q-2.23,3.24-4,5.72L6.76,400.86a49.64,49.64,0,0,1,20.53-23.65A60.4,60.4,0,0,1,59,368.75a68,68,0,0,1,18.91,2.74,48.45,48.45,0,0,1,16.92,8.71A45.35,45.35,0,0,1,107,395.63q4.72,9.47,4.73,22.89,0,14.19-5.85,23.77t-17.29,16.8a108.53,108.53,0,0,1-10.58,6.22A98.3,98.3,0,0,0,68.22,471,28.17,28.17,0,0,0,61,477.75a14.7,14.7,0,0,0-2.74,9Zm.75,61V510.35h32.6v37.32Z"/></g><path class="cls-106" d="M2089.34,403.9a135.48,135.48,0,1,0-255.14,91.24c1,2.87,2.14,5.7,3.34,8.45a135.48,135.48,0,0,0,251.8-99.69ZM1996,545.16a101.45,101.45,0,0,1-127.35-55.1c-.9-2.07-1.73-4.18-2.51-6.34A101.58,101.58,0,1,1,1996,545.16Z"/><path class="cls-107" d="M1864.8,419.25l-32.37-10.11a135.7,135.7,0,0,1,125.29-95.08l1,33.9a101.69,101.69,0,0,0-93.93,71.29Z"/><path class="cls-108" d="M1868.63,490.06l-31.09,13.53c-1.2-2.75-2.32-5.58-3.34-8.45a134.87,134.87,0,0,1-1.77-86l32.37,10.11a101.11,101.11,0,0,0,1.32,64.47C1866.9,485.88,1867.73,488,1868.63,490.06Z"/><path class="cls-109" d="M1858.54,537.32a134.68,134.68,0,0,1-21-33.73l31.09-13.53a101.27,101.27,0,0,0,15.74,25.29Z"/><path class="cls-110" d="M2206.81,486.66A56,56,0,1,0,2158.87,588q1.71.81,3.45,1.5a56,56,0,0,0,44.49-102.81Zm14,68.63a42,42,0,0,1-53.37,21.13c-.86-.35-1.72-.72-2.58-1.12a42,42,0,1,1,56-20Z"/><path class="cls-111" d="M2145.62,556.82l-12.42,6.51a56.13,56.13,0,0,1,8.83-64.45l10.21,9.62a42.09,42.09,0,0,0-6.62,48.32Z"/><path class="cls-109" d="M2167.45,576.42l-5.13,13.05q-1.74-.69-3.45-1.5a55.71,55.71,0,0,1-25.67-24.64l12.42-6.51a41.85,41.85,0,0,0,19.25,18.48C2165.73,575.7,2166.59,576.07,2167.45,576.42Z"/><path class="cls-112" d="M2233.5,390.62a56,56,0,1,0-101.32-47.94c-.54,1.14-1,2.29-1.49,3.45a56,56,0,0,0,102.81,44.49Zm-68.63,14A42,42,0,0,1,2141,363.27a41.6,41.6,0,0,1,2.79-12c.34-.87.72-1.73,1.12-2.59a42,42,0,0,1,55.95-20,42,42,0,0,1-35.94,76Z"/><path class="cls-107" d="M2163.33,329.43,2156.82,317a56.14,56.14,0,0,1,64.46,8.83l-9.62,10.22a42.08,42.08,0,0,0-48.33-6.63Z"/><path class="cls-111" d="M2143.74,351.27l-13-5.14c.46-1.16.95-2.31,1.49-3.45A55.81,55.81,0,0,1,2156.82,317l6.51,12.42a41.83,41.83,0,0,0-18.47,19.25C2144.46,349.54,2144.08,350.4,2143.74,351.27Z"/><path class="cls-111" d="M2127,362.14a55.58,55.58,0,0,1,3.72-16l13,5.14a41.6,41.6,0,0,0-2.79,12Z"/><polygon class="cls-113" points="2165.62 630.13 2060.97 630.13 2060.97 628.05 2163.54 628.05 2163.54 588.51 2165.62 588.51 2165.62 630.13"/><polygon class="cls-113" points="1968.55 630.13 1832.43 630.13 1832.43 628.05 1966.47 628.05 1966.47 563.33 1968.55 563.33 1968.55 630.13"/><rect class="cls-114" x="1832.43" y="606.4" width="93.66" height="12.48"/><rect class="cls-115" x="2060.97" y="606.4" width="55.09" height="12.48"/><path class="cls-116" d="M557.76,919.72s1.8,9.77,7.28,11.21c4.66,1.23,9.8,6.18,11.38,7.7,2.12,2,11,5.85,8.42,8.55s-14.87-5.6-17.8-6.82,1.27,12.35.08,15.43-24.06,8.77-25.86-.88,2.63-21.15,2-22.78a60.8,60.8,0,0,1-1.59-7Z"/><path class="cls-116" d="M567.23,953.44s3.56,29.91,2.13,32.1-3.06,2.29-3.51-.49-4.28-28.8-4.28-28.8-1.73,36.11-2.51,38.16c-.46,1.2-3.61,1.57-4,.11s-.71-37.35-.71-37.35-1.68,33.71-2.84,35.23a2.33,2.33,0,0,1-4-1.56c0-2.51-.25-33.88-.25-33.88s-2.77,24.46-4.51,25.16c-1.07.43-3.77.89-2.86-5.4s1.5-21.35,1.5-21.35Z"/><path class="cls-116" d="M879,552.81s4.91-9.18,6.59-16.5,10.82-17.07,14.54-19.38,30.7-21.64,33.82-21.64,1.32,6-1.39,7.74-24.61,18.83-24.61,18.83S935.18,503,938,503.55s4.88,4.13,1.82,7.86c0,0,6.22,4.09-.26,9.06l-12.89,10s7.59-4,4.77,2.15c-1.5,3.23-17.35,12.7-19.89,15.59S889,560.81,889,560.81Z"/><path class="cls-116" d="M719.17,1391h6.76s-2.26-25.53,4-25.78,21.77,20.77,31,24,56.81,6,57.06-2.76-18.27-12.27-24-14.76-33.8-29.79-38.8-33-13.27-19.78-13.27-19.78H716.42s-2.8,13.87-4.41,25.06a97.83,97.83,0,0,0-1.1,10.49C710.66,1363.93,719.17,1391,719.17,1391Z"/><path class="cls-116" d="M601.71,1385.91h5.64v-23.76c4.69.39,20.46,15.31,25.34,19.64s11.58,4.12,32.13,5.43,22.5-11,19.24-15.19-13.76-6-19.24-8.64-27.06-27-32.82-32.72-9.26-22.26-9.26-22.26l-24,2.1s.16,15.09-2.58,27.75h0l0,.1c-.23,1.08-.48,2.14-.76,3.17C591.77,1354.69,601.71,1385.91,601.71,1385.91Z"/><path class="cls-116" d="M657.92,591.66s-11.73,24.74-5.46,45c0,0-36.08-4.92-37.16-9.14s4.52-42.16.35-53.79S657.92,591.66,657.92,591.66Z"/><path class="cls-117" d="M658.78,628.44s20.88,9,30.41,11.73,29.11,13.56,24.91,48.59-12.44,65.07-15.73,80-4.71,53.48-2.49,72.42c0,0-52.27,8.91-111.76-8.1,0,0,13-31.08,13.34-39.34s-30.19-78.65-31.06-89.48-4.59-58.57,12.37-67.84,30-6.93,37.24-11.1S649,624.36,658.78,628.44Z"/><path class="cls-117" d="M658.68,682.92s-8-42.07,32.77-42c35.85.06,69.72-6.74,75.4-9.89s27.61-13.94,39.13-25.78S879.89,546,879.89,546l17.25,17.44s-65.82,71.48-76.44,78.44-99.71,56.73-111,58.3S666.63,710.34,658.68,682.92Z"/><path class="cls-117" d="M530.51,812.93c-1.22,14.82,6.84,117.12,6.84,117.12l29,3.34s-2.06-101-3.69-124.34c-.48-6.88,1.11-17.4,3.59-28.8h0c1.57-7.25,3.5-14.85,5.49-22.11,5.49-20,11.4-37.45,11.4-37.45s32.49-84.49-8.27-81.08c0,0-15.14,15.62-21.55,41.24s-13.75,64-14,79.31S531.41,802,530.51,812.93Z"/><path class="cls-118" d="M688.88,840.36s9.36,22.14,10.19,27.73,30.17,78.65,32.21,100c2.07,21.62,8.26,79.3,10.47,87.56s-5,45.15-6.06,53.41-.55,143.17,9.36,209.79c0,0-23.13,9.91-40.75,0,0,0-29.18-104.07-27.53-164.09s9.27-85.35,0-109.58-63.83-96.91-69.33-104.62-40-50.31-7.34-96.46S688.88,840.36,688.88,840.36Z"/><path class="cls-118" d="M576.15,1037.49c2.9,19.28-.15,44.6-6.2,115.09s10.59,155.83,10.59,155.83c20.93,7.16,45,0,45,0-.55-5,0-171.8,0-186.67s4.27-31.74,5.37-48.81c.75-11.63,6.16-33.07,12.25-55,1.82-6.55,3.71-13.15,5.54-19.53h0c1-3.57,2-7.09,3-10.5,8.58-29.73,20.11-144.55,20.11-144.55s-63.91-51.47-95-3-15.14,83.69-14,89.75S573.25,1018.22,576.15,1037.49Z"/><path class="cls-117" d="M700,753.76s-5.68,91.23,11.3,142.56c0,0-67.48,11.25-153.57-17.76,0,0,23.68-61.32,22.86-70.91s-25.74-121.24-13.77-146.23S695.74,671.9,700,753.76Z"/><path class="cls-116" d="M644.86,490c15.43-.62,54.83,5.35,47.49,64.72s-28.78,54.23-50,46.34-43.71-55.89-42.81-68.24S600.85,491.74,644.86,490Z"/><path class="cls-119" d="M692.13,527.24S673.3,548,655.58,552c0,0-15.07,22.89-38.78,27.28,0,0-46.2-51.06-1.87-83.74S693.72,509,692.13,527.24Z"/><path class="cls-116" d="M659.44,544c-.34-3.3-7.09-10.45-13.2-3.44s2.8,25,6.65,25.32S660.74,556.53,659.44,544Z"/><path class="cls-120" d="M602.65,933.94c.49,1.1,32.33,71.78,40.53,84,1.82-6.55,3.71-13.15,5.54-19.53h0S603.71,935.49,602.65,933.94Z"/><path class="cls-121" d="M564.83,707.79s-2.25,44.91,1.43,72.45c1.57-7.25,3.5-14.85,5.49-22.11C571.6,757.1,565.42,714.88,564.83,707.79Z"/><path class="cls-117" d="M705.42,672.91s13.81,49.28,16.72,59.62c3.79,13.44-15.33,33.23-30.91,25.46S705.42,672.91,705.42,672.91Z"/><path class="cls-118" d="M601.71,1385.91h5.64v-23.76c4.69.39,20.46,15.31,25.34,19.64s11.58,4.12,32.13,5.43,22.5-11,19.24-15.19-13.76-6-19.24-8.64c-22,1.18-48.82-29.74-61.7-29.67-6.85,0-6.78,3.82-7,4.54h0l0,.1c-.23,1.08-.48,2.14-.76,3.17C591.77,1354.69,601.71,1385.91,601.71,1385.91Z"/><path class="cls-118" d="M719.17,1391h6.76s-2.26-25.53,4-25.78,21.77,20.77,31,24,56.81,6,57.06-2.76-18.27-12.27-24-14.76c-19.62,0-51.52-21.64-61.41-26s-20.59-1.75-20.59-1.75a97.83,97.83,0,0,0-1.1,10.49C710.66,1363.93,719.17,1391,719.17,1391Z"/><path class="cls-119" d="M633,486.12s-53.69-1.24-45.62,91c6.2,70.9-19.87,105.92-16.2,116.26s16.26,27.6,44.45,12,9.63-96.83,24.77-128.46,48.38-46.27,48.38-46.27S682.93,476.85,633,486.12Z"/><path class="cls-116" d="M1632.08,847.32s-9.16-1-13.47-.8-23.46,11-29.91,10.67-49.54-14.39-51.54-15.52.53-4.2.53-4.2l95.34-9.35Z"/><path class="cls-122" d="M1708.72,693.65l9.84,100.42s4.29,12.41-23.83,17c-28.71,4.67-73.56,14.42-73.56,14.42s.74,33.49,4.52,33.69c11,.59,92.42-13.21,124.68-20,25.6-5.41,9.56-142.33,9.56-142.33Z"/><path class="cls-116" d="M1630.7,813.59s-8.9,2.38-13.21,2.79-24.83-7.38-31.16-6.12-46.85,21.59-48.66,23,1.15,4.08,1.15,4.08l95.67-4.89Z"/><path class="cls-123" d="M1736.42,1344.54s-19.83,12-28.83,16.55-44.12,6.18-47.56,9.52-2,13.83,3.81,14.83,48.6,4.36,62.82.85,40.94,1.79,46.82-.29,1.69-33.86-.68-41S1736.42,1344.54,1736.42,1344.54Z"/><path class="cls-124" d="M1734.61,1331.54l1.81,13s26.77,4.67,34.82.46l-2.17-13.5Z"/><path class="cls-123" d="M1681.8,876.23c-.75,9-1.35,28.6-1.8,49.22-.09,4.58-.18,9.21-.26,13.79-.51,27.76-.76,53.45-.76,53.45,1.31,34.91,6.83,110.46,17.23,127.43,14,22.9,30.3,213.48,30.3,213.48l51.51,5.53s3.2-127.41-4.5-160.68c-8.59-37.16-25.1-87.81-15.67-121.62,5.92-21.21,18.26-89.48,18.26-89.48s13.19-76.78-.5-135.72C1772.19,816.91,1681.8,876.23,1681.8,876.23Z"/><path class="cls-123" d="M1647.93,1344.54s-19.83,12-28.83,16.55-44.12,6.18-47.56,9.52-2,13.83,3.81,14.83,48.6,4.36,62.82.85,40.94,1.79,46.82-.29,1.69-33.86-.68-41S1647.93,1344.54,1647.93,1344.54Z"/><path class="cls-124" d="M1646.11,1331.54l1.82,13s26.77,4.67,34.82.46l-2.17-13.5Z"/><path class="cls-123" d="M1635,1337.46h52.82s17.73-102.15,19.19-147.16h0a114.35,114.35,0,0,0-.14-12.44c-.77-9.55-1.9-20-3-30.83l0-.23c-3.11-32.21-5.4-67.59,5.27-91.54,9-20.12,31.15-85.86,31.15-85.86s24.28-74,19.36-134.33c-1.23-15.06-95.08,22.81-95.08,22.81-2.06,8.78-8.34,36.41-10.56,56.91-12.71,117.09-8,193.38-8,193.38C1653.37,1134,1635,1337.46,1635,1337.46Z"/><path class="cls-125" d="M1672.82,608.21s-18.34,43.56-22.11,66.9,11.69,87.21,12.39,100.41c2.17,41,3.16,86.25,3.16,86.25l89.43,39.86a816.34,816.34,0,0,0,15.87-80.92c6.37-44.52,1.64-83-2.33-108.62-12.45-80.32-62.72-119.18-62.72-119.18Z"/><path class="cls-116" d="M1605,529.81s-6.21,24,.27,25.89c5.34,1.56.31,24.85-.18,28.57s9.91,3.78,12.53,5.45,15.42,27,23.7,25.86,41.52-22.79,48.89-35.53,4-61.26-7.42-79.25S1616,487.85,1605,529.81Z"/><path class="cls-116" d="M1655.45,588.91s.64,2.36,1.57,6c.38,1.52.83,3.27,1.29,5.17.35,1.45.72,3,1.09,4.55.13.57.27,1.14.4,1.72.61,2.66,1.22,5.44,1.77,8.17,1.43,7.08,2.5,13.9,2.32,17.81-.5,10.71,37.72-39.93,37.72-39.93a517.64,517.64,0,0,1-12.81-72C1684.9,481.8,1655.45,588.91,1655.45,588.91Z"/><path class="cls-123" d="M1603.85,535s-17.3-20-.3-42.18,63.39-2,68.07-2,29.6-4.41,28.27,42.56c-1.18,41.81-3.24,40-3.24,40s-12.89-17.54-18.29-19.74c-8.43-3.43-23.8,1.68-23.8,1.68s2.59-21.67-9.78-21.6S1614.58,527.66,1603.85,535Z"/><path class="cls-116" d="M1664.2,540.88c.36-3,.81-15.49,12.53-11.1s.88,30.45-.8,31.17S1661.18,565.91,1664.2,540.88Z"/><path class="cls-120" d="M1660.56,876.31s4.1-19.3,4.89-22.19l120.67,20.08-1.24,15.6S1697.94,884.59,1660.56,876.31Z"/><path class="cls-126" d="M1786.48,779.79s-6.45,84,36.22,174.16c5.21,11-79.89,10.44-79.89,10.44Z"/><path class="cls-126" d="M1662.16,705.1c1.58,9.27,2.95,18.62,4.12,28h0c2.35,18.65,4,37.37,5,55.62.12,1.91.21,3.8.31,5.69.16,3.07.3,6.13.43,9.16q.24,6.08.42,12c2.42,83,33.12,148.44,33.12,148.44s61,4.18,76.71-4.36c0,0,10.94-93.49,6-185.92-.38-7.14-.86-14.27-1.45-21.35v0c-6.2-74.85-35.47-147.24-80.27-159.48C1705.45,593.91,1653.86,656.4,1662.16,705.1Z"/><rect class="cls-127" x="1464.7" y="835.16" width="159.34" height="14.59" transform="translate(3121.48 1621.87) rotate(177.69)"/><rect class="cls-127" x="1365.28" y="768.22" width="159.34" height="14.59" transform="translate(1203.42 2397.55) rotate(-109.75)"/><path class="cls-128" d="M1682.75,1099.21c4.48,29,23.87,89.74,24.3,91.09a114.35,114.35,0,0,0-.14-12.44c-.77-9.55-1.9-20-3-30.83l0-.23c-1-9.42-7.76-26.77-12.24-38.57s-8.94-59.06-8.94-59.06S1678.21,1069.85,1682.75,1099.21Z"/><path class="cls-129" d="M1659.8,606.34c.61,2.66,1.22,5.44,1.77,8.17,11.24-7.72,24.15-28.24,25-29.52C1681.94,591.65,1660.14,606.11,1659.8,606.34Z"/><path class="cls-130" d="M1671.57,784c.11,1.86.21,3.72.31,5.56q.22,4.49.42,8.94c13.69-2.8,39.69-9.78,47.52-23.63,10.66-18.9-15.93-63.05-16.51-64,.25,1.18,11.38,55.54,0,60.94C1695.93,775.3,1680.6,780.1,1671.57,784Z"/><path class="cls-131" d="M1662.38,645.32s-9.31,46.46-1.13,101.95c6.85,46.43,9.5,79.75,9.5,79.75l-3.43,13.1-6.25-10.06s-10.78-59.48-12.79-84.21c-2-24.93-4.16-58.42,10.27-100.79Z"/><path class="cls-131" d="M1663,645.36a6.7,6.7,0,0,1-3,2c-1.85.56-5-2.06,2.74-16.29Z"/><path class="cls-132" d="M1700.29,587.09s-23.56,30-39,38.12l.61,25.23,44.65-57.53Z"/><path class="cls-126" d="M1751.44,669.36c-1.81-11.46-15.18-60.19-42.72-53s-19.78,40.32-13.77,65.31c6.28,26.14,28.79,89.28,24.87,93.22s-35.8,18.38-42.75,20.77-51.12,16.42-54.53,17.88,17.09,37.56,17.09,37.56,110.09-37.54,128.77-49.68S1751.44,669.36,1751.44,669.36Z"/></g></g></svg>