<svg xmlns="http://www.w3.org/2000/svg" xmlns:xlink="http://www.w3.org/1999/xlink" width="228.781" height="24.1" viewBox="0 0 228.781 24.1">
  <metadata><?xpacket begin="﻿" id="W5M0MpCehiHzreSzNTczkc9d"?>
<x:xmpmeta xmlns:x="adobe:ns:meta/" x:xmptk="Adobe XMP Core 5.6-c142 79.160924, 2017/07/13-01:06:39        ">
   <rdf:RDF xmlns:rdf="http://www.w3.org/1999/02/22-rdf-syntax-ns#">
      <rdf:Description rdf:about=""/>
   </rdf:RDF>
</x:xmpmeta>
                                                                                                    
                                                                                                    
                                                                                                    
                                                                                                    
                                                                                                    
                                                                                                    
                                                                                                    
                                                                                                    
                                                                                                    
                                                                                                    
                                                                                                    
                                                                                                    
                                                                                                    
                                                                                                    
                                                                                                    
                                                                                                    
                                                                                                    
                                                                                                    
                                                                                                    
                                                                                                    
                           
<?xpacket end="w"?></metadata>
<defs>
    <style>
      .cls-1 {
        fill: #0099e0;
        fill-rule: evenodd;
        filter: url(#filter);
      }
    </style>
    <filter id="filter" x="595" y="4665.78" width="228.781" height="24.1" filterUnits="userSpaceOnUse">
      <feFlood result="flood" flood-color="#fff"/>
      <feComposite result="composite" operator="in" in2="SourceGraphic"/>
      <feBlend result="blend" in2="SourceGraphic"/>
    </filter>
  </defs>
  <path id="_-e-logo-CT" data-name="-e-logo-CT" class="cls-1" d="M614.959,4665.8H603.746a8.8,8.8,0,0,0-6.289,2.31,7.993,7.993,0,0,0-2.451,6.09,8.495,8.495,0,0,0,8.74,8.77h9.8v-2.99h-9.8a5.714,5.714,0,0,1-4.1-1.53,5.286,5.286,0,0,1-1.612-4,5.482,5.482,0,0,1,1.612-4.08,5.626,5.626,0,0,1,4.1-1.58h16.373v14.18h3v-14.18h5.421l1.412-2.99H614.959Zm-13.6,24.07h21.909v-3.41H601.358v3.41Zm53.551-6.98h-9.76a8.464,8.464,0,0,1-8.706-8.73,7.931,7.931,0,0,1,2.443-6.06,8.747,8.747,0,0,1,6.263-2.3h9.76v2.98h-9.76a5.6,5.6,0,0,0-4.085,1.58,5.43,5.43,0,0,0-1.6,4.05,5.235,5.235,0,0,0,1.6,3.97,5.679,5.679,0,0,0,4.085,1.52h9.76v2.99Zm24.689-8.73a8.5,8.5,0,0,1-2.454,6.25,8.379,8.379,0,0,1-6.243,2.48h-4.83a8.391,8.391,0,0,1-6.232-2.48,8.487,8.487,0,0,1-2.466-6.25,7.926,7.926,0,0,1,2.441-6.06,8.721,8.721,0,0,1,6.257-2.3h4.83a8.715,8.715,0,0,1,6.27,2.3A7.956,7.956,0,0,1,679.6,4674.16Zm-3,.25a5.433,5.433,0,0,0-1.6-4.05,5.618,5.618,0,0,0-4.1-1.58h-4.825a5.584,5.584,0,0,0-4.079,1.58,5.427,5.427,0,0,0-1.6,4.05,5.232,5.232,0,0,0,1.6,3.97,5.663,5.663,0,0,0,4.079,1.52H670.9a5.7,5.7,0,0,0,4.1-1.52A5.238,5.238,0,0,0,676.6,4674.41Zm22.7,7q0,1.65-1.14,1.65a2.883,2.883,0,0,1-1.876-1.02l-11.056-11.01v11.86h-2.994v-15.62a1.7,1.7,0,0,1,.329-1.04,1.1,1.1,0,0,1,.938-0.43,2.546,2.546,0,0,1,1.727.87l11.056,10.99V4665.8H699.3v15.61Zm22.558-3.8a4.857,4.857,0,0,1-1.745,3.9,6.334,6.334,0,0,1-4.174,1.38H702.772v-2.99h13.171a4.05,4.05,0,0,0,2.151-.55,2.059,2.059,0,0,0,1.038-1.82,1.944,1.944,0,0,0-1.064-1.77,4.09,4.09,0,0,0-2.125-.53H707.8a5.788,5.788,0,0,1-3.768-1.23,4.565,4.565,0,0,1,0-6.98,5.794,5.794,0,0,1,3.771-1.22h13.022v2.98H707.807a2.343,2.343,0,0,0-1.466.47,1.544,1.544,0,0,0-.606,1.28,1.5,1.5,0,0,0,.606,1.27,2.387,2.387,0,0,0,1.466.44h8.141a6.21,6.21,0,0,1,4.171,1.43A4.956,4.956,0,0,1,721.862,4677.61Zm21.979-2.4q0,4.125-2.5,6.03-2.2,1.65-6.521,1.65h-1.034q-4.323,0-6.519-1.65-2.5-1.9-2.5-6.03v-9.41h3.017v9.4q0,3.075,2.144,4.08a13.19,13.19,0,0,0,4.894.62,8.182,8.182,0,0,0,4.29-.87,4.2,4.2,0,0,0,1.717-3.83v-9.4h3.015v9.41Zm17.783,7.68h-14.9V4665.8h3.017v14.1h11.883v2.99Zm11.969-14.11h-6.8v14.11H763.8v-14.11H756.97v-2.98h16.623v2.98Zm5.531,14.11h-3.016V4665.8h3.016v17.09Zm21.3-1.48q0,1.65-1.142,1.65a2.892,2.892,0,0,1-1.875-1.02l-11.056-11.01v11.86h-3v-15.62a1.694,1.694,0,0,1,.333-1.04,1.1,1.1,0,0,1,.937-0.43,2.544,2.544,0,0,1,1.725.87l11.056,10.99V4665.8h3.017v15.61Zm23.344,1.48H812.8a8.394,8.394,0,0,1-6.232-2.48,8.485,8.485,0,0,1-2.464-6.25,7.918,7.918,0,0,1,2.444-6.06,8.735,8.735,0,0,1,6.262-2.3h9.732v2.98h-9.732a5.6,5.6,0,0,0-4.086,1.58,5.423,5.423,0,0,0-1.6,4.05,5.234,5.234,0,0,0,1.6,3.97,5.664,5.664,0,0,0,4.08,1.52h7.954v-3.72h-8.192v-2.72h11.207v9.43Z" transform="translate(-595 -4665.78)"/>
</svg>
