<svg xmlns="http://www.w3.org/2000/svg" viewBox="0 0 45.35 45.35"><defs><style>.cls-1{fill:#fff;}</style></defs><title>ig</title><g id="Слой_2" data-name="Слой 2"><g id="Слой_1-2" data-name="Слой 1"><path class="cls-1" d="M32.84,0H12.52A12.53,12.53,0,0,0,0,12.52V32.84A12.52,12.52,0,0,0,12.52,45.35H32.84A12.52,12.52,0,0,0,45.35,32.84V12.52A12.52,12.52,0,0,0,32.84,0Zm8.49,32.84a8.5,8.5,0,0,1-8.49,8.49H12.52A8.5,8.5,0,0,1,4,32.84V12.52A8.51,8.51,0,0,1,12.52,4H32.84a8.5,8.5,0,0,1,8.49,8.5V32.84Z"/><path class="cls-1" d="M22.68,11A11.69,11.69,0,1,0,34.36,22.68,11.7,11.7,0,0,0,22.68,11Zm0,19.35a7.67,7.67,0,1,1,7.66-7.66A7.68,7.68,0,0,1,22.68,30.34Z"/><path class="cls-1" d="M34.85,7.58a2.95,2.95,0,0,0-2.08,5,3,3,0,0,0,4.17,0,3,3,0,0,0-2.09-5Z"/></g></g></svg>