<svg xmlns="http://www.w3.org/2000/svg" viewBox="0 0 49.54 47.34"><defs><style>.cls-1{fill:#fff;}</style></defs><title>in</title><g id="Слой_2" data-name="Слой 2"><g id="Слой_1-2" data-name="Слой 1"><path class="cls-1" d="M49.54,29V47.34H38.92V30.25C38.92,26,37.39,23,33.54,23a5.81,5.81,0,0,0-5.45,3.89,7.2,7.2,0,0,0-.35,2.58V47.34H17.12s.14-28.95,0-31.94H27.74v4.53l-.07.1h.07v-.1a10.55,10.55,0,0,1,9.58-5.28c7,0,12.22,4.56,12.22,14.37ZM6,0C2.38,0,0,2.39,0,5.52A5.5,5.5,0,0,0,5.87,11h.07c3.7,0,6-2.45,6-5.52S9.64,0,6,0ZM.63,47.34H11.25V15.4H.63Z"/></g></g></svg>