<svg xmlns="http://www.w3.org/2000/svg" viewBox="0 0 37.43 71.34"><defs><style>.cls-1{fill:#2796d4;}</style></defs><title>Ресурс 1</title><g id="Слой_2" data-name="Слой 2"><g id="Слой_1-2" data-name="Слой 1"><path class="cls-1" d="M34.23,44.88a10.8,10.8,0,0,0,2.68-4.76,6.65,6.65,0,0,0-3.63,1.93,16.17,16.17,0,0,0-2.59,3.69,39.27,39.27,0,0,0,1.48-6.05,5.16,5.16,0,0,0,3.43-2,10.76,10.76,0,0,0,1.83-5.16,6.65,6.65,0,0,0-3.25,2.55,16.23,16.23,0,0,0-1.92,4.09,40.08,40.08,0,0,0,.43-5.79,5.18,5.18,0,0,0,3.06-2.56,10.75,10.75,0,0,0,1-5.41,6.76,6.76,0,0,0-2.79,3.07,16.36,16.36,0,0,0-1.24,4.36,38.71,38.71,0,0,0-.53-5.88,5.2,5.2,0,0,0,2.59-3.06,10.7,10.7,0,0,0,0-5.53,6.64,6.64,0,0,0-2.22,3.52,17.26,17.26,0,0,0-.48,4.53,37.48,37.48,0,0,0-1.5-5.66,5.22,5.22,0,0,0,2-3.47,10.74,10.74,0,0,0-1-5.51A6.67,6.67,0,0,0,30,15.63a17.4,17.4,0,0,0,.33,4.59,36.79,36.79,0,0,0-2.71-5.76A5.14,5.14,0,0,0,29,10.64a11.06,11.06,0,0,0-2.13-5.33,6.72,6.72,0,0,0-.73,4.15A18.94,18.94,0,0,0,27.37,14a35.2,35.2,0,0,0-3.59-4.93,5.06,5.06,0,0,0,.54-4A11.77,11.77,0,0,0,21,0a6.8,6.8,0,0,0,.15,4.29,20.56,20.56,0,0,0,2.2,4.33c-.67-.75-1.37-1.48-2.11-2.18a10.86,10.86,0,0,0-3.22-3.8A12.29,12.29,0,0,0,12.43.45a27.31,27.31,0,0,0,4.27,4,23.71,23.71,0,0,0,4.19,2.39C21.62,7.54,22.32,8.26,23,9a9.34,9.34,0,0,0-4.2-2,5.09,5.09,0,0,0-3.92,1A16.41,16.41,0,0,0,19.4,9.81a7,7,0,0,0,4-.36,35.54,35.54,0,0,1,3.53,4.86,8.59,8.59,0,0,0-3.65-2.59,5.11,5.11,0,0,0-3.95.32,15,15,0,0,0,4,2.48,6.81,6.81,0,0,0,3.89.27,35.67,35.67,0,0,1,2.67,5.67,8.3,8.3,0,0,0-3-3.13A5,5,0,0,0,22.91,17a14.34,14.34,0,0,0,3.37,3.08A6.89,6.89,0,0,0,30,21a37.5,37.5,0,0,1,1.48,5.57A8.14,8.14,0,0,0,29.07,23a5,5,0,0,0-3.74-1,13.34,13.34,0,0,0,2.76,3.55,6.73,6.73,0,0,0,3.51,1.53,37.53,37.53,0,0,1,.52,5.79,8.18,8.18,0,0,0-1.8-3.9,5.14,5.14,0,0,0-3.51-1.6,13,13,0,0,0,2.1,3.94,6.84,6.84,0,0,0,3.2,2.1,39,39,0,0,1-.42,5.71A8.17,8.17,0,0,0,30.55,35a5,5,0,0,0-3.19-2.15,12.9,12.9,0,0,0,1.43,4.22,6.86,6.86,0,0,0,2.82,2.6,39.56,39.56,0,0,1-1.46,6,8.28,8.28,0,0,0-.42-4.28A5.18,5.18,0,0,0,27,38.65a13.2,13.2,0,0,0,.69,4.42A7,7,0,0,0,30,46.14a38.1,38.1,0,0,1-2.27,5.26A8.34,8.34,0,0,0,28,47.09,5.19,5.19,0,0,0,25.7,44a13.35,13.35,0,0,0,0,4.48,7,7,0,0,0,1.79,3.42,36.77,36.77,0,0,1-3.28,5,8.32,8.32,0,0,0,1-4.22,5.23,5.23,0,0,0-1.73-3.49,13.57,13.57,0,0,0-.81,4.43,7.07,7.07,0,0,0,1.16,3.7,37.19,37.19,0,0,1-4,4.25,8.28,8.28,0,0,0,1.79-4,5.17,5.17,0,0,0-1.11-3.74,13.82,13.82,0,0,0-1.58,4.25,7,7,0,0,0,.49,3.86,35,35,0,0,1-5.18,3.76,8.41,8.41,0,0,0,2.61-3.64,5.09,5.09,0,0,0-.37-3.9,14.82,14.82,0,0,0-2.43,3.93,6.86,6.86,0,0,0-.3,3.9,35.5,35.5,0,0,1-5.64,2.63,8.93,8.93,0,0,0,3.4-3.16,5,5,0,0,0,.39-3.92A16.22,16.22,0,0,0,8.67,65a6.85,6.85,0,0,0-1.11,3.8A40.18,40.18,0,0,1,.45,70.58c-.27,0-.47.2-.45.35s.26.25.54.21a40.34,40.34,0,0,0,7.22-1.78,5.35,5.35,0,0,0,3.7,1.93,11.86,11.86,0,0,0,5.76-1.14,6.67,6.67,0,0,0-4-1.47,20.5,20.5,0,0,0-4.89.47,37.45,37.45,0,0,0,5.72-2.67,5.29,5.29,0,0,0,3.88,1.3,11.08,11.08,0,0,0,5.28-2,6.58,6.58,0,0,0-4.1-.79,18.16,18.16,0,0,0-4.55,1.25,35.46,35.46,0,0,0,5.25-3.82,5.17,5.17,0,0,0,4,.59A10.7,10.7,0,0,0,28.5,60,6.53,6.53,0,0,0,24.37,60a17,17,0,0,0-4.13,2,35.78,35.78,0,0,0,4.05-4.31,5.1,5.1,0,0,0,4-.07A10.65,10.65,0,0,0,32.37,54a6.45,6.45,0,0,0-4.06.62,16.56,16.56,0,0,0-3.68,2.65A38.58,38.58,0,0,0,28,52.14a5.12,5.12,0,0,0,3.89-.75,10.62,10.62,0,0,0,3.41-4.27,6.54,6.54,0,0,0-3.89,1.3,16.49,16.49,0,0,0-3.15,3.22,40,40,0,0,0,2.31-5.34A5.44,5.44,0,0,0,34.23,44.88Z"/></g></g></svg>