<svg xmlns="http://www.w3.org/2000/svg" width="30" height="30" viewBox="0 0 30 30" fill="none"><path d="M28.7999 1.20001H1.19995V28.8H28.7999V1.20001Z" fill="#13CEC0"/><path d="M22.2001 17.4C21.8819 17.4 21.5766 17.2736 21.3516 17.0485C21.1265 16.8234 21.0001 16.5182 21.0001 16.2V8.99998H13.8001C13.4819 8.99998 13.1766 8.87356 12.9516 8.6485C12.7265 8.42344 12.6001 8.11822 12.6001 7.79998C12.6001 7.48174 12.7265 7.17652 12.9516 6.95146C13.1766 6.7264 13.4819 6.59998 13.8001 6.59998H22.2001C22.5183 6.59998 22.8236 6.7264 23.0486 6.95146C23.2737 7.17652 23.4001 7.48174 23.4001 7.79998V16.2C23.4001 16.5182 23.2737 16.8234 23.0486 17.0485C22.8236 17.2736 22.5183 17.4 22.2001 17.4Z" fill="white"/><path d="M1.20009 20.4C0.963487 20.399 0.732458 20.3281 0.536042 20.1962C0.339629 20.0642 0.186599 19.8772 0.0961882 19.6585C0.00577843 19.4399 -0.0179759 19.1994 0.0279115 18.9673C0.0737992 18.7352 0.18728 18.5218 0.354089 18.354L6.95409 11.754C7.17891 11.5305 7.48305 11.405 7.80009 11.405C8.11713 11.405 8.42127 11.5305 8.64609 11.754L12.6001 15.672L20.7541 7.55399C20.9793 7.32881 21.2847 7.20233 21.6031 7.20233C21.9215 7.20233 22.2269 7.32881 22.4521 7.55399C22.6773 7.77917 22.8038 8.08457 22.8038 8.40299C22.8038 8.72141 22.6773 9.02681 22.4521 9.25199L13.4821 18.216C13.2573 18.4395 12.9531 18.565 12.6361 18.565C12.3191 18.565 12.0149 18.4395 11.7901 18.216L7.80009 14.292L2.04009 20.052C1.81657 20.2737 1.5149 20.3987 1.20009 20.4Z" fill="white"/><path d="M28.8 30H1.2C0.881742 30 0.576515 29.8736 0.351472 29.6485C0.126428 29.4235 0 29.1182 0 28.8V1.2C0 0.881742 0.126428 0.576515 0.351472 0.351472C0.576515 0.126428 0.881742 0 1.2 0H28.8C29.1182 0 29.4235 0.126428 29.6485 0.351472C29.8736 0.576515 30 0.881742 30 1.2V28.8C30 29.1182 29.8736 29.4235 29.6485 29.6485C29.4235 29.8736 29.1182 30 28.8 30ZM2.4 27.6H27.6V2.4H2.4V27.6Z" fill="#067065"/><path d="M7.8001 30C7.48186 30 7.17664 29.8736 6.95158 29.6485C6.72652 29.4234 6.6001 29.1182 6.6001 28.8V24C6.6001 23.6817 6.72652 23.3765 6.95158 23.1515C7.17664 22.9264 7.48186 22.8 7.8001 22.8C8.11834 22.8 8.42356 22.9264 8.64862 23.1515C8.87368 23.3765 9.0001 23.6817 9.0001 24V28.8C9.0001 29.1182 8.87368 29.4234 8.64862 29.6485C8.42356 29.8736 8.11834 30 7.8001 30Z" fill="#067065"/><path d="M15 30C14.6818 30 14.3766 29.8736 14.1515 29.6485C13.9265 29.4234 13.8 29.1182 13.8 28.8V24C13.8 23.6817 13.9265 23.3765 14.1515 23.1515C14.3766 22.9264 14.6818 22.8 15 22.8C15.3183 22.8 15.6235 22.9264 15.8486 23.1515C16.0736 23.3765 16.2 23.6817 16.2 24V28.8C16.2 29.1182 16.0736 29.4234 15.8486 29.6485C15.6235 29.8736 15.3183 30 15 30Z" fill="#067065"/><path d="M22.2 30C21.8818 30 21.5765 29.8736 21.3515 29.6485C21.1264 29.4234 21 29.1182 21 28.8V24C21 23.6817 21.1264 23.3765 21.3515 23.1515C21.5765 22.9264 21.8818 22.8 22.2 22.8C22.5182 22.8 22.8235 22.9264 23.0485 23.1515C23.2736 23.3765 23.4 23.6817 23.4 24V28.8C23.4 29.1182 23.2736 29.4234 23.0485 29.6485C22.8235 29.8736 22.5182 30 22.2 30Z" fill="#067065"/></svg>