<svg xmlns="http://www.w3.org/2000/svg" viewBox="0 0 199.6 187.17"><g data-name="Слой 2"><g data-name="Layer 1"><path d="M7.96 68.95h46.4v112.61H7.96zM76.6 37.26H123v144.3H76.6zm74.57-31.97h46.4v174.19h-46.4z" fill="#d3679d"/><path d="M122.1 31.48H77.49a5.67 5.67 0 00-5.64 5.64v144.35a5.63 5.63 0 005.64 5.64h44.61a5.67 5.67 0 005.65-5.64V37.12a5.67 5.67 0 00-5.65-5.64zm-5.64 144.35H83.14v-133h33.32zM194 0h-44.66a5.67 5.67 0 00-5.64 5.64v175.83a5.63 5.63 0 005.64 5.64H194a5.67 5.67 0 005.65-5.64V5.64A5.68 5.68 0 00194 0zm-5.64 175.83H155V11.34h33.32zM50.25 63.22H5.64A5.67 5.67 0 000 68.87v112.66a5.63 5.63 0 005.64 5.64h44.61a5.68 5.68 0 005.65-5.64V68.87a5.65 5.65 0 00-5.65-5.65zm-5.64 112.61H11.29V74.51h33.32z" fill="#812124"/></g></g></svg>