<svg xmlns="http://www.w3.org/2000/svg" viewBox="0 0 52.28 42.49"><defs><style>.cls-1{fill:#fff;}</style></defs><title>twitter</title><g id="Слой_2" data-name="Слой 2"><g id="Слой_1-2" data-name="Слой 1"><path class="cls-1" d="M52.28,5a21.53,21.53,0,0,1-6.16,1.69A10.75,10.75,0,0,0,50.84.79,21.67,21.67,0,0,1,44,3.39a10.73,10.73,0,0,0-18.56,7.34,10.86,10.86,0,0,0,.28,2.44A30.47,30.47,0,0,1,3.64,2,10.76,10.76,0,0,0,7,16.29,10.68,10.68,0,0,1,2.1,14.94v.14a10.73,10.73,0,0,0,8.6,10.51,10.73,10.73,0,0,1-4.84.19,10.75,10.75,0,0,0,10,7.45A21.49,21.49,0,0,1,2.56,37.82,21.6,21.6,0,0,1,0,37.67a30.3,30.3,0,0,0,16.44,4.82C36.17,42.49,47,26.14,47,12c0-.47,0-.93,0-1.39A21.55,21.55,0,0,0,52.28,5Z"/></g></g></svg>