<svg xmlns="http://www.w3.org/2000/svg" viewBox="0 0 59.11 34.02"><defs><style>.cls-1{fill:#fff;fill-rule:evenodd;}</style></defs><title>vk</title><g id="Слой_2" data-name="Слой 2"><g id="Слой_1-2" data-name="Слой 1"><path class="cls-1" d="M28.92,33.87h3.54a2.91,2.91,0,0,0,1.61-.71,2.6,2.6,0,0,0,.48-1.56s-.07-4.79,2.13-5.49,5,4.62,7.91,6.66A5.56,5.56,0,0,0,48.52,34l7.89-.11s4.13-.25,2.18-3.53c-.17-.27-1.15-2.42-5.88-6.85-4.94-4.63-4.28-3.89,1.68-11.9C58,6.71,59.47,3.73,59,2.45s-3.1-.89-3.1-.89L47,1.61a2,2,0,0,0-1.15.2,2.46,2.46,0,0,0-.78,1,51.94,51.94,0,0,1-3.29,7c-4,6.78-5.54,7.14-6.18,6.72-1.51-1-1.13-3.95-1.13-6,0-6.57,1-9.31-1.93-10A15.05,15.05,0,0,0,28.43,0c-3.18,0-5.86,0-7.38.76-1,.5-1.79,1.61-1.32,1.67a4,4,0,0,1,2.63,1.34c.91,1.24.88,4.05.88,4.05s.52,7.74-1.23,8.7c-1.2.66-2.84-.69-6.37-6.84a58.7,58.7,0,0,1-3.17-6.63,2.65,2.65,0,0,0-.73-1,3.75,3.75,0,0,0-1.37-.56l-8.44.06s-1.27,0-1.74.59,0,1.52,0,1.52,6.61,15.6,14.1,23.46c6.86,7.22,14.66,6.74,14.66,6.74Z"/></g></g></svg>