<svg xmlns="http://www.w3.org/2000/svg" viewBox="0 0 499.58 163.83"><defs><style>.cls-1{opacity:0.31;}.cls-2,.cls-3{fill:none;stroke:#fff;stroke-linecap:round;stroke-linejoin:round;stroke-width:0.88px;}.cls-3{stroke-dasharray:4.39 4.39;}</style></defs><title>way</title><g id="Слой_2" data-name="Слой 2"><g id="OBJECTS"><g class="cls-1"><path class="cls-2" d="M.44,163.39c.11-.73.24-1.45.4-2.16"/><path class="cls-3" d="M2,157c26.23-76.32,298-22.26,415.32-19.17C518.69,140.5,548.5,5.31,373.72,17.28c-14.33,1-43.24,17.5-44,56.42a9.33,9.33,0,0,1-17.29,4.69l-.93-1.52a9.27,9.27,0,0,1-.52-8.8c3.77-8,5.54-21.15,4.57-29.39C314.4,28.83,309.4,20,302.77,16.11,294,11,284,14.35,274.6,16.5c-25.15,5.73-50.89,1.82-76.07-3.57S148.18.65,122.7.44,71,7.24,50,27.33c-6.75,6.47-13,14.56-16.26,25S31,76,36.49,84.42C42.85,94.07,53.43,94.86,62.86,95l76.21.87"/><path class="cls-2" d="M141.27,95.87l2.2,0"/></g></g></g></svg>