<svg xmlns="http://www.w3.org/2000/svg" viewBox="0 0 218.66 218.52"><defs><style>.cls-1{fill:#7673c0;}.cls-1,.cls-3{stroke:#000;}.cls-1,.cls-2,.cls-3{stroke-miterlimit:10;stroke-width:3px;}.cls-2{fill:#211746;stroke:#211746;}.cls-3{fill:#fff;}</style></defs><title>Ресурс 1</title><g id="Слой_2" data-name="Слой 2"><g id="Layer_1" data-name="Layer 1"><polyline class="cls-1" points="32.94 17.65 152.39 17.66 187.23 17.65 205.57 19.32 210.23 24.18 210.23 33.03 195.57 52.21 195.57 107.74 195.57 155.47 183.25 160.7 13.09 155.47 13.09 41.85 1.61 31.73 1.61 22.36 13.09 17.65"/><path class="cls-2" d="M207.05,12.24H119.39V6.55a5.06,5.06,0,0,0-10.11,0v5.69H11.61A10.13,10.13,0,0,0,1.5,22.35v9.39A10.13,10.13,0,0,0,11.61,41.85H13V155.47a10.13,10.13,0,0,0,10.11,10.11h86.19v14.84L71.82,207.89a5.06,5.06,0,1,0,6,8.16L109.28,193v19a5.06,5.06,0,0,0,10.11,0V193l31.48,23.1a5.06,5.06,0,0,0,6-8.16l-37.46-27.47V165.58h76.18a10.13,10.13,0,0,0,10.11-10.11V41.85h1.37a10.12,10.12,0,0,0,10.11-10.11V22.35A10.12,10.12,0,0,0,207.05,12.24Zm-1.48,143.23H23.09V41.85H195.57V155.47ZM217.05,31.74H11.61V22.35H207.05v9.39Z"/><path class="cls-3" d="M114.51,63.46l17.08,7.63L143,83.48l3.64,16.85-3.64,14L137.84,127l-13.75,7.34S111.18,138,108.26,137s-16.94-3.79-16.94-3.79l-9.25-9.66-8.85-19.21,11.3-3.84,19.16,1.74s1.75-1.95,6.22-1.91,0-18.75,0-18.75l.34-16Z"/><polygon class="cls-3" points="68.68 83.48 96.18 83.48 94.1 58.92 77.53 65.6 68.68 78.48 68.68 83.48"/><path class="cls-2" d="M110.1,58.92a4.29,4.29,0,0,0-4.29,4.28V96.05H73a4.29,4.29,0,0,0-4.29,4.28A41.42,41.42,0,1,0,110.1,58.92Zm0,74.26a32.9,32.9,0,0,1-32.57-28.56H110.1a4.29,4.29,0,0,0,4.28-4.29V67.76a32.85,32.85,0,0,1-4.28,65.42Z"/><path class="cls-2" d="M95.6,54.49A31.38,31.38,0,0,0,64.25,85.84a4.29,4.29,0,0,0,4.29,4.28H95.6a4.28,4.28,0,0,0,4.28-4.28V58.77A4.27,4.27,0,0,0,95.6,54.49ZM91.32,81.55H73.22a22.85,22.85,0,0,1,18.1-18.09Z"/></g></g></svg>